{
DisplayStrings = (

glyphs = (
{
glyphname = gjA;
lastChange = "2015-06-05 14:43:25 +0000";
layers = (
{
background = {
paths = (
{
closed = 1;
nodes = (
"1185 804 OFFCURVE",
"1309 844 OFFCURVE",
"1415 844 CURVE SMOOTH",
"1517 844 OFFCURVE",
"1537 809 OFFCURVE",
"1537 779 CURVE SMOOTH",
"1537 766 OFFCURVE",
"1533 750 OFFCURVE",
"1528 733 CURVE SMOOTH",
"1375 229 LINE",
"1372 222 OFFCURVE",
"1371 216 OFFCURVE",
"1371 210 CURVE SMOOTH",
"1371 196 OFFCURVE",
"1380 187 OFFCURVE",
"1393 187 CURVE SMOOTH",
"1423 187 OFFCURVE",
"1430 220 OFFCURVE",
"1443 220 CURVE SMOOTH",
"1454 220 OFFCURVE",
"1460 202 OFFCURVE",
"1460 184 CURVE SMOOTH",
"1460 98 OFFCURVE",
"1368 -4 OFFCURVE",
"1227 -4 CURVE SMOOTH",
"1068 -4 OFFCURVE",
"1009 85 OFFCURVE",
"1009 186 CURVE SMOOTH",
"1009 224 OFFCURVE",
"1018 275 OFFCURVE",
"1051 379 CURVE SMOOTH",
"1154 706 LINE SMOOTH"
);
},
{
closed = 1;
nodes = (
"466 853 OFFCURVE",
"568 781 OFFCURVE",
"568 656 CURVE SMOOTH",
"568 453 OFFCURVE",
"398 200 OFFCURVE",
"183 200 CURVE SMOOTH",
"85 200 OFFCURVE",
"-30 265 OFFCURVE",
"-30 400 CURVE SMOOTH",
"-30 505 OFFCURVE",
"25 607 OFFCURVE",
"161 539 CURVE",
"199 569 OFFCURVE",
"219 615 OFFCURVE",
"219 660 CURVE SMOOTH",
"219 676 OFFCURVE",
"210 684 OFFCURVE",
"197 684 CURVE SMOOTH",
"167 684 OFFCURVE",
"160 652 OFFCURVE",
"147 652 CURVE SMOOTH",
"136 652 OFFCURVE",
"130 670 OFFCURVE",
"130 688 CURVE SMOOTH",
"130 773 OFFCURVE",
"189 853 OFFCURVE",
"330 853 CURVE SMOOTH"
);
},
{
closed = 1;
nodes = (
"900 652 OFFCURVE",
"995 576 OFFCURVE",
"995 440 CURVE SMOOTH",
"995 284 OFFCURVE",
"873 161 OFFCURVE",
"727 161 CURVE SMOOTH",
"566 161 OFFCURVE",
"461 238 OFFCURVE",
"401 364 CURVE",
"452 417 LINE",
"483 404 OFFCURVE",
"513 396 OFFCURVE",
"541 396 CURVE SMOOTH",
"599 396 OFFCURVE",
"639 424 OFFCURVE",
"639 479 CURVE SMOOTH",
"639 527 OFFCURVE",
"613 549 OFFCURVE",
"613 570 CURVE SMOOTH",
"613 597 OFFCURVE",
"689 652 OFFCURVE",
"780 652 CURVE SMOOTH"
);
},
{
closed = 1;
nodes = (
"1022 399 OFFCURVE",
"1068 427 OFFCURVE",
"1100 528 CURVE",
"1065 272 LINE",
"974 272 OFFCURVE",
"892 301 OFFCURVE",
"798 372 CURVE",
"915 417 LINE"
);
}
);
};
layerId = "FF8CB9F1-2B98-444C-A502-96421F2531A8";
rightMetricsKey = "pa-gujarati";
name = Bold;
paths = (
{
closed = 1;
nodes = (
"1335 844 OFFCURVE",
"1187 809 OFFCURVE",
"1163 733 CURVE SMOOTH",
"1051 379 LINE SMOOTH",
"1022 287 OFFCURVE",
"1009 234 OFFCURVE",
"1009 186 CURVE SMOOTH",
"1009 85 OFFCURVE",
"1068 -4 OFFCURVE",
"1228 -4 CURVE SMOOTH",
"1368 -4 OFFCURVE",
"1461 98 OFFCURVE",
"1461 184 CURVE SMOOTH",
"1461 202 OFFCURVE",
"1455 220 OFFCURVE",
"1444 220 CURVE SMOOTH",
"1431 220 OFFCURVE",
"1423 187 OFFCURVE",
"1393 187 CURVE SMOOTH",
"1375 187 OFFCURVE",
"1367 203 OFFCURVE",
"1375 229 CURVE SMOOTH",
"1529 733 LINE SMOOTH",
"1534 750 OFFCURVE",
"1537 766 OFFCURVE",
"1537 779 CURVE SMOOTH",
"1537 809 OFFCURVE",
"1524 844 OFFCURVE",
"1436 844 CURVE SMOOTH"
);
},
{
closed = 1;
nodes = (
"189 853 OFFCURVE",
"130 773 OFFCURVE",
"130 688 CURVE SMOOTH",
"130 670 OFFCURVE",
"136 652 OFFCURVE",
"147 652 CURVE SMOOTH",
"160 652 OFFCURVE",
"167 684 OFFCURVE",
"197 684 CURVE SMOOTH",
"210 684 OFFCURVE",
"219 676 OFFCURVE",
"219 660 CURVE SMOOTH",
"219 615 OFFCURVE",
"199 569 OFFCURVE",
"161 539 CURVE",
"25 607 OFFCURVE",
"-30 505 OFFCURVE",
"-30 400 CURVE SMOOTH",
"-30 265 OFFCURVE",
"85 200 OFFCURVE",
"183 200 CURVE SMOOTH",
"398 200 OFFCURVE",
"568 453 OFFCURVE",
"568 656 CURVE SMOOTH",
"568 781 OFFCURVE",
"466 853 OFFCURVE",
"330 853 CURVE SMOOTH"
);
},
{
closed = 1;
nodes = (
"689 652 OFFCURVE",
"613 597 OFFCURVE",
"613 570 CURVE SMOOTH",
"613 549 OFFCURVE",
"639 527 OFFCURVE",
"639 479 CURVE SMOOTH",
"639 424 OFFCURVE",
"599 396 OFFCURVE",
"541 396 CURVE SMOOTH",
"513 396 OFFCURVE",
"483 404 OFFCURVE",
"452 417 CURVE",
"401 364 LINE",
"461 238 OFFCURVE",
"566 161 OFFCURVE",
"727 161 CURVE SMOOTH",
"873 161 OFFCURVE",
"995 284 OFFCURVE",
"995 440 CURVE SMOOTH",
"995 576 OFFCURVE",
"900 652 OFFCURVE",
"780 652 CURVE SMOOTH"
);
},
{
closed = 1;
nodes = (
"1068 427 OFFCURVE",
"1022 399 OFFCURVE",
"915 417 CURVE",
"798 372 LINE",
"892 301 OFFCURVE",
"974 272 OFFCURVE",
"1065 272 CURVE",
"1100 528 LINE"
);
}
);
width = 1557;
}
);
rightMetricsKey = "pa-gujarati";
unicode = 0A85;
},
{
glyphname = gjI;
lastChange = "2015-06-15 15:51:26 +0000";
layers = (
{
background = {
paths = (
{
closed = 1;
nodes = (
"627 860 LINE",
"820 500 OFFCURVE",
"623 270 OFFCURVE",
"479 270 CURVE SMOOTH",
"417 270 OFFCURVE",
"371 297 OFFCURVE",
"371 352 CURVE SMOOTH",
"371 464 OFFCURVE",
"568 440 OFFCURVE",
"568 495 CURVE SMOOTH",
"568 528 OFFCURVE",
"442 535 OFFCURVE",
"442 631 CURVE SMOOTH",
"442 666 OFFCURVE",
"463 686 OFFCURVE",
"484 686 CURVE SMOOTH",
"522 686 OFFCURVE",
"540 632 OFFCURVE",
"572 632 CURVE SMOOTH",
"584 632 OFFCURVE",
"591 643 OFFCURVE",
"591 663 CURVE SMOOTH",
"591 771 OFFCURVE",
"502 846 OFFCURVE",
"375 846 CURVE SMOOTH",
"223 846 OFFCURVE",
"116 754 OFFCURVE",
"116 623 CURVE SMOOTH",
"116 527 OFFCURVE",
"181 462 OFFCURVE",
"274 428 CURVE",
"265 524 LINE",
"124 497 OFFCURVE",
"31 404 OFFCURVE",
"31 281 CURVE SMOOTH",
"31 126 OFFCURVE",
"175 0 OFFCURVE",
"424 0 CURVE SMOOTH",
"730 0 OFFCURVE",
"1052 384 OFFCURVE",
"752 860 CURVE"
);
}
);
};
layerId = "FF8CB9F1-2B98-444C-A502-96421F2531A8";
name = Bold;
paths = (
{
closed = 1;
nodes = (
"886 864 OFFCURVE",
"800 1138 OFFCURVE",
"642 1138 CURVE SMOOTH",
"564 1138 OFFCURVE",
"597 1092 OFFCURVE",
"597 1002 CURVE SMOOTH",
"597 798 OFFCURVE",
"725 692 OFFCURVE",
"725 520 CURVE SMOOTH",
"725 351 OFFCURVE",
"598 270 OFFCURVE",
"479 270 CURVE SMOOTH",
"417 270 OFFCURVE",
"371 297 OFFCURVE",
"371 352 CURVE SMOOTH",
"371 464 OFFCURVE",
"568 440 OFFCURVE",
"568 495 CURVE SMOOTH",
"568 528 OFFCURVE",
"442 535 OFFCURVE",
"442 631 CURVE SMOOTH",
"442 666 OFFCURVE",
"463 686 OFFCURVE",
"484 686 CURVE SMOOTH",
"522 686 OFFCURVE",
"540 632 OFFCURVE",
"572 632 CURVE SMOOTH",
"584 632 OFFCURVE",
"591 643 OFFCURVE",
"591 663 CURVE SMOOTH",
"591 771 OFFCURVE",
"502 846 OFFCURVE",
"375 846 CURVE SMOOTH",
"223 846 OFFCURVE",
"116 754 OFFCURVE",
"116 623 CURVE SMOOTH",
"116 527 OFFCURVE",
"181 462 OFFCURVE",
"274 428 CURVE",
"265 524 LINE",
"124 497 OFFCURVE",
"31 404 OFFCURVE",
"31 281 CURVE SMOOTH",
"31 126 OFFCURVE",
"202 0 OFFCURVE",
"450 0 CURVE SMOOTH",
"730 0 OFFCURVE",
"904 170 OFFCURVE",
"904 388 CURVE SMOOTH",
"904 564 OFFCURVE",
"840 717 OFFCURVE",
"764 792 CURVE",
"790 834 OFFCURVE",
"732 864 OFFCURVE",
"816 864 CURVE SMOOTH"
);
}
);
width = 944;
}
);
unicode = 0A87;
},
{
glyphname = gjII;
lastChange = "2015-06-15 16:01:45 +0000";
layers = (
{
background = {
paths = (
{
closed = 1;
nodes = (
"964 750 OFFCURVE",
"932 1138 OFFCURVE",
"710 1138 CURVE SMOOTH",
"632 1138 OFFCURVE",
"597 1092 OFFCURVE",
"597 1002 CURVE SMOOTH",
"597 798 OFFCURVE",
"725 692 OFFCURVE",
"725 520 CURVE SMOOTH",
"725 351 OFFCURVE",
"598 270 OFFCURVE",
"479 270 CURVE SMOOTH",
"417 270 OFFCURVE",
"371 297 OFFCURVE",
"371 352 CURVE SMOOTH",
"371 464 OFFCURVE",
"568 440 OFFCURVE",
"568 495 CURVE SMOOTH",
"568 528 OFFCURVE",
"442 535 OFFCURVE",
"442 631 CURVE SMOOTH",
"442 666 OFFCURVE",
"463 686 OFFCURVE",
"484 686 CURVE SMOOTH",
"522 686 OFFCURVE",
"540 632 OFFCURVE",
"572 632 CURVE SMOOTH",
"584 632 OFFCURVE",
"591 643 OFFCURVE",
"591 663 CURVE SMOOTH",
"591 771 OFFCURVE",
"502 846 OFFCURVE",
"375 846 CURVE SMOOTH",
"223 846 OFFCURVE",
"116 754 OFFCURVE",
"116 623 CURVE SMOOTH",
"116 527 OFFCURVE",
"181 462 OFFCURVE",
"274 428 CURVE",
"265 524 LINE",
"124 497 OFFCURVE",
"31 404 OFFCURVE",
"31 281 CURVE SMOOTH",
"31 126 OFFCURVE",
"202 0 OFFCURVE",
"450 0 CURVE SMOOTH",
"730 0 OFFCURVE",
"904 180 OFFCURVE",
"904 396 CURVE SMOOTH",
"904 534 OFFCURVE",
"858 658 OFFCURVE",
"722 792 CURVE",
"748 834 OFFCURVE",
"824 855 OFFCURVE",
"908 792 CURVE SMOOTH"
);
}
);
};
layerId = "FF8CB9F1-2B98-444C-A502-96421F2531A8";
name = Bold;
paths = (
{
closed = 1;
nodes = (
"863 869 OFFCURVE",
"882 1165 OFFCURVE",
"660 1165 CURVE SMOOTH",
"592 1165 OFFCURVE",
"546 1112 OFFCURVE",
"546 1013 CURVE SMOOTH",
"546 868 OFFCURVE",
"715 660 OFFCURVE",
"715 500 CURVE SMOOTH",
"715 370 OFFCURVE",
"621 270 OFFCURVE",
"502 270 CURVE SMOOTH",
"414 270 OFFCURVE",
"371 297 OFFCURVE",
"371 352 CURVE SMOOTH",
"371 464 OFFCURVE",
"568 440 OFFCURVE",
"568 495 CURVE SMOOTH",
"568 528 OFFCURVE",
"442 535 OFFCURVE",
"442 631 CURVE SMOOTH",
"442 666 OFFCURVE",
"463 686 OFFCURVE",
"484 686 CURVE SMOOTH",
"522 686 OFFCURVE",
"540 632 OFFCURVE",
"572 632 CURVE SMOOTH",
"584 632 OFFCURVE",
"591 643 OFFCURVE",
"591 663 CURVE SMOOTH",
"591 771 OFFCURVE",
"502 846 OFFCURVE",
"375 846 CURVE SMOOTH",
"223 846 OFFCURVE",
"116 754 OFFCURVE",
"116 623 CURVE SMOOTH",
"116 527 OFFCURVE",
"181 462 OFFCURVE",
"274 428 CURVE",
"265 524 LINE",
"124 497 OFFCURVE",
"31 404 OFFCURVE",
"31 281 CURVE SMOOTH",
"31 126 OFFCURVE",
"202 0 OFFCURVE",
"450 0 CURVE SMOOTH",
"754 0 OFFCURVE",
"894 178 OFFCURVE",
"894 364 CURVE SMOOTH",
"894 562 OFFCURVE",
"702 761 OFFCURVE",
"702 841 CURVE SMOOTH",
"702 867 OFFCURVE",
"709 886 OFFCURVE",
"734 886 CURVE SMOOTH",
"769 886 OFFCURVE",
"770 869 OFFCURVE",
"813 869 CURVE SMOOTH"
);
}
);
width = 939;
}
);
unicode = 0A88;
},
{
glyphname = gjvR;
lastChange = "2015-06-15 16:07:19 +0000";
layers = (
{
background = {
paths = (
{
closed = 1;
nodes = (
"238 838 OFFCURVE",
"83 801 OFFCURVE",
"65 713 CURVE SMOOTH",
"46 625 OFFCURVE",
"121 543 OFFCURVE",
"149 543 CURVE SMOOTH",
"197 543 OFFCURVE",
"264 555 OFFCURVE",
"356 555 CURVE SMOOTH",
"438 555 OFFCURVE",
"432 497 OFFCURVE",
"451 473 CURVE",
"150 403 LINE SMOOTH",
"104 392 OFFCURVE",
"10 375 OFFCURVE",
"0 329 CURVE SMOOTH",
"-9 283 OFFCURVE",
"104 49 OFFCURVE",
"199 113 CURVE SMOOTH",
"533 339 LINE",
"566 433 LINE",
"491 681 LINE SMOOTH",
"456 795 OFFCURVE",
"378 838 OFFCURVE",
"308 838 CURVE SMOOTH"
);
},
{
closed = 1;
nodes = (
"1033 390 LINE",
"1065 328 OFFCURVE",
"1082 289 OFFCURVE",
"1070 237 CURVE SMOOTH",
"1067 222 OFFCURVE",
"1051 205 OFFCURVE",
"1033 205 CURVE SMOOTH",
"997 205 OFFCURVE",
"1011 237 OFFCURVE",
"980 237 CURVE SMOOTH",
"964 237 OFFCURVE",
"958 219 OFFCURVE",
"953 193 CURVE SMOOTH",
"936 117 OFFCURVE",
"1019 68 OFFCURVE",
"1129 68 CURVE SMOOTH",
"1201 68 OFFCURVE",
"1297 98 OFFCURVE",
"1320 197 CURVE SMOOTH",
"1338 281 OFFCURVE",
"1294 332 OFFCURVE",
"1101 428 CURVE"
);
},
{
closed = 1;
nodes = (
"1095 455 LINE",
"1079 485 OFFCURVE",
"1072 515 OFFCURVE",
"1079 546 CURVE SMOOTH",
"1085 574 OFFCURVE",
"1106 595 OFFCURVE",
"1132 595 CURVE SMOOTH",
"1158 595 OFFCURVE",
"1169 576 OFFCURVE",
"1164 550 CURVE SMOOTH",
"1149 486 OFFCURVE",
"1025 433 OFFCURVE",
"828 433 CURVE",
"800 305 LINE",
"1123 354 OFFCURVE",
"1310 469 OFFCURVE",
"1357 679 CURVE SMOOTH",
"1374 755 OFFCURVE",
"1339 804 OFFCURVE",
"1249 804 CURVE SMOOTH",
"1135 804 OFFCURVE",
"1031 705 OFFCURVE",
"1004 583 CURVE SMOOTH",
"994 537 OFFCURVE",
"1010 467 OFFCURVE",
"1029 442 CURVE"
);
}
);
};
components = (
{
locked = 1;
name = gjmAA;
transform = "{1, 0, 0, 1, 411, 0}";
}
);
guideLines = (
{
position = "{10, 102}";
}
);
layerId = "FF8CB9F1-2B98-444C-A502-96421F2531A8";
name = Bold;
paths = (
{
closed = 1;
nodes = (
"181 838 OFFCURVE",
"65 761 OFFCURVE",
"65 653 CURVE SMOOTH",
"65 564 OFFCURVE",
"140 500 OFFCURVE",
"170 500 CURVE SMOOTH",
"215 500 OFFCURVE",
"255 555 OFFCURVE",
"323 555 CURVE SMOOTH",
"375 555 OFFCURVE",
"424 515 OFFCURVE",
"469 450 CURVE",
"257 342 OFFCURVE",
"0 462 OFFCURVE",
"0 329 CURVE SMOOTH",
"0 215 OFFCURVE",
"103 102 OFFCURVE",
"194 102 CURVE SMOOTH",
"288 102 OFFCURVE",
"375 183 OFFCURVE",
"506 377 CURVE",
"541 482 LINE",
"508 611 LINE SMOOTH",
"470 765 OFFCURVE",
"397 838 OFFCURVE",
"271 838 CURVE SMOOTH"
);
},
{
closed = 1;
nodes = (
"1095 380 LINE",
"1105 359 OFFCURVE",
"1109 340 OFFCURVE",
"1109 324 CURVE SMOOTH",
"1109 281 OFFCURVE",
"1080 255 OFFCURVE",
"1042 255 CURVE SMOOTH",
"1000 255 OFFCURVE",
"975 279 OFFCURVE",
"958 279 CURVE SMOOTH",
"946 279 OFFCURVE",
"939 262 OFFCURVE",
"939 241 CURVE SMOOTH",
"939 144 OFFCURVE",
"1043 38 OFFCURVE",
"1225 38 CURVE SMOOTH",
"1361 38 OFFCURVE",
"1427 114 OFFCURVE",
"1427 192 CURVE SMOOTH",
"1427 275 OFFCURVE",
"1370 352 OFFCURVE",
"1149 421 CURVE"
);
},
{
closed = 1;
nodes = (
"1143 500 LINE",
"1127 529 OFFCURVE",
"1120 559 OFFCURVE",
"1127 589 CURVE SMOOTH",
"1133 616 OFFCURVE",
"1154 637 OFFCURVE",
"1180 637 CURVE SMOOTH",
"1206 637 OFFCURVE",
"1217 618 OFFCURVE",
"1212 593 CURVE SMOOTH",
"1195 523 OFFCURVE",
"1091 459 OFFCURVE",
"854 513 CURVE",
"810 396 LINE",
"1381 277 OFFCURVE",
"1551 446 OFFCURVE",
"1551 601 CURVE SMOOTH",
"1551 737 OFFCURVE",
"1415 841 OFFCURVE",
"1255 841 CURVE SMOOTH",
"1087 841 OFFCURVE",
"991 747 OFFCURVE",
"991 618 CURVE SMOOTH",
"991 558 OFFCURVE",
"1026 491 OFFCURVE",
"1072 467 CURVE"
);
}
);
width = 1491;
}
);
unicode = 0A8B;
},
{
glyphname = gjmAA;
lastChange = "2015-06-15 10:03:20 +0000";
layers = (
{
background = {
paths = (
{
closed = 1;
nodes = (
"62 379 LINE",
"32 287 OFFCURVE",
"20 234 OFFCURVE",
"20 186 CURVE SMOOTH",
"20 85 OFFCURVE",
"79 -4 OFFCURVE",
"239 -4 CURVE SMOOTH",
"379 -4 OFFCURVE",
"472 98 OFFCURVE",
"472 184 CURVE SMOOTH",
"472 202 OFFCURVE",
"466 220 OFFCURVE",
"455 220 CURVE SMOOTH",
"442 220 OFFCURVE",
"434 187 OFFCURVE",
"404 187 CURVE SMOOTH",
"386 187 OFFCURVE",
"378 203 OFFCURVE",
"386 229 CURVE SMOOTH",
"540 733 LINE SMOOTH",
"545 750 OFFCURVE",
"548 766 OFFCURVE",
"548 779 CURVE SMOOTH",
"548 809 OFFCURVE",
"535 844 OFFCURVE",
"452 844 CURVE SMOOTH",
"379 844 OFFCURVE",
"298 821 OFFCURVE",
"187 774 CURVE"
);
}
);
};
layerId = "FF8CB9F1-2B98-444C-A502-96421F2531A8";
rightMetricsKey = "pa-gujarati";
name = Bold;
paths = (
{
closed = 1;
nodes = (
"346 844 OFFCURVE",
"198 809 OFFCURVE",
"174 733 CURVE SMOOTH",
"62 379 LINE SMOOTH",
"33 287 OFFCURVE",
"20 234 OFFCURVE",
"20 186 CURVE SMOOTH",
"20 85 OFFCURVE",
"79 -4 OFFCURVE",
"239 -4 CURVE SMOOTH",
"379 -4 OFFCURVE",
"472 98 OFFCURVE",
"472 184 CURVE SMOOTH",
"472 202 OFFCURVE",
"466 220 OFFCURVE",
"455 220 CURVE SMOOTH",
"442 220 OFFCURVE",
"434 187 OFFCURVE",
"404 187 CURVE SMOOTH",
"386 187 OFFCURVE",
"378 203 OFFCURVE",
"386 229 CURVE SMOOTH",
"540 733 LINE SMOOTH",
"545 750 OFFCURVE",
"548 766 OFFCURVE",
"548 779 CURVE SMOOTH",
"548 809 OFFCURVE",
"535 844 OFFCURVE",
"447 844 CURVE SMOOTH"
);
}
);
width = 568;
}
);
rightMetricsKey = "pa-gujarati";
unicode = 0ABE;
},
{
glyphname = gjmI;
lastChange = "2015-06-15 13:45:02 +0000";
layers = (
{
background = {
paths = (
{
closed = 1;
nodes = (
"140 635 LINE",
"62 379 LINE SMOOTH",
"32 287 OFFCURVE",
"20 234 OFFCURVE",
"20 186 CURVE SMOOTH",
"20 85 OFFCURVE",
"79 -4 OFFCURVE",
"239 -4 CURVE SMOOTH",
"379 -4 OFFCURVE",
"472 98 OFFCURVE",
"472 184 CURVE SMOOTH",
"472 202 OFFCURVE",
"466 220 OFFCURVE",
"455 220 CURVE SMOOTH",
"442 220 OFFCURVE",
"434 187 OFFCURVE",
"404 187 CURVE SMOOTH",
"386 187 OFFCURVE",
"378 203 OFFCURVE",
"386 229 CURVE SMOOTH",
"510 635 LINE"
);
},
{
closed = 1;
nodes = (
"510 635 LINE",
"540 733 LINE SMOOTH",
"590 897 OFFCURVE",
"482 1093 OFFCURVE",
"54 1093 CURVE SMOOTH",
"-244 1093 OFFCURVE",
"-412 978 OFFCURVE",
"-412 833 CURVE SMOOTH",
"-412 751 OFFCURVE",
"-341 673 OFFCURVE",
"-214 673 CURVE SMOOTH",
"-84 673 OFFCURVE",
"46 707 OFFCURVE",
"46 855 CURVE SMOOTH",
"46 873 OFFCURVE",
"40 879 OFFCURVE",
"30 879 CURVE SMOOTH",
"16 879 OFFCURVE",
"9 846 OFFCURVE",
"-23 846 CURVE SMOOTH",
"-37 846 OFFCURVE",
"-44 864 OFFCURVE",
"-44 893 CURVE SMOOTH",
"-44 934 OFFCURVE",
"-2 985 OFFCURVE",
"66 985 CURVE SMOOTH",
"160 985 OFFCURVE",
"221 900 OFFCURVE",
"176 751 CURVE SMOOTH",
"140 635 LINE"
);
}
);
};
layerId = "FF8CB9F1-2B98-444C-A502-96421F2531A8";
name = Bold;
paths = (
{
closed = 1;
nodes = (
"469 1165 OFFCURVE",
"263 1025 OFFCURVE",
"191 795 CURVE SMOOTH",
"62 379 LINE SMOOTH",
"32 287 OFFCURVE",
"20 234 OFFCURVE",
"20 186 CURVE SMOOTH",
"20 85 OFFCURVE",
"79 -4 OFFCURVE",
"239 -4 CURVE SMOOTH",
"379 -4 OFFCURVE",
"472 98 OFFCURVE",
"472 184 CURVE SMOOTH",
"472 202 OFFCURVE",
"466 220 OFFCURVE",
"455 220 CURVE SMOOTH",
"442 220 OFFCURVE",
"434 187 OFFCURVE",
"404 187 CURVE SMOOTH",
"386 187 OFFCURVE",
"378 203 OFFCURVE",
"386 229 CURVE SMOOTH",
"574 838 LINE SMOOTH",
"619 984 OFFCURVE",
"701 1020 OFFCURVE",
"792 1020 CURVE SMOOTH",
"870 1020 OFFCURVE",
"905 944 OFFCURVE",
"905 867 CURVE SMOOTH",
"905 838 OFFCURVE",
"869 820 OFFCURVE",
"855 820 CURVE SMOOTH",
"823 820 OFFCURVE",
"836 853 OFFCURVE",
"822 853 CURVE SMOOTH",
"812 853 OFFCURVE",
"795 848 OFFCURVE",
"791 829 CURVE SMOOTH",
"757 681 OFFCURVE",
"929 647 OFFCURVE",
"1059 647 CURVE SMOOTH",
"1186 647 OFFCURVE",
"1269 729 OFFCURVE",
"1269 826 CURVE SMOOTH",
"1269 998 OFFCURVE",
"1074 1165 OFFCURVE",
"756 1165 CURVE SMOOTH"
);
}
);
width = 600;
},
{
associatedMasterId = "FF8CB9F1-2B98-444C-A502-96421F2531A8";
background = {
paths = (
{
closed = 1;
nodes = (
"140 635 LINE",
"62 379 LINE SMOOTH",
"32 287 OFFCURVE",
"20 234 OFFCURVE",
"20 186 CURVE SMOOTH",
"20 85 OFFCURVE",
"79 -4 OFFCURVE",
"239 -4 CURVE SMOOTH",
"379 -4 OFFCURVE",
"472 98 OFFCURVE",
"472 184 CURVE SMOOTH",
"472 202 OFFCURVE",
"466 220 OFFCURVE",
"455 220 CURVE SMOOTH",
"442 220 OFFCURVE",
"434 187 OFFCURVE",
"404 187 CURVE SMOOTH",
"386 187 OFFCURVE",
"378 203 OFFCURVE",
"386 229 CURVE SMOOTH",
"510 635 LINE"
);
},
{
closed = 1;
nodes = (
"510 635 LINE",
"540 733 LINE SMOOTH",
"590 897 OFFCURVE",
"482 1093 OFFCURVE",
"54 1093 CURVE SMOOTH",
"-244 1093 OFFCURVE",
"-412 978 OFFCURVE",
"-412 833 CURVE SMOOTH",
"-412 751 OFFCURVE",
"-341 673 OFFCURVE",
"-214 673 CURVE SMOOTH",
"-84 673 OFFCURVE",
"46 707 OFFCURVE",
"46 855 CURVE SMOOTH",
"46 873 OFFCURVE",
"40 879 OFFCURVE",
"30 879 CURVE SMOOTH",
"16 879 OFFCURVE",
"9 846 OFFCURVE",
"-23 846 CURVE SMOOTH",
"-37 846 OFFCURVE",
"-44 864 OFFCURVE",
"-44 893 CURVE SMOOTH",
"-44 934 OFFCURVE",
"-2 985 OFFCURVE",
"66 985 CURVE SMOOTH",
"160 985 OFFCURVE",
"221 900 OFFCURVE",
"176 751 CURVE SMOOTH",
"140 635 LINE"
);
}
);
};
layerId = "40EEC142-9D03-4298-9310-C82D7AFA62C2";
name = Disconnected;
paths = (
{
closed = 1;
nodes = (
"1633 984 OFFCURVE",
"1254 1165 OFFCURVE",
"879 1165 CURVE SMOOTH",
"558 1165 OFFCURVE",
"278 1077 OFFCURVE",
"200 826 CURVE SMOOTH",
"62 379 LINE SMOOTH",
"32 287 OFFCURVE",
"20 234 OFFCURVE",
"20 186 CURVE SMOOTH",
"20 85 OFFCURVE",
"79 -4 OFFCURVE",
"239 -4 CURVE SMOOTH",
"379 -4 OFFCURVE",
"472 98 OFFCURVE",
"472 184 CURVE SMOOTH",
"472 202 OFFCURVE",
"466 220 OFFCURVE",
"455 220 CURVE SMOOTH",
"442 220 OFFCURVE",
"434 187 OFFCURVE",
"404 187 CURVE SMOOTH",
"386 187 OFFCURVE",
"378 203 OFFCURVE",
"386 229 CURVE SMOOTH",
"555 778 LINE SMOOTH",
"604 936 OFFCURVE",
"694 1020 OFFCURVE",
"955 1020 CURVE SMOOTH",
"1252 1020 OFFCURVE",
"1465 884 OFFCURVE",
"1582 884 CURVE SMOOTH",
"1614 884 OFFCURVE",
"1633 895 OFFCURVE",
"1633 921 CURVE SMOOTH"
);
}
);
width = 600;
}
);
unicode = 0ABF;
},
{
glyphname = gjmII;
lastChange = "2015-06-05 17:09:00 +0000";
layers = (
{
background = {
paths = (
{
closed = 1;
nodes = (
"62 379 LINE",
"32 287 OFFCURVE",
"20 234 OFFCURVE",
"20 186 CURVE SMOOTH",
"20 85 OFFCURVE",
"79 -4 OFFCURVE",
"239 -4 CURVE SMOOTH",
"379 -4 OFFCURVE",
"472 98 OFFCURVE",
"472 184 CURVE SMOOTH",
"472 202 OFFCURVE",
"466 220 OFFCURVE",
"455 220 CURVE SMOOTH",
"442 220 OFFCURVE",
"434 187 OFFCURVE",
"404 187 CURVE SMOOTH",
"386 187 OFFCURVE",
"378 203 OFFCURVE",
"386 229 CURVE SMOOTH",
"540 733 LINE SMOOTH",
"545 750 OFFCURVE",
"548 766 OFFCURVE",
"548 779 CURVE SMOOTH",
"548 809 OFFCURVE",
"535 844 OFFCURVE",
"452 844 CURVE SMOOTH",
"379 844 OFFCURVE",
"298 821 OFFCURVE",
"187 774 CURVE"
);
},
{
closed = 0;
nodes = (
"-348 1039 LINE SMOOTH",
"-378 947 OFFCURVE",
"-390 894 OFFCURVE",
"-390 846 CURVE SMOOTH",
"-390 745 OFFCURVE",
"-331 656 OFFCURVE",
"-171 656 CURVE SMOOTH",
"-31 656 OFFCURVE",
"62 758 OFFCURVE",
"62 844 CURVE SMOOTH",
"62 862 OFFCURVE",
"56 880 OFFCURVE",
"45 880 CURVE SMOOTH",
"32 880 OFFCURVE",
"24 847 OFFCURVE",
"-6 847 CURVE SMOOTH",
"-24 847 OFFCURVE",
"-32 863 OFFCURVE",
"-24 889 CURVE SMOOTH"
);
}
);
};
layerId = "FF8CB9F1-2B98-444C-A502-96421F2531A8";
name = Bold;
paths = (
{
closed = 1;
nodes = (
"562 805 LINE SMOOTH",
"612 967 OFFCURVE",
"504 1165 OFFCURVE",
"76 1165 CURVE SMOOTH",
"-222 1165 OFFCURVE",
"-390 1050 OFFCURVE",
"-390 905 CURVE SMOOTH",
"-390 823 OFFCURVE",
"-319 745 OFFCURVE",
"-192 745 CURVE SMOOTH",
"-39 745 OFFCURVE",
"68 811 OFFCURVE",
"68 919 CURVE SMOOTH",
"68 937 OFFCURVE",
"62 943 OFFCURVE",
"52 943 CURVE SMOOTH",
"38 943 OFFCURVE",
"31 918 OFFCURVE",
"-1 918 CURVE SMOOTH",
"-15 918 OFFCURVE",
"-22 936 OFFCURVE",
"-22 965 CURVE SMOOTH",
"-22 1006 OFFCURVE",
"20 1057 OFFCURVE",
"88 1057 CURVE SMOOTH",
"182 1057 OFFCURVE",
"243 970 OFFCURVE",
"198 823 CURVE SMOOTH",
"62 379 LINE SMOOTH",
"34 287 OFFCURVE",
"20 234 OFFCURVE",
"20 186 CURVE SMOOTH",
"20 85 OFFCURVE",
"79 -4 OFFCURVE",
"239 -4 CURVE SMOOTH",
"379 -4 OFFCURVE",
"472 98 OFFCURVE",
"472 184 CURVE SMOOTH",
"472 202 OFFCURVE",
"466 220 OFFCURVE",
"455 220 CURVE SMOOTH",
"442 220 OFFCURVE",
"434 187 OFFCURVE",
"404 187 CURVE SMOOTH",
"386 187 OFFCURVE",
"378 203 OFFCURVE",
"386 229 CURVE SMOOTH"
);
}
);
width = 600;
}
);
unicode = 0AC0;
},
{
glyphname = gjmU;
lastChange = "2015-06-16 09:08:46 +0000";
layers = (
{
background = {
paths = (
{
closed = 0;
nodes = (
"-331 -274 LINE",
"-238 -240 OFFCURVE",
"-173 -175 OFFCURVE",
"-173 -79 CURVE SMOOTH",
"-173 52 OFFCURVE",
"-280 144 OFFCURVE",
"-432 144 CURVE SMOOTH",
"-559 144 OFFCURVE",
"-648 69 OFFCURVE",
"-648 -39 CURVE SMOOTH",
"-648 -59 OFFCURVE",
"-641 -70 OFFCURVE",
"-629 -70 CURVE SMOOTH",
"-597 -70 OFFCURVE",
"-579 -16 OFFCURVE",
"-541 -16 CURVE SMOOTH",
"-520 -16 OFFCURVE",
"-499 -36 OFFCURVE",
"-499 -71 CURVE SMOOTH",
"-499 -167 OFFCURVE",
"-619 -210 OFFCURVE",
"-775 -130 CURVE",
"-831 -101 OFFCURVE",
"-844 -83 OFFCURVE",
"-844 -152 CURVE SMOOTH",
"-844 -221 OFFCURVE",
"-657 -323 OFFCURVE",
"-486 -323 CURVE"
);
}
);
};
layerId = "FF8CB9F1-2B98-444C-A502-96421F2531A8";
name = Bold;
paths = (
{
closed = 1;
nodes = (
"-323 -312 OFFCURVE",
"-207 -209 OFFCURVE",
"-207 -79 CURVE SMOOTH",
"-207 51 OFFCURVE",
"-341 144 OFFCURVE",
"-466 144 CURVE SMOOTH",
"-591 144 OFFCURVE",
"-682 69 OFFCURVE",
"-682 -39 CURVE SMOOTH",
"-682 -59 OFFCURVE",
"-675 -70 OFFCURVE",
"-663 -70 CURVE SMOOTH",
"-631 -70 OFFCURVE",
"-613 -16 OFFCURVE",
"-575 -16 CURVE SMOOTH",
"-554 -16 OFFCURVE",
"-533 -36 OFFCURVE",
"-533 -71 CURVE SMOOTH",
"-533 -129 OFFCURVE",
"-575 -162 OFFCURVE",
"-628 -162 CURVE SMOOTH",
"-716 -162 OFFCURVE",
"-778 -80 OFFCURVE",
"-812 -80 CURVE SMOOTH",
"-828 -80 OFFCURVE",
"-836 -87 OFFCURVE",
"-836 -108 CURVE SMOOTH",
"-836 -197 OFFCURVE",
"-697 -312 OFFCURVE",
"-502 -312 CURVE SMOOTH"
);
}
);
width = 0;
}
);
unicode = 0AC1;
},
{
glyphname = gjmUU;
lastChange = "2015-06-16 09:08:25 +0000";
layers = (
{
background = {
paths = (
{
closed = 1;
nodes = (
"-527 174 OFFCURVE",
"-659 93 OFFCURVE",
"-681 -35 CURVE SMOOTH",
"-704 -163 OFFCURVE",
"-588 -278 OFFCURVE",
"-465 -300 CURVE SMOOTH",
"-342 -322 OFFCURVE",
"-239 -263 OFFCURVE",
"-221 -157 CURVE SMOOTH",
"-217 -137 OFFCURVE",
"-222 -125 OFFCURVE",
"-234 -123 CURVE SMOOTH",
"-265 -118 OFFCURVE",
"-293 -168 OFFCURVE",
"-330 -161 CURVE SMOOTH",
"-351 -158 OFFCURVE",
"-368 -134 OFFCURVE",
"-362 -100 CURVE SMOOTH",
"-352 -43 OFFCURVE",
"-305 -17 OFFCURVE",
"-252 -27 CURVE SMOOTH",
"-166 -42 OFFCURVE",
"-119 -133 OFFCURVE",
"-85 -139 CURVE SMOOTH",
"-70 -142 OFFCURVE",
"-61 -137 OFFCURVE",
"-57 -116 CURVE SMOOTH",
"-41 -28 OFFCURVE",
"-158 109 OFFCURVE",
"-350 143 CURVE SMOOTH"
);
}
);
};
layerId = "FF8CB9F1-2B98-444C-A502-96421F2531A8";
name = Bold;
paths = (
{
closed = 1;
nodes = (
"-528 150 OFFCURVE",
"-639 60 OFFCURVE",
"-639 -80 CURVE SMOOTH",
"-639 -220 OFFCURVE",
"-516 -305 OFFCURVE",
"-376 -305 CURVE SMOOTH",
"-246 -305 OFFCURVE",
"-174 -219 OFFCURVE",
"-174 -149 CURVE SMOOTH",
"-174 -132 OFFCURVE",
"-182 -123 OFFCURVE",
"-194 -123 CURVE SMOOTH",
"-222 -123 OFFCURVE",
"-240 -161 OFFCURVE",
"-279 -161 CURVE SMOOTH",
"-304 -161 OFFCURVE",
"-317 -139 OFFCURVE",
"-317 -113 CURVE SMOOTH",
"-317 -72 OFFCURVE",
"-288 -25 OFFCURVE",
"-227 -25 CURVE SMOOTH",
"-125 -25 OFFCURVE",
"-75 -140 OFFCURVE",
"-32 -140 CURVE SMOOTH",
"-17 -140 OFFCURVE",
"-9 -123 OFFCURVE",
"-9 -103 CURVE SMOOTH",
"-9 -1 OFFCURVE",
"-159 150 OFFCURVE",
"-376 150 CURVE SMOOTH"
);
}
);
width = 0;
}
);
unicode = 0AC2;
},
{
glyphname = gjmE;
lastChange = "2015-06-05 14:42:49 +0000";
layers = (
{
layerId = "FF8CB9F1-2B98-444C-A502-96421F2531A8";
name = Bold;
paths = (
{
closed = 1;
nodes = (
"-37 926 CURVE SMOOTH",
"-29 920 OFFCURVE",
"-26 914 OFFCURVE",
"-26 907 CURVE SMOOTH",
"-26 890 OFFCURVE",
"-48 877 OFFCURVE",
"-109 877 CURVE SMOOTH",
"-396 877 OFFCURVE",
"-522 969 OFFCURVE",
"-522 1080 CURVE SMOOTH",
"-522 1140 OFFCURVE",
"-481 1177 OFFCURVE",
"-425 1177 CURVE SMOOTH",
"-356 1177 OFFCURVE",
"-316 1156 OFFCURVE"
);
}
);
width = 0;
}
);
unicode = 0AC7;
},
{
glyphname = gjmAI;
lastChange = "2015-06-05 14:42:49 +0000";
layers = (
{
background = {
paths = (
{
closed = 1;
nodes = (
"-37 926 CURVE SMOOTH",
"-29 920 OFFCURVE",
"-26 914 OFFCURVE",
"-26 907 CURVE SMOOTH",
"-26 890 OFFCURVE",
"-48 877 OFFCURVE",
"-109 877 CURVE SMOOTH",
"-396 877 OFFCURVE",
"-522 969 OFFCURVE",
"-522 1080 CURVE SMOOTH",
"-522 1140 OFFCURVE",
"-481 1177 OFFCURVE",
"-425 1177 CURVE SMOOTH",
"-356 1177 OFFCURVE",
"-316 1156 OFFCURVE"
);
}
);
};
layerId = "FF8CB9F1-2B98-444C-A502-96421F2531A8";
name = Bold;
paths = (
{
closed = 1;
nodes = (
"-108 1299 OFFCURVE",
"-77 1256 OFFCURVE",
"-60 1147 CURVE SMOOTH",
"-24 914 OFFCURVE",
"-25 913 OFFCURVE",
"-25 912 CURVE SMOOTH",
"-25 888 OFFCURVE",
"-47 877 OFFCURVE",
"-114 877 CURVE SMOOTH",
"-401 877 OFFCURVE",
"-527 969 OFFCURVE",
"-527 1080 CURVE SMOOTH",
"-527 1140 OFFCURVE",
"-486 1177 OFFCURVE",
"-430 1177 CURVE SMOOTH",
"-378 1177 OFFCURVE",
"-340 1165 OFFCURVE",
"-216 1060 CURVE SMOOTH",
"-136 992 LINE",
"-122 966 LINE",
"-201 1052 OFFCURVE",
"-239 1123 OFFCURVE",
"-239 1188 CURVE SMOOTH",
"-239 1259 OFFCURVE",
"-204 1299 OFFCURVE",
"-159 1299 CURVE SMOOTH"
);
}
);
width = 0;
}
);
unicode = 0AC8;
},
{
glyphname = gjKA;
lastChange = "2015-06-15 14:08:38 +0000";
layers = (
{
background = {
paths = (
{
closed = 1;
nodes = (
"30 111 OFFCURVE",
"87 -9 OFFCURVE",
"325 -9 CURVE SMOOTH",
"613 -9 OFFCURVE",
"723 124 OFFCURVE",
"718 262 CURVE SMOOTH",
"714 379 OFFCURVE",
"598 411 OFFCURVE",
"510 449 CURVE SMOOTH",
"422 487 OFFCURVE",
"399 493 OFFCURVE",
"399 513 CURVE SMOOTH",
"399 553 OFFCURVE",
"486 576 OFFCURVE",
"561 576 CURVE SMOOTH",
"616 576 OFFCURVE",
"636 552 OFFCURVE",
"659 533 CURVE SMOOTH",
"684 513 OFFCURVE",
"718 586 OFFCURVE",
"718 664 CURVE SMOOTH",
"718 766 OFFCURVE",
"638 839 OFFCURVE",
"530 839 CURVE SMOOTH",
"347 839 OFFCURVE",
"171 751 OFFCURVE",
"178 595 CURVE SMOOTH",
"182 500 OFFCURVE",
"228 480 OFFCURVE",
"357 413 CURVE SMOOTH",
"439 371 OFFCURVE",
"447 355 OFFCURVE",
"448 333 CURVE SMOOTH",
"449 301 OFFCURVE",
"412 279 OFFCURVE",
"332 279 CURVE SMOOTH",
"247 279 OFFCURVE",
"202 336 OFFCURVE",
"201 356 CURVE SMOOTH",
"200 376 OFFCURVE",
"200 388 OFFCURVE",
"172 388 CURVE SMOOTH",
"144 388 OFFCURVE",
"30 333 OFFCURVE",
"30 190 CURVE SMOOTH"
);
},
{
closed = 1;
nodes = (
"583 526 LINE SMOOTH",
"574 538 OFFCURVE",
"560 543 OFFCURVE",
"546 535 CURVE SMOOTH",
"267 387 LINE SMOOTH",
"255 381 OFFCURVE",
"251 365 OFFCURVE",
"258 354 CURVE SMOOTH",
"271 332 LINE SMOOTH",
"279 318 OFFCURVE",
"295 314 OFFCURVE",
"307 321 CURVE SMOOTH",
"587 470 LINE SMOOTH",
"598 477 OFFCURVE",
"603 491 OFFCURVE",
"595 504 CURVE SMOOTH"
);
}
);
};
guideLines = (
{
angle = 90;
position = "{374, 215}";
}
);
layerId = "FF8CB9F1-2B98-444C-A502-96421F2531A8";
name = Bold;
paths = (
{
closed = 1;
nodes = (
"304 839 OFFCURVE",
"178 746 OFFCURVE",
"178 612 CURVE SMOOTH",
"178 533 OFFCURVE",
"228 480 OFFCURVE",
"357 413 CURVE SMOOTH",
"439 371 OFFCURVE",
"447 355 OFFCURVE",
"448 333 CURVE SMOOTH",
"449 301 OFFCURVE",
"412 279 OFFCURVE",
"332 279 CURVE SMOOTH",
"247 279 OFFCURVE",
"202 336 OFFCURVE",
"201 356 CURVE SMOOTH",
"200 376 OFFCURVE",
"200 388 OFFCURVE",
"172 388 CURVE SMOOTH",
"144 388 OFFCURVE",
"30 346 OFFCURVE",
"30 215 CURVE SMOOTH",
"30 84 OFFCURVE",
"173 -9 OFFCURVE",
"374 -9 CURVE SMOOTH",
"575 -9 OFFCURVE",
"718 84 OFFCURVE",
"718 215 CURVE SMOOTH",
"718 344 OFFCURVE",
"598 411 OFFCURVE",
"510 449 CURVE SMOOTH",
"422 487 OFFCURVE",
"399 493 OFFCURVE",
"399 513 CURVE SMOOTH",
"399 553 OFFCURVE",
"486 576 OFFCURVE",
"561 576 CURVE SMOOTH",
"616 576 OFFCURVE",
"636 552 OFFCURVE",
"659 533 CURVE SMOOTH",
"684 513 OFFCURVE",
"718 586 OFFCURVE",
"718 664 CURVE SMOOTH",
"718 766 OFFCURVE",
"621 839 OFFCURVE",
"487 839 CURVE SMOOTH"
);
},
{
closed = 1;
nodes = (
"267 387 LINE SMOOTH",
"255 381 OFFCURVE",
"251 365 OFFCURVE",
"258 354 CURVE SMOOTH",
"271 332 LINE SMOOTH",
"279 318 OFFCURVE",
"295 314 OFFCURVE",
"307 321 CURVE SMOOTH",
"587 470 LINE SMOOTH",
"598 477 OFFCURVE",
"603 491 OFFCURVE",
"595 504 CURVE SMOOTH",
"583 526 LINE SMOOTH",
"574 538 OFFCURVE",
"560 543 OFFCURVE",
"546 535 CURVE SMOOTH"
);
}
);
width = 748;
},
{
associatedMasterId = "FF8CB9F1-2B98-444C-A502-96421F2531A8";
background = {
paths = (
{
closed = 1;
nodes = (
"-15 98 OFFCURVE",
"113 -9 OFFCURVE",
"339 -9 CURVE SMOOTH",
"545 -9 OFFCURVE",
"672 89 OFFCURVE",
"686 227 CURVE SMOOTH",
"703 382 OFFCURVE",
"430 448 OFFCURVE",
"440 540 CURVE SMOOTH",
"444 573 OFFCURVE",
"458 576 OFFCURVE",
"478 576 CURVE SMOOTH",
"499 576 OFFCURVE",
"566 565 OFFCURVE",
"568 569 CURVE SMOOTH",
"601 623 OFFCURVE",
"622 650 OFFCURVE",
"626 692 CURVE SMOOTH",
"632 746 OFFCURVE",
"517 839 OFFCURVE",
"413 839 CURVE SMOOTH",
"303 839 OFFCURVE",
"221 786 OFFCURVE",
"211 688 CURVE SMOOTH",
"191 504 OFFCURVE",
"518 435 OFFCURVE",
"510 355 CURVE SMOOTH",
"506 323 OFFCURVE",
"468 279 OFFCURVE",
"335 279 CURVE SMOOTH",
"201 279 OFFCURVE",
"143 331 OFFCURVE",
"139 398 CURVE SMOOTH",
"138 420 OFFCURVE",
"133 428 OFFCURVE",
"122 428 CURVE SMOOTH",
"91 428 OFFCURVE",
"12 355 OFFCURVE",
"-1 236 CURVE SMOOTH"
);
},
{
closed = 1;
nodes = (
"603 509 OFFCURVE",
"593 516 OFFCURVE",
"576 516 CURVE SMOOTH",
"522 516 OFFCURVE",
"458 463 OFFCURVE",
"268 463 CURVE SMOOTH",
"224 463 OFFCURVE",
"208 452 OFFCURVE",
"208 429 CURVE SMOOTH",
"208 397 OFFCURVE",
"252 349 OFFCURVE",
"331 349 CURVE SMOOTH",
"422 349 OFFCURVE",
"603 435 OFFCURVE",
"603 494 CURVE SMOOTH"
);
}
);
};
layerId = "B58D9CD6-DCBA-495E-A027-BBA101B63102";
name = "Bold Jun 2 15, 15:45";
paths = (
{
closed = 1;
nodes = (
"456 407 LINE",
"474 389 OFFCURVE",
"481 371 OFFCURVE",
"481 351 CURVE SMOOTH",
"481 317 OFFCURVE",
"449 279 OFFCURVE",
"340 279 CURVE SMOOTH",
"187 279 OFFCURVE",
"130 334 OFFCURVE",
"122 401 CURVE SMOOTH",
"119 422 OFFCURVE",
"113 428 OFFCURVE",
"102 428 CURVE SMOOTH",
"74 428 OFFCURVE",
"19 340 OFFCURVE",
"19 246 CURVE SMOOTH",
"19 102 OFFCURVE",
"136 -9 OFFCURVE",
"356 -9 CURVE SMOOTH",
"563 -9 OFFCURVE",
"686 102 OFFCURVE",
"686 223 CURVE SMOOTH",
"686 320 OFFCURVE",
"592 382 OFFCURVE",
"520 438 CURVE"
);
},
{
closed = 1;
nodes = (
"613 509 OFFCURVE",
"603 516 OFFCURVE",
"586 516 CURVE SMOOTH",
"513 516 OFFCURVE",
"451 456 OFFCURVE",
"258 456 CURVE SMOOTH",
"202 456 OFFCURVE",
"186 440 OFFCURVE",
"186 417 CURVE SMOOTH",
"186 381 OFFCURVE",
"235 357 OFFCURVE",
"321 357 CURVE SMOOTH",
"445 357 OFFCURVE",
"613 435 OFFCURVE",
"613 494 CURVE SMOOTH"
);
},
{
closed = 1;
nodes = (
"491 461 LINE",
"461 487 OFFCURVE",
"440 512 OFFCURVE",
"440 540 CURVE SMOOTH",
"440 563 OFFCURVE",
"456 576 OFFCURVE",
"476 576 CURVE SMOOTH",
"499 576 OFFCURVE",
"515 555 OFFCURVE",
"532 555 CURVE SMOOTH",
"549 555 OFFCURVE",
"567 584 OFFCURVE",
"567 652 CURVE SMOOTH",
"567 766 OFFCURVE",
"478 839 OFFCURVE",
"381 839 CURVE SMOOTH",
"284 839 OFFCURVE",
"211 772 OFFCURVE",
"211 672 CURVE SMOOTH",
"211 573 OFFCURVE",
"288 500 OFFCURVE",
"427 446 CURVE"
);
}
);
width = 757.002;
}
);
unicode = 0A95;
},
{
glyphname = gjKHA;
lastChange = "2015-06-15 13:43:40 +0000";
layers = (
{
background = {
paths = (
{
closed = 1;
nodes = (
"433 839 CURVE SMOOTH",
"292 839 OFFCURVE",
"200 737 OFFCURVE",
"200 652 CURVE SMOOTH",
"200 634 OFFCURVE",
"206 616 OFFCURVE",
"217 616 CURVE SMOOTH",
"230 616 OFFCURVE",
"237 648 OFFCURVE",
"267 648 CURVE SMOOTH",
"280 648 OFFCURVE",
"289 640 OFFCURVE",
"289 624 CURVE SMOOTH",
"289 619 OFFCURVE",
"287 613 OFFCURVE",
"285 606 CURVE SMOOTH",
"240 475 LINE SMOOTH",
"223 426 OFFCURVE",
"214 382 OFFCURVE",
"214 341 CURVE SMOOTH",
"214 221 OFFCURVE",
"286 139 OFFCURVE",
"466 139 CURVE SMOOTH",
"675 139 OFFCURVE",
"910 330 OFFCURVE",
"910 535 CURVE SMOOTH",
"910 605 OFFCURVE",
"872 645 OFFCURVE",
"810 645 CURVE SMOOTH",
"750 645 OFFCURVE",
"687 601 OFFCURVE",
"687 504 CURVE SMOOTH",
"687 457 OFFCURVE",
"706 429 OFFCURVE",
"722 405 CURVE",
"696 370 OFFCURVE",
"668 351 OFFCURVE",
"629 351 CURVE SMOOTH",
"590 351 OFFCURVE",
"568 381 OFFCURVE",
"586 423 CURVE SMOOTH",
"630 525 LINE SMOOTH",
"648 567 OFFCURVE",
"656 610 OFFCURVE",
"656 654 CURVE SMOOTH",
"656 759 OFFCURVE",
"585 839 OFFCURVE"
);
},
{
closed = 1;
nodes = (
"940 379 LINE SMOOTH",
"910 285 OFFCURVE",
"898 234 OFFCURVE",
"898 186 CURVE SMOOTH",
"898 85 OFFCURVE",
"957 -4 OFFCURVE",
"1116 -4 CURVE SMOOTH",
"1257 -4 OFFCURVE",
"1349 98 OFFCURVE",
"1349 184 CURVE SMOOTH",
"1349 202 OFFCURVE",
"1343 220 OFFCURVE",
"1332 220 CURVE SMOOTH",
"1319 220 OFFCURVE",
"1312 187 OFFCURVE",
"1282 187 CURVE SMOOTH",
"1269 187 OFFCURVE",
"1260 196 OFFCURVE",
"1260 210 CURVE SMOOTH",
"1260 216 OFFCURVE",
"1261 222 OFFCURVE",
"1264 229 CURVE",
"1417 733 LINE SMOOTH",
"1422 750 OFFCURVE",
"1426 766 OFFCURVE",
"1426 779 CURVE SMOOTH",
"1426 809 OFFCURVE",
"1413 844 OFFCURVE",
"1330 844 CURVE SMOOTH",
"1257 844 OFFCURVE",
"1175 821 OFFCURVE",
"1065 774 CURVE"
);
},
{
closed = 1;
nodes = (
"737 379 LINE",
"810 320 OFFCURVE",
"905 287 OFFCURVE",
"996 287 CURVE",
"1007 551 LINE",
"985 482 OFFCURVE",
"951 439 OFFCURVE",
"891 439 CURVE"
);
}
);
};
layerId = "FF8CB9F1-2B98-444C-A502-96421F2531A8";
leftMetricsKey = gjPA;
rightMetricsKey = gjPA;
name = Bold;
paths = (
{
closed = 1;
nodes = (
"396 253 OFFCURVE",
"374 304 OFFCURVE",
"392 346 CURVE SMOOTH",
"470 525 LINE SMOOTH",
"488 566 OFFCURVE",
"496 610 OFFCURVE",
"496 654 CURVE SMOOTH",
"496 759 OFFCURVE",
"425 839 OFFCURVE",
"273 839 CURVE SMOOTH",
"132 839 OFFCURVE",
"40 737 OFFCURVE",
"40 652 CURVE SMOOTH",
"40 634 OFFCURVE",
"46 616 OFFCURVE",
"57 616 CURVE SMOOTH",
"70 616 OFFCURVE",
"77 648 OFFCURVE",
"107 648 CURVE SMOOTH",
"120 648 OFFCURVE",
"129 640 OFFCURVE",
"129 624 CURVE SMOOTH",
"129 619 OFFCURVE",
"127 613 OFFCURVE",
"125 606 CURVE SMOOTH",
"79 472 LINE SMOOTH",
"12 279 OFFCURVE",
"165 139 OFFCURVE",
"481 139 CURVE SMOOTH",
"710 139 OFFCURVE",
"907 240 OFFCURVE",
"907 458 CURVE SMOOTH",
"907 565 OFFCURVE",
"821 646 OFFCURVE",
"704 646 CURVE SMOOTH",
"590 646 OFFCURVE",
"532 601 OFFCURVE",
"532 572 CURVE SMOOTH",
"532 542 OFFCURVE",
"566 533 OFFCURVE",
"566 457 CURVE SMOOTH",
"566 368 OFFCURVE",
"500 253 OFFCURVE",
"435 253 CURVE SMOOTH"
);
},
{
closed = 1;
nodes = (
"737 379 LINE",
"810 320 OFFCURVE",
"905 287 OFFCURVE",
"996 287 CURVE",
"1007 551 LINE",
"985 482 OFFCURVE",
"951 439 OFFCURVE",
"891 439 CURVE"
);
},
{
closed = 1;
nodes = (
"1236 844 OFFCURVE",
"1088 809 OFFCURVE",
"1064 733 CURVE SMOOTH",
"952 379 LINE SMOOTH",
"923 287 OFFCURVE",
"910 234 OFFCURVE",
"910 186 CURVE SMOOTH",
"910 85 OFFCURVE",
"969 -4 OFFCURVE",
"1129 -4 CURVE SMOOTH",
"1269 -4 OFFCURVE",
"1362 98 OFFCURVE",
"1362 184 CURVE SMOOTH",
"1362 202 OFFCURVE",
"1356 220 OFFCURVE",
"1345 220 CURVE SMOOTH",
"1332 220 OFFCURVE",
"1324 187 OFFCURVE",
"1294 187 CURVE SMOOTH",
"1276 187 OFFCURVE",
"1268 203 OFFCURVE",
"1276 229 CURVE SMOOTH",
"1430 733 LINE SMOOTH",
"1435 750 OFFCURVE",
"1438 766 OFFCURVE",
"1438 779 CURVE SMOOTH",
"1438 809 OFFCURVE",
"1425 844 OFFCURVE",
"1337 844 CURVE SMOOTH"
);
}
);
width = 1458;
}
);
leftMetricsKey = gjPA;
rightMetricsKey = "pa-gujarati";
unicode = 0A96;
},
{
glyphname = gjGA;
lastChange = "2015-06-05 14:49:01 +0000";
layers = (
{
background = {
paths = (
{
closed = 1;
nodes = (
"211 844 OFFCURVE",
"140 778 OFFCURVE",
"140 749 CURVE SMOOTH",
"140 724 OFFCURVE",
"177 698 OFFCURVE",
"177 634 CURVE SMOOTH",
"177 551 OFFCURVE",
"131 514 OFFCURVE",
"89 514 CURVE SMOOTH",
"59 514 OFFCURVE",
"53 547 OFFCURVE",
"37 547 CURVE SMOOTH",
"29 547 OFFCURVE",
"20 537 OFFCURVE",
"20 511 CURVE SMOOTH",
"20 395 OFFCURVE",
"115 323 OFFCURVE",
"238 323 CURVE SMOOTH",
"397 323 OFFCURVE",
"532 432 OFFCURVE",
"532 626 CURVE SMOOTH",
"532 758 OFFCURVE",
"452 844 OFFCURVE",
"326 844 CURVE SMOOTH"
);
}
);
};
layerId = "FF8CB9F1-2B98-444C-A502-96421F2531A8";
rightMetricsKey = "pa-gujarati";
name = Bold;
paths = (
{
closed = 1;
nodes = (
"829 844 OFFCURVE",
"681 809 OFFCURVE",
"657 733 CURVE SMOOTH",
"545 379 LINE SMOOTH",
"516 287 OFFCURVE",
"503 234 OFFCURVE",
"503 186 CURVE SMOOTH",
"503 85 OFFCURVE",
"562 -4 OFFCURVE",
"722 -4 CURVE SMOOTH",
"862 -4 OFFCURVE",
"955 98 OFFCURVE",
"955 184 CURVE SMOOTH",
"955 202 OFFCURVE",
"949 220 OFFCURVE",
"938 220 CURVE SMOOTH",
"925 220 OFFCURVE",
"917 187 OFFCURVE",
"887 187 CURVE SMOOTH",
"869 187 OFFCURVE",
"861 203 OFFCURVE",
"869 229 CURVE SMOOTH",
"1023 733 LINE SMOOTH",
"1028 750 OFFCURVE",
"1031 766 OFFCURVE",
"1031 779 CURVE SMOOTH",
"1031 809 OFFCURVE",
"1018 844 OFFCURVE",
"930 844 CURVE SMOOTH"
);
},
{
closed = 1;
nodes = (
"152 853 OFFCURVE",
"85 780 OFFCURVE",
"85 687 CURVE SMOOTH",
"85 670 OFFCURVE",
"91 652 OFFCURVE",
"102 652 CURVE SMOOTH",
"115 652 OFFCURVE",
"127 684 OFFCURVE",
"152 684 CURVE SMOOTH",
"168 684 OFFCURVE",
"177 668 OFFCURVE",
"177 634 CURVE SMOOTH",
"177 551 OFFCURVE",
"131 514 OFFCURVE",
"89 514 CURVE SMOOTH",
"59 514 OFFCURVE",
"53 547 OFFCURVE",
"37 547 CURVE SMOOTH",
"29 547 OFFCURVE",
"20 537 OFFCURVE",
"20 511 CURVE SMOOTH",
"20 395 OFFCURVE",
"115 323 OFFCURVE",
"238 323 CURVE SMOOTH",
"397 323 OFFCURVE",
"532 432 OFFCURVE",
"532 626 CURVE SMOOTH",
"532 758 OFFCURVE",
"448 853 OFFCURVE",
"285 853 CURVE SMOOTH"
);
}
);
width = 1051;
}
);
rightMetricsKey = "pa-gujarati";
unicode = 0A97;
},
{
glyphname = gjGHA;
lastChange = "2015-06-05 14:42:49 +0000";
layers = (
{
background = {
paths = (
{
closed = 1;
nodes = (
"672 334 LINE",
"614 294 OFFCURVE",
"543 270 OFFCURVE",
"479 270 CURVE SMOOTH",
"417 270 OFFCURVE",
"371 297 OFFCURVE",
"371 352 CURVE SMOOTH",
"371 464 OFFCURVE",
"568 440 OFFCURVE",
"568 495 CURVE SMOOTH",
"568 528 OFFCURVE",
"442 535 OFFCURVE",
"442 631 CURVE SMOOTH",
"442 666 OFFCURVE",
"463 686 OFFCURVE",
"484 686 CURVE SMOOTH",
"522 686 OFFCURVE",
"540 632 OFFCURVE",
"572 632 CURVE SMOOTH",
"584 632 OFFCURVE",
"591 643 OFFCURVE",
"591 663 CURVE SMOOTH",
"591 771 OFFCURVE",
"502 846 OFFCURVE",
"375 846 CURVE SMOOTH",
"223 846 OFFCURVE",
"116 754 OFFCURVE",
"116 623 CURVE SMOOTH",
"116 527 OFFCURVE",
"181 462 OFFCURVE",
"274 428 CURVE",
"265 524 LINE",
"124 497 OFFCURVE",
"31 404 OFFCURVE",
"31 281 CURVE SMOOTH",
"31 126 OFFCURVE",
"175 0 OFFCURVE",
"424 0 CURVE SMOOTH",
"570 0 OFFCURVE",
"701 60 OFFCURVE",
"798 153 CURVE"
);
}
);
};
layerId = "FF8CB9F1-2B98-444C-A502-96421F2531A8";
rightMetricsKey = gjmAA;
name = Bold;
paths = (
{
closed = 1;
nodes = (
"681 530 LINE",
"647 421 OFFCURVE",
"588 336 OFFCURVE",
"488 336 CURVE SMOOTH",
"426 336 OFFCURVE",
"401 348 OFFCURVE",
"401 382 CURVE SMOOTH",
"401 494 OFFCURVE",
"598 470 OFFCURVE",
"598 525 CURVE SMOOTH",
"598 558 OFFCURVE",
"472 565 OFFCURVE",
"472 661 CURVE SMOOTH",
"472 696 OFFCURVE",
"493 716 OFFCURVE",
"514 716 CURVE SMOOTH",
"552 716 OFFCURVE",
"570 662 OFFCURVE",
"602 662 CURVE SMOOTH",
"614 662 OFFCURVE",
"621 673 OFFCURVE",
"621 693 CURVE SMOOTH",
"621 801 OFFCURVE",
"532 876 OFFCURVE",
"405 876 CURVE SMOOTH",
"253 876 OFFCURVE",
"146 784 OFFCURVE",
"146 653 CURVE SMOOTH",
"146 557 OFFCURVE",
"211 492 OFFCURVE",
"304 458 CURVE",
"295 554 LINE",
"154 527 OFFCURVE",
"61 462 OFFCURVE",
"61 339 CURVE SMOOTH",
"61 224 OFFCURVE",
"157 138 OFFCURVE",
"315 138 CURVE SMOOTH",
"508 138 OFFCURVE",
"656 271 OFFCURVE",
"728 453 CURVE"
);
},
{
closed = 1;
nodes = (
"632 379 LINE",
"602 287 OFFCURVE",
"590 234 OFFCURVE",
"590 186 CURVE SMOOTH",
"590 85 OFFCURVE",
"649 -4 OFFCURVE",
"809 -4 CURVE SMOOTH",
"949 -4 OFFCURVE",
"1042 98 OFFCURVE",
"1042 184 CURVE SMOOTH",
"1042 202 OFFCURVE",
"1036 220 OFFCURVE",
"1025 220 CURVE SMOOTH",
"1012 220 OFFCURVE",
"1004 187 OFFCURVE",
"974 187 CURVE SMOOTH",
"956 187 OFFCURVE",
"948 203 OFFCURVE",
"956 229 CURVE SMOOTH",
"1110 733 LINE SMOOTH",
"1115 750 OFFCURVE",
"1118 766 OFFCURVE",
"1118 779 CURVE SMOOTH",
"1118 809 OFFCURVE",
"1105 844 OFFCURVE",
"1022 844 CURVE SMOOTH",
"949 844 OFFCURVE",
"868 821 OFFCURVE",
"757 774 CURVE"
);
}
);
width = 1138;
}
);
rightMetricsKey = gjmAA;
unicode = 0A98;
},
{
glyphname = gjNGA;
lastChange = "2015-06-05 14:42:49 +0000";
layers = (
{
background = {
paths = (
{
closed = 1;
nodes = (
"432 661 OFFCURVE",
"517 646 OFFCURVE",
"517 721 CURVE SMOOTH",
"517 795 OFFCURVE",
"445 869 OFFCURVE",
"351 869 CURVE SMOOTH",
"276 869 OFFCURVE",
"241 815 OFFCURVE",
"241 749 CURVE SMOOTH",
"241 610 OFFCURVE",
"454 433 OFFCURVE",
"454 346 CURVE SMOOTH",
"454 308 OFFCURVE",
"422 279 OFFCURVE",
"337 279 CURVE SMOOTH",
"191 279 OFFCURVE",
"169 330 OFFCURVE",
"169 372 CURVE SMOOTH",
"169 390 OFFCURVE",
"173 409 OFFCURVE",
"173 422 CURVE SMOOTH",
"173 435 OFFCURVE",
"168 442 OFFCURVE",
"159 442 CURVE SMOOTH",
"123 442 OFFCURVE",
"30 352 OFFCURVE",
"30 220 CURVE SMOOTH",
"30 78 OFFCURVE",
"133 -9 OFFCURVE",
"343 -9 CURVE SMOOTH",
"553 -9 OFFCURVE",
"676 82 OFFCURVE",
"676 223 CURVE SMOOTH",
"676 364 OFFCURVE",
"432 519 OFFCURVE",
"432 603 CURVE SMOOTH"
);
},
{
closed = 1;
nodes = (
"724 500 OFFCURVE",
"775 563 OFFCURVE",
"775 651 CURVE SMOOTH",
"775 718 OFFCURVE",
"727 766 OFFCURVE",
"660 766 CURVE SMOOTH",
"587 766 OFFCURVE",
"536 703 OFFCURVE",
"536 615 CURVE SMOOTH",
"536 548 OFFCURVE",
"584 500 OFFCURVE",
"651 500 CURVE SMOOTH"
);
}
);
};
layerId = "FF8CB9F1-2B98-444C-A502-96421F2531A8";
name = Bold;
paths = (
{
closed = 1;
nodes = (
"20 84 OFFCURVE",
"163 -9 OFFCURVE",
"364 -9 CURVE SMOOTH",
"565 -9 OFFCURVE",
"708 84 OFFCURVE",
"708 219 CURVE SMOOTH",
"708 326 OFFCURVE",
"645 375 OFFCURVE",
"500 449 CURVE SMOOTH",
"412 494 OFFCURVE",
"389 519 OFFCURVE",
"389 539 CURVE SMOOTH",
"389 557 OFFCURVE",
"400 576 OFFCURVE",
"425 576 CURVE SMOOTH",
"444 576 OFFCURVE",
"466 575 OFFCURVE",
"489 556 CURVE SMOOTH",
"514 536 OFFCURVE",
"548 609 OFFCURVE",
"548 687 CURVE SMOOTH",
"548 789 OFFCURVE",
"479 839 OFFCURVE",
"371 839 CURVE SMOOTH",
"244 839 OFFCURVE",
"168 739 OFFCURVE",
"168 615 CURVE SMOOTH",
"168 532 OFFCURVE",
"218 480 OFFCURVE",
"347 413 CURVE SMOOTH",
"429 371 OFFCURVE",
"437 355 OFFCURVE",
"438 333 CURVE SMOOTH",
"439 301 OFFCURVE",
"395 279 OFFCURVE",
"315 279 CURVE SMOOTH",
"236 279 OFFCURVE",
"178 307 OFFCURVE",
"178 356 CURVE SMOOTH",
"178 376 OFFCURVE",
"177 388 OFFCURVE",
"149 388 CURVE SMOOTH",
"102 388 OFFCURVE",
"20 321 OFFCURVE",
"20 219 CURVE SMOOTH"
);
},
{
closed = 1;
nodes = (
"778 500 OFFCURVE",
"829 563 OFFCURVE",
"829 651 CURVE SMOOTH",
"829 718 OFFCURVE",
"781 766 OFFCURVE",
"714 766 CURVE SMOOTH",
"641 766 OFFCURVE",
"590 703 OFFCURVE",
"590 615 CURVE SMOOTH",
"590 548 OFFCURVE",
"638 500 OFFCURVE",
"705 500 CURVE SMOOTH"
);
}
);
width = 740;
}
);
unicode = 0A99;
},
{
glyphname = gjCA;
lastChange = "2015-06-05 14:46:01 +0000";
layers = (
{
background = {
paths = (
{
closed = 1;
nodes = (
"189 853 OFFCURVE",
"130 773 OFFCURVE",
"130 688 CURVE SMOOTH",
"130 670 OFFCURVE",
"136 652 OFFCURVE",
"147 652 CURVE SMOOTH",
"160 652 OFFCURVE",
"167 684 OFFCURVE",
"197 684 CURVE SMOOTH",
"210 684 OFFCURVE",
"219 676 OFFCURVE",
"219 660 CURVE SMOOTH",
"219 615 OFFCURVE",
"199 569 OFFCURVE",
"161 539 CURVE",
"25 607 OFFCURVE",
"-30 505 OFFCURVE",
"-30 400 CURVE SMOOTH",
"-30 265 OFFCURVE",
"85 200 OFFCURVE",
"183 200 CURVE SMOOTH",
"398 200 OFFCURVE",
"568 453 OFFCURVE",
"568 656 CURVE SMOOTH",
"568 781 OFFCURVE",
"466 853 OFFCURVE",
"330 853 CURVE SMOOTH"
);
},
{
closed = 1;
nodes = (
"689 652 OFFCURVE",
"613 597 OFFCURVE",
"613 570 CURVE SMOOTH",
"613 549 OFFCURVE",
"639 527 OFFCURVE",
"639 479 CURVE SMOOTH",
"639 424 OFFCURVE",
"599 396 OFFCURVE",
"541 396 CURVE SMOOTH",
"513 396 OFFCURVE",
"483 404 OFFCURVE",
"452 417 CURVE",
"401 364 LINE",
"461 238 OFFCURVE",
"566 161 OFFCURVE",
"727 161 CURVE SMOOTH",
"873 161 OFFCURVE",
"995 284 OFFCURVE",
"995 440 CURVE SMOOTH",
"995 576 OFFCURVE",
"900 652 OFFCURVE",
"780 652 CURVE SMOOTH"
);
}
);
};
components = (
{
name = gjmAA;
transform = "{1, 0, 0, 1, 540, 0}";
}
);
layerId = "FF8CB9F1-2B98-444C-A502-96421F2531A8";
leftMetricsKey = gjA;
rightMetricsKey = gjmAA;
name = Bold;
paths = (
{
closed = 1;
nodes = (
"189 853 OFFCURVE",
"130 773 OFFCURVE",
"130 688 CURVE SMOOTH",
"130 670 OFFCURVE",
"136 652 OFFCURVE",
"147 652 CURVE SMOOTH",
"160 652 OFFCURVE",
"167 684 OFFCURVE",
"197 684 CURVE SMOOTH",
"210 684 OFFCURVE",
"219 676 OFFCURVE",
"219 660 CURVE SMOOTH",
"219 615 OFFCURVE",
"199 569 OFFCURVE",
"161 539 CURVE",
"25 607 OFFCURVE",
"-30 505 OFFCURVE",
"-30 400 CURVE SMOOTH",
"-30 265 OFFCURVE",
"85 200 OFFCURVE",
"183 200 CURVE SMOOTH",
"398 200 OFFCURVE",
"568 453 OFFCURVE",
"568 656 CURVE SMOOTH",
"568 781 OFFCURVE",
"466 853 OFFCURVE",
"330 853 CURVE SMOOTH"
);
},
{
closed = 1;
nodes = (
"605 387 OFFCURVE",
"559 359 OFFCURVE",
"452 377 CURVE",
"370 308 LINE",
"441 250 OFFCURVE",
"521 220 OFFCURVE",
"622 220 CURVE",
"637 488 LINE"
);
}
);
width = 1108;
}
);
leftMetricsKey = gjmAA;
rightMetricsKey = gjmAA;
unicode = 0A9A;
},
{
glyphname = gjCHA;
lastChange = "2015-06-05 14:42:49 +0000";
layers = (
{
background = {
paths = (
{
closed = 1;
nodes = (
"743 454 OFFCURVE",
"733 490 OFFCURVE",
"733 522 CURVE SMOOTH",
"733 554 OFFCURVE",
"747 570 OFFCURVE",
"762 570 CURVE SMOOTH",
"777 570 OFFCURVE",
"791 554 OFFCURVE",
"791 522 CURVE SMOOTH",
"791 386 OFFCURVE",
"618 270 OFFCURVE",
"479 270 CURVE SMOOTH",
"417 270 OFFCURVE",
"371 297 OFFCURVE",
"371 352 CURVE SMOOTH",
"371 464 OFFCURVE",
"568 440 OFFCURVE",
"568 495 CURVE SMOOTH",
"568 528 OFFCURVE",
"450 530 OFFCURVE",
"442 620 CURVE SMOOTH",
"438 661 OFFCURVE",
"458 686 OFFCURVE",
"488 686 CURVE SMOOTH",
"507 686 OFFCURVE",
"519 673 OFFCURVE",
"521 648 CURVE SMOOTH",
"523 628 OFFCURVE",
"525 624 OFFCURVE",
"535 624 CURVE SMOOTH",
"577 624 OFFCURVE",
"606 656 OFFCURVE",
"601 710 CURVE SMOOTH",
"595 782 OFFCURVE",
"520 846 OFFCURVE",
"375 846 CURVE SMOOTH",
"216 846 OFFCURVE",
"116 747 OFFCURVE",
"116 623 CURVE SMOOTH",
"116 527 OFFCURVE",
"181 462 OFFCURVE",
"274 428 CURVE",
"265 524 LINE",
"124 497 OFFCURVE",
"31 404 OFFCURVE",
"31 281 CURVE SMOOTH",
"31 126 OFFCURVE",
"175 0 OFFCURVE",
"424 0 CURVE SMOOTH",
"724 0 OFFCURVE",
"962 255 OFFCURVE",
"962 523 CURVE SMOOTH",
"962 707 OFFCURVE",
"869 777 OFFCURVE",
"789 777 CURVE SMOOTH",
"709 777 OFFCURVE",
"632 705 OFFCURVE",
"632 572 CURVE SMOOTH",
"632 479 OFFCURVE",
"672 413 OFFCURVE",
"723 367 CURVE",
"767 407 LINE"
);
}
);
};
guideLines = (
{
angle = 90;
position = "{762, 552}";
},
{
angle = 90;
position = "{797, 543.500}";
}
);
layerId = "FF8CB9F1-2B98-444C-A502-96421F2531A8";
name = Bold;
paths = (
{
closed = 1;
nodes = (
"743 454 OFFCURVE",
"733 490 OFFCURVE",
"733 522 CURVE SMOOTH",
"733 554 OFFCURVE",
"747 570 OFFCURVE",
"762 570 CURVE SMOOTH",
"777 570 OFFCURVE",
"791 554 OFFCURVE",
"791 522 CURVE SMOOTH",
"791 386 OFFCURVE",
"618 270 OFFCURVE",
"479 270 CURVE SMOOTH",
"417 270 OFFCURVE",
"371 297 OFFCURVE",
"371 352 CURVE SMOOTH",
"371 464 OFFCURVE",
"568 440 OFFCURVE",
"568 495 CURVE SMOOTH",
"568 528 OFFCURVE",
"442 535 OFFCURVE",
"442 631 CURVE SMOOTH",
"442 666 OFFCURVE",
"463 686 OFFCURVE",
"484 686 CURVE SMOOTH",
"522 686 OFFCURVE",
"540 632 OFFCURVE",
"572 632 CURVE SMOOTH",
"584 632 OFFCURVE",
"591 643 OFFCURVE",
"591 663 CURVE SMOOTH",
"591 771 OFFCURVE",
"502 846 OFFCURVE",
"375 846 CURVE SMOOTH",
"223 846 OFFCURVE",
"116 754 OFFCURVE",
"116 623 CURVE SMOOTH",
"116 527 OFFCURVE",
"181 462 OFFCURVE",
"274 428 CURVE",
"265 524 LINE",
"124 497 OFFCURVE",
"31 404 OFFCURVE",
"31 281 CURVE SMOOTH",
"31 126 OFFCURVE",
"175 0 OFFCURVE",
"424 0 CURVE SMOOTH",
"724 0 OFFCURVE",
"962 255 OFFCURVE",
"962 523 CURVE SMOOTH",
"962 707 OFFCURVE",
"869 777 OFFCURVE",
"789 777 CURVE SMOOTH",
"709 777 OFFCURVE",
"632 705 OFFCURVE",
"632 572 CURVE SMOOTH",
"632 479 OFFCURVE",
"672 413 OFFCURVE",
"723 367 CURVE",
"767 407 LINE"
);
}
);
width = 992;
},
{
associatedMasterId = "FF8CB9F1-2B98-444C-A502-96421F2531A8";
layerId = "F216DA94-8BA4-4618-A66D-220C06E2654F";
name = "Regular Feb 23 14, 16:04";
paths = (
{
closed = 1;
nodes = (
"758 418 CURVE",
"741 462 OFFCURVE",
"748 530 OFFCURVE",
"783 530 CURVE SMOOTH",
"808 530 OFFCURVE",
"808 466 OFFCURVE"
);
},
{
closed = 1;
nodes = (
"643 508 CURVE SMOOTH",
"643 441 OFFCURVE",
"672 379 OFFCURVE",
"700 342 CURVE",
"707 376 LINE",
"625 300 OFFCURVE",
"552 270 OFFCURVE",
"468 270 CURVE SMOOTH",
"411 270 OFFCURVE",
"366 289 OFFCURVE",
"366 340 CURVE SMOOTH",
"366 402 OFFCURVE",
"415 433 OFFCURVE",
"487 450 CURVE SMOOTH",
"557 467 OFFCURVE",
"576 475 OFFCURVE",
"576 495 CURVE SMOOTH",
"576 528 OFFCURVE",
"461 530 OFFCURVE",
"461 620 CURVE SMOOTH",
"461 661 OFFCURVE",
"483 686 OFFCURVE",
"513 686 CURVE SMOOTH",
"532 686 OFFCURVE",
"543 673 OFFCURVE",
"543 648 CURVE SMOOTH",
"543 628 OFFCURVE",
"545 624 OFFCURVE",
"555 624 CURVE SMOOTH",
"597 624 OFFCURVE",
"628 656 OFFCURVE",
"628 710 CURVE SMOOTH",
"628 782 OFFCURVE",
"569 846 OFFCURVE",
"439 846 CURVE SMOOTH",
"275 846 OFFCURVE",
"134 764 OFFCURVE",
"134 604 CURVE SMOOTH",
"134 513 OFFCURVE",
"183 456 OFFCURVE",
"276 422 CURVE",
"258 516 LINE",
"107 490 OFFCURVE",
"20 402 OFFCURVE",
"20 273 CURVE SMOOTH",
"20 109 OFFCURVE",
"170 0 OFFCURVE",
"367 0 CURVE SMOOTH",
"739 0 OFFCURVE",
"972 289 OFFCURVE",
"972 518 CURVE SMOOTH",
"972 650 OFFCURVE",
"915 737 OFFCURVE",
"812 737 CURVE SMOOTH",
"719 737 OFFCURVE",
"643 652 OFFCURVE"
);
}
);
width = 982;
}
);
unicode = 0A9B;
},
{
glyphname = gjCHA.alt;
lastChange = "2015-06-02 12:16:48 +0000";
layers = (
{
layerId = "FF8CB9F1-2B98-444C-A502-96421F2531A8";
name = Bold;
paths = (
{
closed = 1;
nodes = (
"750 251 LINE",
"795 177 OFFCURVE",
"815 115 OFFCURVE",
"815 68 CURVE SMOOTH",
"815 -20 OFFCURVE",
"764 -71 OFFCURVE",
"699 -71 CURVE SMOOTH",
"656 -71 OFFCURVE",
"651 -49 OFFCURVE",
"638 -49 CURVE SMOOTH",
"627 -49 OFFCURVE",
"623 -67 OFFCURVE",
"623 -85 CURVE SMOOTH",
"623 -171 OFFCURVE",
"714 -273 OFFCURVE",
"854 -273 CURVE SMOOTH",
"1014 -273 OFFCURVE",
"1089 -160 OFFCURVE",
"1089 -55 CURVE SMOOTH",
"1089 42 OFFCURVE",
"1028 156 OFFCURVE",
"791 290 CURVE"
);
},
{
closed = 1;
nodes = (
"758 418 CURVE",
"741 462 OFFCURVE",
"748 530 OFFCURVE",
"783 530 CURVE SMOOTH",
"808 530 OFFCURVE",
"808 466 OFFCURVE"
);
},
{
closed = 1;
nodes = (
"643 508 CURVE SMOOTH",
"643 441 OFFCURVE",
"672 379 OFFCURVE",
"700 342 CURVE",
"707 376 LINE",
"625 300 OFFCURVE",
"552 270 OFFCURVE",
"468 270 CURVE SMOOTH",
"411 270 OFFCURVE",
"366 289 OFFCURVE",
"366 340 CURVE SMOOTH",
"366 402 OFFCURVE",
"415 433 OFFCURVE",
"487 450 CURVE SMOOTH",
"557 467 OFFCURVE",
"576 475 OFFCURVE",
"576 495 CURVE SMOOTH",
"576 528 OFFCURVE",
"461 530 OFFCURVE",
"461 620 CURVE SMOOTH",
"461 661 OFFCURVE",
"483 686 OFFCURVE",
"513 686 CURVE SMOOTH",
"532 686 OFFCURVE",
"543 673 OFFCURVE",
"543 648 CURVE SMOOTH",
"543 628 OFFCURVE",
"545 624 OFFCURVE",
"555 624 CURVE SMOOTH",
"597 624 OFFCURVE",
"628 656 OFFCURVE",
"628 710 CURVE SMOOTH",
"628 782 OFFCURVE",
"569 846 OFFCURVE",
"439 846 CURVE SMOOTH",
"275 846 OFFCURVE",
"134 764 OFFCURVE",
"134 604 CURVE SMOOTH",
"134 513 OFFCURVE",
"183 456 OFFCURVE",
"276 422 CURVE",
"258 516 LINE",
"107 490 OFFCURVE",
"20 402 OFFCURVE",
"20 273 CURVE SMOOTH",
"20 109 OFFCURVE",
"170 0 OFFCURVE",
"367 0 CURVE SMOOTH",
"739 0 OFFCURVE",
"972 289 OFFCURVE",
"972 549 CURVE SMOOTH",
"972 664 OFFCURVE",
"918 748 OFFCURVE",
"823 748 CURVE SMOOTH",
"721 748 OFFCURVE",
"643 662 OFFCURVE"
);
}
);
width = 1001;
}
);
},
{
glyphname = gjJA;
lastChange = "2015-06-05 14:42:49 +0000";
layers = (
{
background = {
paths = (
{
closed = 1;
nodes = (
"219 343 OFFCURVE",
"258 424 OFFCURVE",
"452 580 CURVE SMOOTH",
"589 690 OFFCURVE",
"653 728 OFFCURVE",
"653 771 CURVE",
"653 811 OFFCURVE",
"584 789 OFFCURVE",
"584 833 CURVE",
"584 885 OFFCURVE",
"667 941 OFFCURVE",
"780 941 CURVE SMOOTH",
"898 941 OFFCURVE",
"998 842 OFFCURVE",
"998 711 CURVE SMOOTH",
"998 569 OFFCURVE",
"932 495 OFFCURVE",
"745 407 CURVE SMOOTH",
"592 335 OFFCURVE",
"482 287 OFFCURVE",
"482 229 CURVE SMOOTH",
"482 195 OFFCURVE",
"505 187 OFFCURVE",
"529 187 CURVE SMOOTH",
"558 187 OFFCURVE",
"582 207 OFFCURVE",
"582 240 CURVE",
"582 287 OFFCURVE",
"566 319 OFFCURVE",
"529 361 CURVE",
"592 393 LINE",
"703 309 OFFCURVE",
"754 287 OFFCURVE",
"754 182 CURVE",
"754 73 OFFCURVE",
"655 0 OFFCURVE",
"531 0 CURVE",
"359 0 OFFCURVE",
"219 97 OFFCURVE",
"219 250 CURVE SMOOTH"
);
},
{
closed = 1;
nodes = (
"317 838 OFFCURVE",
"405 739 OFFCURVE",
"495 554 CURVE",
"397 532 LINE",
"359 565 OFFCURVE",
"319 576 OFFCURVE",
"285 576 CURVE",
"247 576 OFFCURVE",
"229 558 OFFCURVE",
"229 532 CURVE",
"229 507 OFFCURVE",
"249 504 OFFCURVE",
"249 488 CURVE SMOOTH",
"249 476 OFFCURVE",
"239 467 OFFCURVE",
"219 467 CURVE",
"149 467 OFFCURVE",
"30 547 OFFCURVE",
"30 661 CURVE",
"30 765 OFFCURVE",
"101 838 OFFCURVE",
"206 838 CURVE"
);
}
);
};
layerId = "FF8CB9F1-2B98-444C-A502-96421F2531A8";
name = Bold;
paths = (
{
closed = 1;
nodes = (
"658 941 OFFCURVE",
"584 877 OFFCURVE",
"584 833 CURVE SMOOTH",
"584 798 OFFCURVE",
"644 822 OFFCURVE",
"644 773 CURVE SMOOTH",
"644 738 OFFCURVE",
"607 691 OFFCURVE",
"427 551 CURVE SMOOTH",
"261 422 OFFCURVE",
"219 343 OFFCURVE",
"219 250 CURVE SMOOTH",
"219 104 OFFCURVE",
"338 0 OFFCURVE",
"506 0 CURVE SMOOTH",
"651 0 OFFCURVE",
"754 81 OFFCURVE",
"754 196 CURVE SMOOTH",
"754 266 OFFCURVE",
"706 328 OFFCURVE",
"632 353 CURVE",
"745 407 LINE SMOOTH",
"908 485 OFFCURVE",
"998 593 OFFCURVE",
"998 711 CURVE SMOOTH",
"998 842 OFFCURVE",
"904 941 OFFCURVE",
"766 941 CURVE SMOOTH"
);
},
{
closed = 1;
nodes = (
"570 290 OFFCURVE",
"582 270 OFFCURVE",
"582 243 CURVE SMOOTH",
"582 212 OFFCURVE",
"558 187 OFFCURVE",
"529 187 CURVE SMOOTH",
"501 187 OFFCURVE",
"482 203 OFFCURVE",
"482 229 CURVE SMOOTH",
"482 256 OFFCURVE",
"502 279 OFFCURVE",
"549 307 CURVE"
);
},
{
closed = 1;
nodes = (
"108 838 OFFCURVE",
"30 773 OFFCURVE",
"30 664 CURVE SMOOTH",
"30 535 OFFCURVE",
"129 456 OFFCURVE",
"219 456 CURVE SMOOTH",
"239 456 OFFCURVE",
"249 465 OFFCURVE",
"249 477 CURVE SMOOTH",
"249 496 OFFCURVE",
"229 503 OFFCURVE",
"229 532 CURVE SMOOTH",
"229 558 OFFCURVE",
"247 576 OFFCURVE",
"285 576 CURVE SMOOTH",
"319 576 OFFCURVE",
"359 565 OFFCURVE",
"406 517 CURVE",
"471 549 LINE",
"409 766 OFFCURVE",
"311 838 OFFCURVE",
"198 838 CURVE SMOOTH"
);
}
);
width = 1028;
},
{
associatedMasterId = "FF8CB9F1-2B98-444C-A502-96421F2531A8";
layerId = "ACE1C649-40E4-45B1-ADE0-6657E8FC8904";
name = "Regular Feb 23 14, 14:59";
paths = (
{
closed = 1;
nodes = (
"188 507 OFFCURVE",
"626 649 OFFCURVE",
"626 732 CURVE",
"626 774 OFFCURVE",
"587 792 OFFCURVE",
"587 807 CURVE",
"587 822 OFFCURVE",
"624 828 OFFCURVE",
"639 828 CURVE SMOOTH",
"803 828 OFFCURVE",
"921 777 OFFCURVE",
"921 623 CURVE",
"921 331 OFFCURVE",
"508 417 OFFCURVE",
"508 198 CURVE SMOOTH",
"506 180 OFFCURVE",
"523 162 OFFCURVE",
"544 162 CURVE",
"586 162 OFFCURVE",
"631 215 OFFCURVE",
"631 261 CURVE",
"631 308 OFFCURVE",
"564 316 OFFCURVE",
"514 316 CURVE",
"465 316 OFFCURVE",
"564 374 OFFCURVE",
"642 374 CURVE",
"720 374 OFFCURVE",
"810 291 OFFCURVE",
"810 195 CURVE",
"810 99 OFFCURVE",
"720 -8 OFFCURVE",
"518 -8 CURVE",
"325 -8 OFFCURVE",
"188 113 OFFCURVE",
"188 223 CURVE SMOOTH"
);
},
{
closed = 1;
nodes = (
"329 838 OFFCURVE",
"410 795 OFFCURVE",
"523 585 CURVE SMOOTH",
"415 523 LINE SMOOTH",
"390 545 OFFCURVE",
"372 576 OFFCURVE",
"325 576 CURVE",
"279 576 OFFCURVE",
"229 522 OFFCURVE",
"229 493 CURVE",
"229 465 OFFCURVE",
"249 459 OFFCURVE",
"249 439 CURVE SMOOTH",
"249 419 OFFCURVE",
"222 414 OFFCURVE",
"204 414 CURVE",
"186 414 OFFCURVE",
"30 487 OFFCURVE",
"30 621 CURVE",
"30 755 OFFCURVE",
"131 838 OFFCURVE",
"256 838 CURVE"
);
}
);
width = 941;
},
{
associatedMasterId = "FF8CB9F1-2B98-444C-A502-96421F2531A8";
background = {
paths = (
{
closed = 1;
nodes = (
"794 506 OFFCURVE",
"886 597 OFFCURVE",
"915 689 CURVE SMOOTH",
"947 789 OFFCURVE",
"909 920 OFFCURVE",
"757 968 CURVE SMOOTH",
"623 1010 OFFCURVE",
"506 940 OFFCURVE",
"480 858 CURVE SMOOTH",
"474 840 OFFCURVE",
"473 822 OFFCURVE",
"483 819 CURVE SMOOTH",
"496 815 OFFCURVE",
"507 834 OFFCURVE",
"548 821 CURVE SMOOTH",
"610 802 OFFCURVE",
"643 738 OFFCURVE",
"617 654 CURVE SMOOTH",
"603 609 OFFCURVE",
"565 556 OFFCURVE",
"500 499 CURVE",
"527 449 LINE"
);
}
);
};
layerId = "BCCAF9D4-6E05-4858-88CD-0FC634B4B854";
name = "Regular Feb 23 14, 16:11";
paths = (
{
closed = 1;
nodes = (
"199 343 OFFCURVE",
"238 424 OFFCURVE",
"432 580 CURVE SMOOTH",
"569 690 OFFCURVE",
"633 728 OFFCURVE",
"633 771 CURVE",
"633 811 OFFCURVE",
"564 789 OFFCURVE",
"564 833 CURVE",
"564 885 OFFCURVE",
"647 941 OFFCURVE",
"760 941 CURVE SMOOTH",
"878 941 OFFCURVE",
"978 842 OFFCURVE",
"978 711 CURVE",
"978 569 OFFCURVE",
"912 495 OFFCURVE",
"725 407 CURVE SMOOTH",
"572 335 OFFCURVE",
"462 287 OFFCURVE",
"462 229 CURVE SMOOTH",
"462 195 OFFCURVE",
"485 176 OFFCURVE",
"509 176 CURVE SMOOTH",
"538 176 OFFCURVE",
"562 207 OFFCURVE",
"562 240 CURVE",
"562 287 OFFCURVE",
"543 307 OFFCURVE",
"493 332 CURVE",
"540 386 LINE",
"674 348 OFFCURVE",
"734 287 OFFCURVE",
"734 182 CURVE",
"734 73 OFFCURVE",
"635 0 OFFCURVE",
"511 0 CURVE",
"339 0 OFFCURVE",
"199 97 OFFCURVE",
"199 250 CURVE SMOOTH"
);
},
{
closed = 1;
nodes = (
"297 838 OFFCURVE",
"400 735 OFFCURVE",
"463 545 CURVE",
"365 523 LINE",
"327 556 OFFCURVE",
"299 576 OFFCURVE",
"265 576 CURVE",
"227 576 OFFCURVE",
"209 558 OFFCURVE",
"209 532 CURVE",
"209 507 OFFCURVE",
"229 504 OFFCURVE",
"229 488 CURVE SMOOTH",
"229 476 OFFCURVE",
"219 467 OFFCURVE",
"199 467 CURVE",
"129 467 OFFCURVE",
"10 547 OFFCURVE",
"10 661 CURVE",
"10 765 OFFCURVE",
"81 838 OFFCURVE",
"186 838 CURVE"
);
}
);
width = 1003;
},
{
associatedMasterId = "FF8CB9F1-2B98-444C-A502-96421F2531A8";
layerId = "E2ED2BC9-5E81-44FC-8538-4BC3146DE54F";
name = "Regular Jun 19 14, 21:28";
paths = (
{
closed = 1;
nodes = (
"199 328 OFFCURVE",
"236 391 OFFCURVE",
"310 454 CURVE SMOOTH",
"601 701 LINE SMOOTH",
"623 720 OFFCURVE",
"633 733 OFFCURVE",
"633 755 CURVE SMOOTH",
"633 824 OFFCURVE",
"564 792 OFFCURVE",
"564 833 CURVE",
"564 887 OFFCURVE",
"631 941 OFFCURVE",
"754 941 CURVE SMOOTH",
"881 941 OFFCURVE",
"978 842 OFFCURVE",
"978 711 CURVE",
"978 569 OFFCURVE",
"912 495 OFFCURVE",
"725 407 CURVE SMOOTH",
"572 335 OFFCURVE",
"462 287 OFFCURVE",
"462 229 CURVE SMOOTH",
"462 195 OFFCURVE",
"485 187 OFFCURVE",
"509 187 CURVE SMOOTH",
"538 187 OFFCURVE",
"563 210 OFFCURVE",
"563 248 CURVE",
"563 291 OFFCURVE",
"550 323 OFFCURVE",
"509 361 CURVE",
"572 393 LINE",
"684 339 OFFCURVE",
"734 277 OFFCURVE",
"734 182 CURVE SMOOTH",
"734 73 OFFCURVE",
"645 0 OFFCURVE",
"501 0 CURVE SMOOTH",
"319 0 OFFCURVE",
"199 100 OFFCURVE",
"199 253 CURVE SMOOTH"
);
},
{
closed = 1;
nodes = (
"297 838 OFFCURVE",
"385 739 OFFCURVE",
"475 554 CURVE",
"412 502 LINE",
"349 547 OFFCURVE",
"301 576 OFFCURVE",
"262 576 CURVE SMOOTH",
"224 576 OFFCURVE",
"209 558 OFFCURVE",
"209 532 CURVE SMOOTH",
"209 511 OFFCURVE",
"229 504 OFFCURVE",
"229 488 CURVE SMOOTH",
"229 476 OFFCURVE",
"219 467 OFFCURVE",
"199 467 CURVE",
"132 467 OFFCURVE",
"10 547 OFFCURVE",
"10 661 CURVE",
"10 765 OFFCURVE",
"81 838 OFFCURVE",
"186 838 CURVE"
);
}
);
width = 1003;
}
);
unicode = 0A9C;
},
{
glyphname = gjJHA;
lastChange = "2015-06-15 10:17:48 +0000";
layers = (
{
background = {
paths = (
{
closed = 0;
nodes = (
"835 -40 LINE SMOOTH",
"701 -40 OFFCURVE",
"608 65 OFFCURVE",
"608 201 CURVE SMOOTH",
"608 236 OFFCURVE",
"617 253 OFFCURVE",
"630 253 CURVE SMOOTH",
"651 253 OFFCURVE",
"659 206 OFFCURVE",
"708 206 CURVE SMOOTH"
);
}
);
};
layerId = "FF8CB9F1-2B98-444C-A502-96421F2531A8";
name = Bold;
paths = (
{
closed = 1;
nodes = (
"143 747 OFFCURVE",
"225 839 OFFCURVE",
"352 839 CURVE SMOOTH",
"493 839 OFFCURVE",
"600 730 OFFCURVE",
"600 509 CURVE SMOOTH",
"600 165 OFFCURVE",
"428 -4 OFFCURVE",
"237 -4 CURVE SMOOTH",
"103 -4 OFFCURVE",
"10 101 OFFCURVE",
"10 237 CURVE SMOOTH",
"10 272 OFFCURVE",
"19 289 OFFCURVE",
"32 289 CURVE SMOOTH",
"53 289 OFFCURVE",
"61 242 OFFCURVE",
"110 242 CURVE SMOOTH",
"183 242 OFFCURVE",
"277 423 OFFCURVE",
"277 580 CURVE SMOOTH",
"277 641 OFFCURVE",
"248 668 OFFCURVE",
"216 668 CURVE SMOOTH",
"187 668 OFFCURVE",
"176 642 OFFCURVE",
"159 642 CURVE SMOOTH",
"151 642 OFFCURVE",
"143 651 OFFCURVE",
"143 667 CURVE SMOOTH"
);
},
{
closed = 1;
nodes = (
"555 409 LINE",
"648 532 OFFCURVE",
"739 582 OFFCURVE",
"872 582 CURVE SMOOTH",
"1014 582 OFFCURVE",
"1134 482 OFFCURVE",
"1134 302 CURVE SMOOTH",
"1134 122 OFFCURVE",
"1010 -4 OFFCURVE",
"848 -4 CURVE SMOOTH",
"690 -4 OFFCURVE",
"610 85 OFFCURVE",
"610 211 CURVE SMOOTH",
"610 237 OFFCURVE",
"616 253 OFFCURVE",
"628 253 CURVE SMOOTH",
"649 253 OFFCURVE",
"653 211 OFFCURVE",
"703 211 CURVE SMOOTH",
"753 211 OFFCURVE",
"779 244 OFFCURVE",
"779 302 CURVE SMOOTH",
"779 351 OFFCURVE",
"748 388 OFFCURVE",
"704 388 CURVE SMOOTH",
"643 388 OFFCURVE",
"604 340 OFFCURVE",
"543 212 CURVE"
);
},
{
closed = 1;
nodes = (
"1148 740 OFFCURVE",
"1128 699 OFFCURVE",
"1090 637 CURVE SMOOTH",
"1006 500 LINE",
"701 504 LINE",
"787 774 LINE",
"898 821 OFFCURVE",
"979 844 OFFCURVE",
"1052 844 CURVE SMOOTH",
"1135 844 OFFCURVE",
"1148 809 OFFCURVE",
"1148 779 CURVE SMOOTH"
);
}
);
width = 1200;
}
);
unicode = 0A9D;
},
{
glyphname = gjNYA;
lastChange = "2015-06-05 14:48:25 +0000";
layers = (
{
background = {
paths = (
{
closed = 0;
nodes = (
"483 656 LINE SMOOTH",
"483 781 OFFCURVE",
"381 853 OFFCURVE",
"245 853 CURVE SMOOTH",
"104 853 OFFCURVE",
"45 773 OFFCURVE",
"45 688 CURVE SMOOTH",
"45 670 OFFCURVE",
"51 652 OFFCURVE",
"62 652 CURVE SMOOTH",
"75 652 OFFCURVE",
"82 684 OFFCURVE",
"112 684 CURVE SMOOTH",
"125 684 OFFCURVE",
"134 676 OFFCURVE",
"134 660 CURVE SMOOTH"
);
}
);
};
layerId = "FF8CB9F1-2B98-444C-A502-96421F2531A8";
rightMetricsKey = gjmAA;
name = Bold;
paths = (
{
closed = 1;
nodes = (
"799 844 OFFCURVE",
"651 809 OFFCURVE",
"627 733 CURVE SMOOTH",
"515 379 LINE SMOOTH",
"486 287 OFFCURVE",
"473 234 OFFCURVE",
"473 186 CURVE SMOOTH",
"473 85 OFFCURVE",
"532 -4 OFFCURVE",
"692 -4 CURVE SMOOTH",
"832 -4 OFFCURVE",
"925 98 OFFCURVE",
"925 184 CURVE SMOOTH",
"925 202 OFFCURVE",
"919 220 OFFCURVE",
"908 220 CURVE SMOOTH",
"895 220 OFFCURVE",
"887 187 OFFCURVE",
"857 187 CURVE SMOOTH",
"839 187 OFFCURVE",
"831 203 OFFCURVE",
"839 229 CURVE SMOOTH",
"993 733 LINE SMOOTH",
"998 750 OFFCURVE",
"1001 766 OFFCURVE",
"1001 779 CURVE SMOOTH",
"1001 809 OFFCURVE",
"988 844 OFFCURVE",
"900 844 CURVE SMOOTH"
);
},
{
closed = 1;
nodes = (
"530 427 OFFCURVE",
"484 399 OFFCURVE",
"377 417 CURVE",
"295 372 LINE",
"364 297 OFFCURVE",
"446 260 OFFCURVE",
"547 260 CURVE",
"562 528 LINE"
);
},
{
closed = 1;
nodes = (
"112 853 OFFCURVE",
"45 780 OFFCURVE",
"45 687 CURVE SMOOTH",
"45 670 OFFCURVE",
"51 652 OFFCURVE",
"62 652 CURVE SMOOTH",
"75 652 OFFCURVE",
"87 684 OFFCURVE",
"112 684 CURVE SMOOTH",
"128 684 OFFCURVE",
"137 668 OFFCURVE",
"137 634 CURVE SMOOTH",
"137 551 OFFCURVE",
"91 514 OFFCURVE",
"49 514 CURVE SMOOTH",
"19 514 OFFCURVE",
"13 547 OFFCURVE",
"-3 547 CURVE SMOOTH",
"-11 547 OFFCURVE",
"-20 537 OFFCURVE",
"-20 511 CURVE SMOOTH",
"-20 395 OFFCURVE",
"75 323 OFFCURVE",
"198 323 CURVE SMOOTH",
"357 323 OFFCURVE",
"492 432 OFFCURVE",
"492 626 CURVE SMOOTH",
"492 758 OFFCURVE",
"408 853 OFFCURVE",
"245 853 CURVE SMOOTH"
);
}
);
width = 1021;
}
);
rightMetricsKey = gjmAA;
unicode = 0A9E;
},
{
glyphname = gjTTA;
lastChange = "2015-06-05 14:42:49 +0000";
layers = (
{
background = {
paths = (
{
closed = 1;
nodes = (
"718 152 OFFCURVE",
"718 253 CURVE SMOOTH",
"718 350 OFFCURVE",
"645 388 OFFCURVE",
"622 388 CURVE SMOOTH",
"594 388 OFFCURVE",
"591 376 OFFCURVE",
"585 356 CURVE SMOOTH",
"578 336 OFFCURVE",
"517 279 OFFCURVE",
"432 279 CURVE SMOOTH",
"352 279 OFFCURVE",
"321 301 OFFCURVE",
"331 333 CURVE SMOOTH",
"338 355 OFFCURVE",
"351 371 OFFCURVE",
"444 413 CURVE SMOOTH",
"632 498 OFFCURVE",
"684 537 OFFCURVE",
"684 654 CURVE SMOOTH",
"684 773 OFFCURVE",
"549 839 OFFCURVE",
"390 839 CURVE SMOOTH",
"235 839 OFFCURVE",
"143 712 OFFCURVE",
"143 589 CURVE SMOOTH",
"143 547 OFFCURVE",
"156 520 OFFCURVE",
"176 533 CURVE SMOOTH",
"204 552 OFFCURVE",
"231 576 OFFCURVE",
"286 576 CURVE SMOOTH",
"361 576 OFFCURVE",
"442 553 OFFCURVE",
"430 513 CURVE SMOOTH",
"425 493 OFFCURVE",
"400 487 OFFCURVE",
"301 449 CURVE SMOOTH",
"136 385 OFFCURVE",
"30 345 OFFCURVE",
"30 192 CURVE SMOOTH",
"30 82 OFFCURVE",
"121 -9 OFFCURVE",
"359 -9 CURVE SMOOTH",
"629 -9 OFFCURVE"
);
}
);
};
layerId = "FF8CB9F1-2B98-444C-A502-96421F2531A8";
name = Bold;
paths = (
{
closed = 1;
nodes = (
"423 260 OFFCURVE",
"522 313 OFFCURVE",
"627 313 CURVE SMOOTH",
"747 313 OFFCURVE",
"823 251 OFFCURVE",
"823 177 CURVE SMOOTH",
"823 84 OFFCURVE",
"705 -9 OFFCURVE",
"436 -9 CURVE SMOOTH",
"177 -9 OFFCURVE",
"30 95 OFFCURVE",
"30 258 CURVE SMOOTH",
"30 493 OFFCURVE",
"404 638 OFFCURVE",
"404 729 CURVE SMOOTH",
"404 770 OFFCURVE",
"356 758 OFFCURVE",
"356 786 CURVE SMOOTH",
"356 813 OFFCURVE",
"428 839 OFFCURVE",
"540 839 CURVE SMOOTH",
"719 839 OFFCURVE",
"852 766 OFFCURVE",
"852 652 CURVE SMOOTH",
"852 430 OFFCURVE",
"316 357 OFFCURVE",
"316 178 CURVE SMOOTH",
"316 132 OFFCURVE",
"349 103 OFFCURVE",
"397 103 CURVE SMOOTH",
"442 103 OFFCURVE",
"465 127 OFFCURVE",
"465 154 CURVE SMOOTH",
"465 204 OFFCURVE",
"423 201 OFFCURVE",
"423 225 CURVE SMOOTH"
);
}
);
width = 872;
}
);
unicode = 0A9F;
},
{
glyphname = gjTTHA;
lastChange = "2015-06-15 11:39:31 +0000";
layers = (
{
background = {
paths = (
{
closed = 1;
nodes = (
"450 201 OFFCURVE",
"410 204 OFFCURVE",
"389 154 CURVE SMOOTH",
"377 127 OFFCURVE",
"390 103 OFFCURVE",
"435 103 CURVE SMOOTH",
"483 103 OFFCURVE",
"528 132 OFFCURVE",
"548 178 CURVE SMOOTH",
"623 357 OFFCURVE",
"117 430 OFFCURVE",
"210 652 CURVE SMOOTH",
"258 766 OFFCURVE",
"422 839 OFFCURVE",
"601 839 CURVE SMOOTH",
"713 839 OFFCURVE",
"774 813 OFFCURVE",
"763 786 CURVE SMOOTH",
"751 758 OFFCURVE",
"708 770 OFFCURVE",
"691 729 CURVE SMOOTH",
"653 638 OFFCURVE",
"966 493 OFFCURVE",
"867 258 CURVE SMOOTH",
"799 95 OFFCURVE",
"608 -9 OFFCURVE",
"349 -9 CURVE SMOOTH",
"80 -9 OFFCURVE",
"1 84 OFFCURVE",
"40 177 CURVE SMOOTH",
"71 251 OFFCURVE",
"173 313 OFFCURVE",
"293 313 CURVE SMOOTH",
"398 313 OFFCURVE",
"475 260 OFFCURVE",
"460 225 CURVE SMOOTH"
);
}
);
};
layerId = "FF8CB9F1-2B98-444C-A502-96421F2531A8";
name = Bold;
paths = (
{
closed = 1;
nodes = (
"462 208 OFFCURVE",
"384 205 OFFCURVE",
"384 150 CURVE SMOOTH",
"384 122 OFFCURVE",
"401 103 OFFCURVE",
"446 103 CURVE SMOOTH",
"494 103 OFFCURVE",
"555 142 OFFCURVE",
"555 208 CURVE SMOOTH",
"555 362 OFFCURVE",
"199 422 OFFCURVE",
"199 604 CURVE SMOOTH",
"199 748 OFFCURVE",
"422 839 OFFCURVE",
"601 839 CURVE SMOOTH",
"713 839 OFFCURVE",
"764 816 OFFCURVE",
"764 791 CURVE SMOOTH",
"764 766 OFFCURVE",
"688 760 OFFCURVE",
"688 718 CURVE SMOOTH",
"688 625 OFFCURVE",
"887 529 OFFCURVE",
"887 345 CURVE SMOOTH",
"887 139 OFFCURVE",
"643 -9 OFFCURVE",
"399 -9 CURVE SMOOTH",
"135 -9 OFFCURVE",
"31 74 OFFCURVE",
"31 150 CURVE SMOOTH",
"31 239 OFFCURVE",
"119 313 OFFCURVE",
"283 313 CURVE SMOOTH",
"398 313 OFFCURVE",
"462 263 OFFCURVE",
"462 232 CURVE SMOOTH"
);
}
);
width = 910;
}
);
unicode = 0AA0;
},
{
glyphname = gjDDA;
lastChange = "2015-06-05 14:42:49 +0000";
layers = (
{
background = {
paths = (
{
closed = 1;
nodes = (
"417 423 OFFCURVE",
"417 346 CURVE SMOOTH",
"417 308 OFFCURVE",
"385 279 OFFCURVE",
"300 279 CURVE SMOOTH",
"154 279 OFFCURVE",
"132 330 OFFCURVE",
"132 372 CURVE SMOOTH",
"132 390 OFFCURVE",
"136 409 OFFCURVE",
"136 422 CURVE SMOOTH",
"136 435 OFFCURVE",
"131 442 OFFCURVE",
"122 442 CURVE SMOOTH",
"86 442 OFFCURVE",
"-7 352 OFFCURVE",
"-7 220 CURVE SMOOTH",
"-7 78 OFFCURVE",
"96 -9 OFFCURVE",
"306 -9 CURVE SMOOTH",
"516 -9 OFFCURVE",
"639 82 OFFCURVE",
"639 223 CURVE SMOOTH",
"639 364 OFFCURVE",
"413 493 OFFCURVE",
"413 577 CURVE SMOOTH",
"413 596 OFFCURVE",
"421 606 OFFCURVE",
"441 606 CURVE SMOOTH",
"465 606 OFFCURVE",
"483 585 OFFCURVE",
"505 585 CURVE SMOOTH",
"528 585 OFFCURVE",
"540 614 OFFCURVE",
"540 669 CURVE SMOOTH",
"540 796 OFFCURVE",
"437 869 OFFCURVE",
"340 869 CURVE SMOOTH",
"243 869 OFFCURVE",
"184 808 OFFCURVE",
"184 727 CURVE SMOOTH",
"184 588 OFFCURVE"
);
}
);
};
guideLines = (
{
angle = 90;
position = "{364, 219}";
},
{
angle = 90;
position = "{314.500, 344.500}";
}
);
layerId = "FF8CB9F1-2B98-444C-A502-96421F2531A8";
name = Bold;
paths = (
{
closed = 1;
nodes = (
"20 84 OFFCURVE",
"163 -9 OFFCURVE",
"364 -9 CURVE SMOOTH",
"565 -9 OFFCURVE",
"708 84 OFFCURVE",
"708 219 CURVE SMOOTH",
"708 326 OFFCURVE",
"649 385 OFFCURVE",
"500 449 CURVE SMOOTH",
"412 487 OFFCURVE",
"389 493 OFFCURVE",
"389 513 CURVE SMOOTH",
"389 553 OFFCURVE",
"426 576 OFFCURVE",
"501 576 CURVE SMOOTH",
"556 576 OFFCURVE",
"576 552 OFFCURVE",
"599 533 CURVE SMOOTH",
"624 513 OFFCURVE",
"658 586 OFFCURVE",
"658 664 CURVE SMOOTH",
"658 766 OFFCURVE",
"578 839 OFFCURVE",
"470 839 CURVE SMOOTH",
"287 839 OFFCURVE",
"168 739 OFFCURVE",
"168 615 CURVE SMOOTH",
"168 532 OFFCURVE",
"218 480 OFFCURVE",
"347 413 CURVE SMOOTH",
"429 371 OFFCURVE",
"437 355 OFFCURVE",
"438 333 CURVE SMOOTH",
"439 301 OFFCURVE",
"395 279 OFFCURVE",
"315 279 CURVE SMOOTH",
"236 279 OFFCURVE",
"178 307 OFFCURVE",
"178 356 CURVE SMOOTH",
"178 376 OFFCURVE",
"177 388 OFFCURVE",
"149 388 CURVE SMOOTH",
"102 388 OFFCURVE",
"20 321 OFFCURVE",
"20 219 CURVE SMOOTH"
);
}
);
width = 728;
},
{
associatedMasterId = "FF8CB9F1-2B98-444C-A502-96421F2531A8";
background = {
paths = (
{
closed = 1;
nodes = (
"432 415 OFFCURVE",
"432 338 CURVE SMOOTH",
"432 304 OFFCURVE",
"381 279 OFFCURVE",
"291 279 CURVE SMOOTH",
"138 279 OFFCURVE",
"81 334 OFFCURVE",
"73 401 CURVE SMOOTH",
"70 422 OFFCURVE",
"64 428 OFFCURVE",
"53 428 CURVE SMOOTH",
"25 428 OFFCURVE",
"-30 340 OFFCURVE",
"-30 246 CURVE SMOOTH",
"-30 102 OFFCURVE",
"87 -9 OFFCURVE",
"307 -9 CURVE SMOOTH",
"514 -9 OFFCURVE",
"637 102 OFFCURVE",
"637 223 CURVE SMOOTH",
"637 364 OFFCURVE",
"391 455 OFFCURVE",
"391 540 CURVE SMOOTH",
"391 563 OFFCURVE",
"407 576 OFFCURVE",
"427 576 CURVE SMOOTH",
"450 576 OFFCURVE",
"466 555 OFFCURVE",
"483 555 CURVE SMOOTH",
"500 555 OFFCURVE",
"518 584 OFFCURVE",
"518 652 CURVE SMOOTH",
"518 766 OFFCURVE",
"429 839 OFFCURVE",
"332 839 CURVE SMOOTH",
"235 839 OFFCURVE",
"162 772 OFFCURVE",
"162 672 CURVE SMOOTH",
"162 530 OFFCURVE"
);
}
);
};
layerId = "CD862AED-4655-4114-B754-7BD3FAF7E9F5";
name = "Bold Jun 5 15, 10:20";
paths = (
{
closed = 1;
nodes = (
"402 486 OFFCURVE",
"402 368 CURVE SMOOTH",
"402 310 OFFCURVE",
"361 279 OFFCURVE",
"261 279 CURVE SMOOTH",
"136 279 OFFCURVE",
"81 334 OFFCURVE",
"73 401 CURVE SMOOTH",
"70 422 OFFCURVE",
"64 428 OFFCURVE",
"53 428 CURVE SMOOTH",
"25 428 OFFCURVE",
"-30 340 OFFCURVE",
"-30 246 CURVE SMOOTH",
"-30 102 OFFCURVE",
"73 -9 OFFCURVE",
"293 -9 CURVE SMOOTH",
"510 -9 OFFCURVE",
"637 102 OFFCURVE",
"637 248 CURVE SMOOTH",
"637 389 OFFCURVE",
"416 509 OFFCURVE",
"416 568 CURVE SMOOTH",
"416 587 OFFCURVE",
"427 598 OFFCURVE",
"477 625 CURVE SMOOTH",
"522 649 OFFCURVE",
"538 667 OFFCURVE",
"538 701 CURVE SMOOTH",
"538 775 OFFCURVE",
"432 869 OFFCURVE",
"326 869 CURVE SMOOTH",
"251 869 OFFCURVE",
"202 817 OFFCURVE",
"202 746 CURVE SMOOTH",
"202 612 OFFCURVE"
);
}
);
width = 671;
},
{
associatedMasterId = "FF8CB9F1-2B98-444C-A502-96421F2531A8";
background = {
paths = (
{
closed = 1;
nodes = (
"18 84 OFFCURVE",
"161 -9 OFFCURVE",
"362 -9 CURVE SMOOTH",
"563 -9 OFFCURVE",
"706 84 OFFCURVE",
"706 215 CURVE SMOOTH",
"706 344 OFFCURVE",
"586 411 OFFCURVE",
"498 449 CURVE SMOOTH",
"410 487 OFFCURVE",
"387 493 OFFCURVE",
"387 513 CURVE SMOOTH",
"387 553 OFFCURVE",
"474 576 OFFCURVE",
"549 576 CURVE SMOOTH",
"604 576 OFFCURVE",
"624 552 OFFCURVE",
"647 533 CURVE SMOOTH",
"672 513 OFFCURVE",
"706 586 OFFCURVE",
"706 664 CURVE SMOOTH",
"706 766 OFFCURVE",
"626 839 OFFCURVE",
"518 839 CURVE SMOOTH",
"335 839 OFFCURVE",
"159 751 OFFCURVE",
"166 595 CURVE SMOOTH",
"170 500 OFFCURVE",
"216 480 OFFCURVE",
"345 413 CURVE SMOOTH",
"427 371 OFFCURVE",
"435 355 OFFCURVE",
"436 333 CURVE SMOOTH",
"437 301 OFFCURVE",
"400 279 OFFCURVE",
"320 279 CURVE SMOOTH",
"235 279 OFFCURVE",
"190 336 OFFCURVE",
"189 356 CURVE SMOOTH",
"188 376 OFFCURVE",
"188 388 OFFCURVE",
"160 388 CURVE SMOOTH",
"132 388 OFFCURVE",
"18 346 OFFCURVE",
"18 215 CURVE SMOOTH"
);
}
);
};
guideLines = (
{
angle = 90;
position = "{303.500, 221.500}";
}
);
layerId = "6896836C-2EA4-4124-BB42-C241BC72AFDE";
name = "Bold Jun 5 15, 14:09";
paths = (
{
closed = 1;
nodes = (
"415 423 OFFCURVE",
"415 346 CURVE SMOOTH",
"415 308 OFFCURVE",
"383 279 OFFCURVE",
"298 279 CURVE SMOOTH",
"152 279 OFFCURVE",
"130 330 OFFCURVE",
"130 372 CURVE SMOOTH",
"130 390 OFFCURVE",
"134 409 OFFCURVE",
"134 422 CURVE SMOOTH",
"134 435 OFFCURVE",
"129 442 OFFCURVE",
"120 442 CURVE SMOOTH",
"84 442 OFFCURVE",
"-9 352 OFFCURVE",
"-9 220 CURVE SMOOTH",
"-9 78 OFFCURVE",
"94 -9 OFFCURVE",
"304 -9 CURVE SMOOTH",
"514 -9 OFFCURVE",
"637 82 OFFCURVE",
"637 223 CURVE SMOOTH",
"637 364 OFFCURVE",
"411 493 OFFCURVE",
"411 577 CURVE SMOOTH",
"411 596 OFFCURVE",
"419 606 OFFCURVE",
"439 606 CURVE SMOOTH",
"463 606 OFFCURVE",
"481 585 OFFCURVE",
"503 585 CURVE SMOOTH",
"526 585 OFFCURVE",
"538 614 OFFCURVE",
"538 669 CURVE SMOOTH",
"538 796 OFFCURVE",
"435 869 OFFCURVE",
"338 869 CURVE SMOOTH",
"241 869 OFFCURVE",
"182 808 OFFCURVE",
"182 727 CURVE SMOOTH",
"182 588 OFFCURVE"
);
}
);
width = 671;
}
);
unicode = 0AA1;
},
{
glyphname = gjDDHA;
lastChange = "2015-06-15 14:41:15 +0000";
layers = (
{
background = {
paths = (
{
closed = 1;
nodes = (
"423 262 OFFCURVE",
"522 315 OFFCURVE",
"627 315 CURVE SMOOTH",
"747 315 OFFCURVE",
"823 253 OFFCURVE",
"823 179 CURVE SMOOTH",
"823 86 OFFCURVE",
"705 -7 OFFCURVE",
"436 -7 CURVE SMOOTH",
"177 -7 OFFCURVE",
"30 97 OFFCURVE",
"30 260 CURVE SMOOTH",
"30 495 OFFCURVE",
"404 638 OFFCURVE",
"404 729 CURVE SMOOTH",
"404 770 OFFCURVE",
"356 758 OFFCURVE",
"356 786 CURVE SMOOTH",
"356 813 OFFCURVE",
"428 839 OFFCURVE",
"540 839 CURVE SMOOTH",
"719 839 OFFCURVE",
"852 766 OFFCURVE",
"852 652 CURVE SMOOTH",
"852 432 OFFCURVE",
"316 359 OFFCURVE",
"316 180 CURVE SMOOTH",
"316 134 OFFCURVE",
"349 105 OFFCURVE",
"397 105 CURVE SMOOTH",
"442 105 OFFCURVE",
"465 129 OFFCURVE",
"465 156 CURVE SMOOTH",
"465 206 OFFCURVE",
"423 203 OFFCURVE",
"423 227 CURVE SMOOTH"
);
}
);
};
backgroundImage = {
crop = "{{0, 0}, {295, 360}}";
imagePath = ../../../../Shrikhand/Gujarati/Reference/Shrikhand_DDHA.png;
locked = 1;
transform = "{3, 0, 0, 3, -13, -100}";
};
layerId = "FF8CB9F1-2B98-444C-A502-96421F2531A8";
name = Bold;
paths = (
{
closed = 1;
nodes = (
"476 331 OFFCURVE",
"348 258 OFFCURVE",
"349 125 CURVE",
"294 152 OFFCURVE",
"281 190 OFFCURVE",
"281 214 CURVE SMOOTH",
"281 437 OFFCURVE",
"852 426 OFFCURVE",
"852 652 CURVE SMOOTH",
"852 766 OFFCURVE",
"719 839 OFFCURVE",
"540 839 CURVE SMOOTH",
"428 839 OFFCURVE",
"356 813 OFFCURVE",
"356 786 CURVE SMOOTH",
"356 758 OFFCURVE",
"404 770 OFFCURVE",
"404 729 CURVE SMOOTH",
"404 638 OFFCURVE",
"29.9999 495 OFFCURVE",
"29.9999 260 CURVE SMOOTH",
"29.9999 97 OFFCURVE",
"206 -7 OFFCURVE",
"505 -7 CURVE SMOOTH",
"764 -7 OFFCURVE",
"883 86 OFFCURVE",
"883 179 CURVE SMOOTH",
"883 253 OFFCURVE",
"803 331 OFFCURVE",
"618 331 CURVE SMOOTH"
);
},
{
closed = 1;
nodes = (
"443 92 OFFCURVE",
"420 95 OFFCURVE",
"397 105 CURVE",
"407 149 OFFCURVE",
"441 173 OFFCURVE",
"471 173 CURVE SMOOTH",
"510 173 OFFCURVE",
"525 159 OFFCURVE",
"525 135 CURVE SMOOTH",
"525 108 OFFCURVE",
"502 92 OFFCURVE",
"457 92 CURVE SMOOTH"
);
}
);
width = 872;
},
{
associatedMasterId = "FF8CB9F1-2B98-444C-A502-96421F2531A8";
background = {
paths = (
{
closed = 1;
nodes = (
"-35 495 OFFCURVE",
"339 638 OFFCURVE",
"339 709 CURVE SMOOTH",
"339 758 OFFCURVE",
"291 733 OFFCURVE",
"291 775 CURVE SMOOTH",
"291 817 OFFCURVE",
"363 839 OFFCURVE",
"449 839 CURVE SMOOTH",
"625 839 OFFCURVE",
"787 766 OFFCURVE",
"787 666 CURVE SMOOTH",
"787 442 OFFCURVE",
"299 376 OFFCURVE",
"235 186 CURVE SMOOTH",
"224 154 OFFCURVE",
"239 136 OFFCURVE",
"281 136 CURVE SMOOTH",
"437 136 OFFCURVE",
"509 195 OFFCURVE",
"509 233 CURVE SMOOTH",
"509 271 OFFCURVE",
"487 265 OFFCURVE",
"471 265 CURVE SMOOTH",
"455 265 OFFCURVE",
"441 171 OFFCURVE",
"441 145 CURVE SMOOTH",
"441 119 OFFCURVE",
"399 111 OFFCURVE",
"391 131 CURVE SMOOTH",
"383 151 OFFCURVE",
"363 187 OFFCURVE",
"363 225 CURVE SMOOTH",
"363 263 OFFCURVE",
"393 376 OFFCURVE",
"537 376 CURVE SMOOTH",
"627 376 OFFCURVE",
"731 313 OFFCURVE",
"731 202 CURVE SMOOTH",
"731 64 OFFCURVE",
"611 -7 OFFCURVE",
"395 -7 CURVE SMOOTH",
"137 -7 OFFCURVE",
"-35 112 OFFCURVE",
"-35 260 CURVE SMOOTH"
);
}
);
};
backgroundImage = {
crop = "{{0, 0}, {295, 360}}";
imagePath = ../../../../Shrikhand/Gujarati/Reference/Shrikhand_DDHA.png;
locked = 1;
transform = "{3, 0, 0, 3, -78, -100}";
};
layerId = "DB39CD9D-0264-42F4-BCED-61EF8AAA067F";
name = "Bold Jun 5 15, 13:22";
paths = (
{
closed = 1;
nodes = (
"-35 495 OFFCURVE",
"339 638 OFFCURVE",
"339 729 CURVE SMOOTH",
"339 770 OFFCURVE",
"291 758 OFFCURVE",
"291 786 CURVE SMOOTH",
"291 813 OFFCURVE",
"363 839 OFFCURVE",
"475 839 CURVE SMOOTH",
"654 839 OFFCURVE",
"787 766 OFFCURVE",
"787 636 CURVE SMOOTH",
"787 432 OFFCURVE",
"251 359 OFFCURVE",
"251 180 CURVE SMOOTH",
"251 134 OFFCURVE",
"296 105 OFFCURVE",
"379 105 CURVE SMOOTH",
"472 105 OFFCURVE",
"509 135 OFFCURVE",
"509 167 CURVE SMOOTH",
"509 185 OFFCURVE",
"499 197 OFFCURVE",
"476 197 CURVE SMOOTH",
"433 197 OFFCURVE",
"411 141 OFFCURVE",
"433 84 CURVE",
"383 70 LINE",
"353 104 OFFCURVE",
"333 136 OFFCURVE",
"333 177 CURVE SMOOTH",
"333 256 OFFCURVE",
"400 324 OFFCURVE",
"515 324 CURVE SMOOTH",
"633 324 OFFCURVE",
"701 270 OFFCURVE",
"701 186 CURVE SMOOTH",
"701 72 OFFCURVE",
"559 -7 OFFCURVE",
"395 -7 CURVE SMOOTH",
"160 -7 OFFCURVE",
"-35 97 OFFCURVE",
"-35 260 CURVE SMOOTH"
);
}
);
width = 787;
}
);
unicode = 0AA2;
},
{
glyphname = gjNNA;
lastChange = "2015-06-15 13:50:02 +0000";
layers = (
{
background = {
paths = (
{
closed = 1;
nodes = (
"319 844 OFFCURVE",
"171 808 OFFCURVE",
"147 733 CURVE SMOOTH",
"23 341 LINE SMOOTH",
"-7 248 OFFCURVE",
"21 187 OFFCURVE",
"144 163 CURVE SMOOTH",
"604 73 LINE SMOOTH",
"660 62 OFFCURVE",
"676 41 OFFCURVE",
"676 15 CURVE SMOOTH",
"676 -17 OFFCURVE",
"650 -35 OFFCURVE",
"610 -35 CURVE SMOOTH",
"570 -35 OFFCURVE",
"555 -18 OFFCURVE",
"535 -18 CURVE SMOOTH",
"522 -18 OFFCURVE",
"513 -34 OFFCURVE",
"513 -64 CURVE SMOOTH",
"513 -177 OFFCURVE",
"600 -272 OFFCURVE",
"743 -272 CURVE SMOOTH",
"873 -272 OFFCURVE",
"964 -176 OFFCURVE",
"964 -51 CURVE SMOOTH",
"964 74 OFFCURVE",
"875 142 OFFCURVE",
"679 181 CURVE SMOOTH",
"458 224 LINE SMOOTH",
"376 240 OFFCURVE",
"364 269 OFFCURVE",
"381 323 CURVE SMOOTH",
"513 733 LINE SMOOTH",
"518 750 OFFCURVE",
"521 766 OFFCURVE",
"521 779 CURVE SMOOTH",
"521 809 OFFCURVE",
"508 844 OFFCURVE",
"420 844 CURVE SMOOTH"
);
},
{
closed = 1;
nodes = (
"650 853 OFFCURVE",
"583 780 OFFCURVE",
"583 687 CURVE SMOOTH",
"583 670 OFFCURVE",
"589 652 OFFCURVE",
"600 652 CURVE SMOOTH",
"613 652 OFFCURVE",
"625 684 OFFCURVE",
"650 684 CURVE SMOOTH",
"666 684 OFFCURVE",
"675 668 OFFCURVE",
"675 634 CURVE SMOOTH",
"675 551 OFFCURVE",
"609 445 OFFCURVE",
"567 445 CURVE SMOOTH",
"537 445 OFFCURVE",
"531 478 OFFCURVE",
"515 478 CURVE SMOOTH",
"507 478 OFFCURVE",
"493 468 OFFCURVE",
"493 442 CURVE SMOOTH",
"493 326 OFFCURVE",
"583 254 OFFCURVE",
"716 254 CURVE SMOOTH",
"875 254 OFFCURVE",
"1026 374 OFFCURVE",
"1026 596 CURVE SMOOTH",
"1026 734 OFFCURVE",
"946 853 OFFCURVE",
"783 853 CURVE SMOOTH"
);
},
{
closed = 1;
nodes = (
"1336 844 OFFCURVE",
"1188 809 OFFCURVE",
"1164 733 CURVE SMOOTH",
"1052 379 LINE SMOOTH",
"1023 287 OFFCURVE",
"1010 234 OFFCURVE",
"1010 186 CURVE SMOOTH",
"1010 85 OFFCURVE",
"1069 -4 OFFCURVE",
"1229 -4 CURVE SMOOTH",
"1369 -4 OFFCURVE",
"1462 98 OFFCURVE",
"1462 184 CURVE SMOOTH",
"1462 202 OFFCURVE",
"1456 220 OFFCURVE",
"1445 220 CURVE SMOOTH",
"1432 220 OFFCURVE",
"1424 187 OFFCURVE",
"1394 187 CURVE SMOOTH",
"1376 187 OFFCURVE",
"1368 203 OFFCURVE",
"1376 229 CURVE SMOOTH",
"1530 733 LINE SMOOTH",
"1535 750 OFFCURVE",
"1538 766 OFFCURVE",
"1538 779 CURVE SMOOTH",
"1538 809 OFFCURVE",
"1525 844 OFFCURVE",
"1437 844 CURVE SMOOTH"
);
}
);
};
guideLines = (
{
angle = -19.0842;
position = "{79, 254}";
}
);
layerId = "FF8CB9F1-2B98-444C-A502-96421F2531A8";
rightMetricsKey = gjmAA;
name = Bold;
paths = (
{
closed = 1;
nodes = (
"319 844 OFFCURVE",
"171 809 OFFCURVE",
"147 733 CURVE SMOOTH",
"53 435 LINE SMOOTH",
"19 325 OFFCURVE",
"50 264 OFFCURVE",
"168 223 CURVE SMOOTH",
"604 73 LINE SMOOTH",
"660 54 OFFCURVE",
"676 41 OFFCURVE",
"676 15 CURVE SMOOTH",
"676 -17 OFFCURVE",
"650 -35 OFFCURVE",
"610 -35 CURVE SMOOTH",
"570 -35 OFFCURVE",
"555 -18 OFFCURVE",
"535 -18 CURVE SMOOTH",
"522 -18 OFFCURVE",
"513 -34 OFFCURVE",
"513 -64 CURVE SMOOTH",
"513 -177 OFFCURVE",
"600 -272 OFFCURVE",
"743 -272 CURVE SMOOTH",
"873 -272 OFFCURVE",
"964 -183 OFFCURVE",
"964 -70 CURVE SMOOTH",
"964 45 OFFCURVE",
"883 110 OFFCURVE",
"744 158 CURVE SMOOTH",
"468 254 LINE SMOOTH",
"389 281 OFFCURVE",
"373 298 OFFCURVE",
"391 353 CURVE SMOOTH",
"513 733 LINE SMOOTH",
"519 750 OFFCURVE",
"521 766 OFFCURVE",
"521 779 CURVE SMOOTH",
"521 809 OFFCURVE",
"508 844 OFFCURVE",
"420 844 CURVE SMOOTH"
);
},
{
closed = 1;
nodes = (
"650 853 OFFCURVE",
"583 780 OFFCURVE",
"583 687 CURVE SMOOTH",
"583 670 OFFCURVE",
"589 652 OFFCURVE",
"600 652 CURVE SMOOTH",
"613 652 OFFCURVE",
"625 684 OFFCURVE",
"650 684 CURVE SMOOTH",
"666 684 OFFCURVE",
"675 668 OFFCURVE",
"675 634 CURVE SMOOTH",
"675 551 OFFCURVE",
"609 445 OFFCURVE",
"567 445 CURVE SMOOTH",
"537 445 OFFCURVE",
"531 478 OFFCURVE",
"515 478 CURVE SMOOTH",
"507 478 OFFCURVE",
"493 468 OFFCURVE",
"493 442 CURVE SMOOTH",
"493 326 OFFCURVE",
"583 254 OFFCURVE",
"716 254 CURVE SMOOTH",
"875 254 OFFCURVE",
"1026 374 OFFCURVE",
"1026 596 CURVE SMOOTH",
"1026 734 OFFCURVE",
"946 853 OFFCURVE",
"783 853 CURVE SMOOTH"
);
},
{
closed = 1;
nodes = (
"1336 844 OFFCURVE",
"1188 809 OFFCURVE",
"1164 733 CURVE SMOOTH",
"1052 379 LINE SMOOTH",
"1023 287 OFFCURVE",
"1010 234 OFFCURVE",
"1010 186 CURVE SMOOTH",
"1010 85 OFFCURVE",
"1069 -4 OFFCURVE",
"1229 -4 CURVE SMOOTH",
"1369 -4 OFFCURVE",
"1462 98 OFFCURVE",
"1462 184 CURVE SMOOTH",
"1462 202 OFFCURVE",
"1456 220 OFFCURVE",
"1445 220 CURVE SMOOTH",
"1432 220 OFFCURVE",
"1424 187 OFFCURVE",
"1394 187 CURVE SMOOTH",
"1376 187 OFFCURVE",
"1368 203 OFFCURVE",
"1376 229 CURVE SMOOTH",
"1530 733 LINE SMOOTH",
"1535 750 OFFCURVE",
"1538 766 OFFCURVE",
"1538 779 CURVE SMOOTH",
"1538 809 OFFCURVE",
"1525 844 OFFCURVE",
"1437 844 CURVE SMOOTH"
);
}
);
width = 1558;
}
);
rightMetricsKey = gjmAA;
unicode = 0AA3;
},
{
glyphname = gjTA;
lastChange = "2015-06-05 14:42:49 +0000";
layers = (
{
background = {
paths = (
{
closed = 1;
nodes = (
"835 821 OFFCURVE",
"917 844 OFFCURVE",
"990 844 CURVE SMOOTH",
"1073 844 OFFCURVE",
"1086 809 OFFCURVE",
"1086 779 CURVE SMOOTH",
"1086 766 OFFCURVE",
"1082 750 OFFCURVE",
"1077 733 CURVE SMOOTH",
"924 229 LINE",
"921 222 OFFCURVE",
"920 216 OFFCURVE",
"920 210 CURVE SMOOTH",
"920 196 OFFCURVE",
"929 187 OFFCURVE",
"942 187 CURVE SMOOTH",
"972 187 OFFCURVE",
"979 220 OFFCURVE",
"992 220 CURVE SMOOTH",
"1003 220 OFFCURVE",
"1009 202 OFFCURVE",
"1009 184 CURVE SMOOTH",
"1009 98 OFFCURVE",
"917 -4 OFFCURVE",
"776 -4 CURVE SMOOTH",
"617 -4 OFFCURVE",
"558 85 OFFCURVE",
"558 186 CURVE SMOOTH",
"558 224 OFFCURVE",
"567 276 OFFCURVE",
"600 379 CURVE SMOOTH",
"725 774 LINE"
);
},
{
closed = 1;
nodes = (
"608 659 OFFCURVE",
"720 630 OFFCURVE",
"819 576 CURVE",
"758 475 LINE",
"673 509 OFFCURVE",
"635 508 OFFCURVE",
"562 508 CURVE SMOOTH",
"469 508 OFFCURVE",
"371 464 OFFCURVE",
"371 338 CURVE SMOOTH",
"371 261 OFFCURVE",
"453 218 OFFCURVE",
"501 207 CURVE",
"488 77 OFFCURVE",
"397 -4 OFFCURVE",
"267 -4 CURVE SMOOTH",
"140 -4 OFFCURVE",
"15 78 OFFCURVE",
"15 258 CURVE SMOOTH",
"15 506 OFFCURVE",
"216 659 OFFCURVE",
"473 659 CURVE SMOOTH"
);
}
);
};
layerId = "FF8CB9F1-2B98-444C-A502-96421F2531A8";
rightMetricsKey = "pa-gujarati";
name = Bold;
paths = (
{
closed = 1;
nodes = (
"835 821 OFFCURVE",
"917 844 OFFCURVE",
"990 844 CURVE SMOOTH",
"1073 844 OFFCURVE",
"1086 809 OFFCURVE",
"1086 779 CURVE SMOOTH",
"1086 766 OFFCURVE",
"1082 750 OFFCURVE",
"1077 733 CURVE SMOOTH",
"924 229 LINE",
"921 222 OFFCURVE",
"920 216 OFFCURVE",
"920 210 CURVE SMOOTH",
"920 196 OFFCURVE",
"929 187 OFFCURVE",
"942 187 CURVE SMOOTH",
"972 187 OFFCURVE",
"979 220 OFFCURVE",
"992 220 CURVE SMOOTH",
"1003 220 OFFCURVE",
"1009 202 OFFCURVE",
"1009 184 CURVE SMOOTH",
"1009 98 OFFCURVE",
"917 -4 OFFCURVE",
"776 -4 CURVE SMOOTH",
"617 -4 OFFCURVE",
"558 85 OFFCURVE",
"558 186 CURVE SMOOTH",
"558 224 OFFCURVE",
"567 276 OFFCURVE",
"600 379 CURVE SMOOTH",
"725 774 LINE"
);
},
{
closed = 1;
nodes = (
"630 605 OFFCURVE",
"720 587 OFFCURVE",
"819 554 CURVE",
"758 457 LINE",
"673 491 OFFCURVE",
"695 478 OFFCURVE",
"622 478 CURVE SMOOTH",
"471 478 OFFCURVE",
"391 399 OFFCURVE",
"391 298 CURVE SMOOTH",
"391 251 OFFCURVE",
"410 219 OFFCURVE",
"437 219 CURVE SMOOTH",
"455 219 OFFCURVE",
"471 233 OFFCURVE",
"483 233 CURVE SMOOTH",
"494 233 OFFCURVE",
"491 226 OFFCURVE",
"491 198 CURVE SMOOTH",
"491 87 OFFCURVE",
"417 -4 OFFCURVE",
"287 -4 CURVE SMOOTH",
"160 -4 OFFCURVE",
"35 68 OFFCURVE",
"35 248 CURVE SMOOTH",
"35 496 OFFCURVE",
"276 605 OFFCURVE",
"533 605 CURVE SMOOTH"
);
}
);
width = 1106;
}
);
rightMetricsKey = "pa-gujarati";
unicode = 0AA4;
},
{
glyphname = gjTHA;
lastChange = "2015-06-05 14:42:49 +0000";
layers = (
{
layerId = "FF8CB9F1-2B98-444C-A502-96421F2531A8";
rightMetricsKey = "pa-gujarati";
name = Bold;
paths = (
{
closed = 1;
nodes = (
"733 379 LINE SMOOTH",
"703 286 OFFCURVE",
"691 234 OFFCURVE",
"691 186 CURVE SMOOTH",
"691 85 OFFCURVE",
"750 -4 OFFCURVE",
"909 -4 CURVE SMOOTH",
"1050 -4 OFFCURVE",
"1142 98 OFFCURVE",
"1142 184 CURVE SMOOTH",
"1142 202 OFFCURVE",
"1136 220 OFFCURVE",
"1125 220 CURVE SMOOTH",
"1112 220 OFFCURVE",
"1105 187 OFFCURVE",
"1075 187 CURVE SMOOTH",
"1062 187 OFFCURVE",
"1053 196 OFFCURVE",
"1053 210 CURVE SMOOTH",
"1053 216 OFFCURVE",
"1054 222 OFFCURVE",
"1057 229 CURVE",
"1210 733 LINE SMOOTH",
"1215 750 OFFCURVE",
"1219 766 OFFCURVE",
"1219 779 CURVE SMOOTH",
"1219 809 OFFCURVE",
"1206 844 OFFCURVE",
"1123 844 CURVE SMOOTH",
"1050 844 OFFCURVE",
"968 821 OFFCURVE",
"858 774 CURVE"
);
},
{
closed = 1;
nodes = (
"392 576 LINE",
"334 576 OFFCURVE",
"306 604 OFFCURVE",
"306 641 CURVE SMOOTH",
"306 670 OFFCURVE",
"327 691 OFFCURVE",
"347 691 CURVE SMOOTH",
"367 691 OFFCURVE",
"390 687 OFFCURVE",
"390 648 CURVE SMOOTH",
"390 582 OFFCURVE",
"352 567 OFFCURVE",
"260 518 CURVE SMOOTH",
"122 444 OFFCURVE",
"40 425 OFFCURVE",
"40 390 CURVE SMOOTH",
"40 241 OFFCURVE",
"259 115 OFFCURVE",
"423 115 CURVE SMOOTH",
"578 115 OFFCURVE",
"688 173 OFFCURVE",
"769 305 CURVE",
"760 462 LINE",
"724 349 OFFCURVE",
"637 297 OFFCURVE",
"527 297 CURVE SMOOTH",
"465 297 OFFCURVE",
"434 310 OFFCURVE",
"470 329 CURVE SMOOTH",
"549 370 LINE SMOOTH",
"648 421 OFFCURVE",
"708 490 OFFCURVE",
"708 617 CURVE SMOOTH",
"708 784 OFFCURVE",
"559 881 OFFCURVE",
"387 881 CURVE SMOOTH",
"208 881 OFFCURVE",
"96 796 OFFCURVE",
"96 685 CURVE SMOOTH",
"96 554 OFFCURVE",
"212 504 OFFCURVE",
"325 504 CURVE"
);
}
);
width = 1239;
}
);
rightMetricsKey = "pa-gujarati";
unicode = 0AA5;
},
{
glyphname = gjDA;
lastChange = "2015-06-05 14:42:49 +0000";
layers = (
{
layerId = "FF8CB9F1-2B98-444C-A502-96421F2531A8";
name = Bold;
paths = (
{
closed = 1;
nodes = (
"620 251 CURVE SMOOTH",
"620 286 OFFCURVE",
"613 301 OFFCURVE",
"600 301 CURVE SMOOTH",
"578 301 OFFCURVE",
"542 270 OFFCURVE",
"441 270 CURVE SMOOTH",
"375 270 OFFCURVE",
"333 298 OFFCURVE",
"333 350 CURVE SMOOTH",
"333 403 OFFCURVE",
"384 430 OFFCURVE",
"455 447 CURVE SMOOTH",
"523 464 OFFCURVE",
"570 475 OFFCURVE",
"570 495 CURVE SMOOTH",
"570 528 OFFCURVE",
"444 530 OFFCURVE",
"444 620 CURVE SMOOTH",
"444 661 OFFCURVE",
"460 686 OFFCURVE",
"490 686 CURVE SMOOTH",
"509 686 OFFCURVE",
"521 673 OFFCURVE",
"523 648 CURVE SMOOTH",
"525 628 OFFCURVE",
"527 624 OFFCURVE",
"537 624 CURVE SMOOTH",
"579 624 OFFCURVE",
"608 656 OFFCURVE",
"603 710 CURVE SMOOTH",
"597 782 OFFCURVE",
"532 846 OFFCURVE",
"402 846 CURVE SMOOTH",
"238 846 OFFCURVE",
"118 749 OFFCURVE",
"118 604 CURVE SMOOTH",
"118 524 OFFCURVE",
"173 462 OFFCURVE",
"276 443 CURVE",
"236 516 LINE",
"87 490 OFFCURVE",
"-7 402 OFFCURVE",
"-7 273 CURVE SMOOTH",
"-7 126 OFFCURVE",
"110 0 OFFCURVE",
"314 0 CURVE SMOOTH",
"479 0 OFFCURVE",
"620 128 OFFCURVE"
);
}
);
width = 659;
}
);
unicode = 0AA6;
},
{
glyphname = gjDHA;
lastChange = "2015-06-05 15:44:25 +0000";
layers = (
{
layerId = "FF8CB9F1-2B98-444C-A502-96421F2531A8";
leftMetricsKey = gjGHA;
rightMetricsKey = gjmAA;
name = Bold;
paths = (
{
closed = 1;
nodes = (
"632 379 LINE",
"602 287 OFFCURVE",
"590 234 OFFCURVE",
"590 186 CURVE SMOOTH",
"590 85 OFFCURVE",
"649 -4 OFFCURVE",
"809 -4 CURVE SMOOTH",
"949 -4 OFFCURVE",
"1042 98 OFFCURVE",
"1042 184 CURVE SMOOTH",
"1042 202 OFFCURVE",
"1036 220 OFFCURVE",
"1025 220 CURVE SMOOTH",
"1012 220 OFFCURVE",
"1004 187 OFFCURVE",
"974 187 CURVE SMOOTH",
"956 187 OFFCURVE",
"948 203 OFFCURVE",
"956 229 CURVE SMOOTH",
"1110 733 LINE SMOOTH",
"1115 750 OFFCURVE",
"1118 766 OFFCURVE",
"1118 779 CURVE SMOOTH",
"1118 809 OFFCURVE",
"1105 844 OFFCURVE",
"1022 844 CURVE SMOOTH",
"949 844 OFFCURVE",
"868 821 OFFCURVE",
"757 774 CURVE"
);
},
{
closed = 1;
nodes = (
"676 660 OFFCURVE",
"676 816 CURVE SMOOTH",
"676 945 OFFCURVE",
"545 999 OFFCURVE",
"481 999 CURVE SMOOTH",
"459 999 OFFCURVE",
"449 991 OFFCURVE",
"449 978 CURVE SMOOTH",
"449 957 OFFCURVE",
"466 951 OFFCURVE",
"466 925 CURVE SMOOTH",
"466 825 OFFCURVE",
"146 918 OFFCURVE",
"146 683 CURVE SMOOTH",
"146 587 OFFCURVE",
"211 492 OFFCURVE",
"304 458 CURVE",
"295 554 LINE",
"154 527 OFFCURVE",
"61 462 OFFCURVE",
"61 339 CURVE SMOOTH",
"61 224 OFFCURVE",
"157 138 OFFCURVE",
"315 138 CURVE SMOOTH",
"508 138 OFFCURVE",
"656 271 OFFCURVE",
"728 453 CURVE",
"681 530 LINE",
"647 421 OFFCURVE",
"588 336 OFFCURVE",
"488 336 CURVE SMOOTH",
"426 336 OFFCURVE",
"401 348 OFFCURVE",
"401 382 CURVE SMOOTH",
"401 494 OFFCURVE",
"598 470 OFFCURVE",
"598 525 CURVE SMOOTH",
"598 558 OFFCURVE",
"472 571 OFFCURVE",
"472 633 CURVE SMOOTH",
"472 709 OFFCURVE"
);
}
);
width = 1138;
}
);
leftMetricsKey = gjGHA;
rightMetricsKey = gjmAA;
unicode = 0AA7;
},
{
glyphname = gjNA;
lastChange = "2015-06-05 14:42:49 +0000";
layers = (
{
background = {
paths = (
{
closed = 1;
nodes = (
"484 359 CURVE",
"476 276 OFFCURVE",
"438 222 OFFCURVE",
"361 180 CURVE SMOOTH",
"258 122 OFFCURVE",
"146 159 OFFCURVE",
"83 275 CURVE SMOOTH",
"-12 445 OFFCURVE",
"55 605 OFFCURVE",
"194 682 CURVE SMOOTH",
"302 741 OFFCURVE",
"697 647 OFFCURVE",
"756 542 CURVE SMOOTH",
"768 520 OFFCURVE",
"765 506 OFFCURVE",
"758 503 CURVE SMOOTH",
"744 495 OFFCURVE",
"443 601 OFFCURVE",
"417 587 CURVE SMOOTH",
"379 567 OFFCURVE",
"357 511 OFFCURVE",
"397 439 CURVE SMOOTH",
"421 396 OFFCURVE",
"448 377 OFFCURVE"
);
}
);
};
layerId = "FF8CB9F1-2B98-444C-A502-96421F2531A8";
rightMetricsKey = "pa-gujarati";
name = Bold;
paths = (
{
closed = 1;
nodes = (
"754 821 OFFCURVE",
"836 844 OFFCURVE",
"909 844 CURVE SMOOTH",
"992 844 OFFCURVE",
"1005 809 OFFCURVE",
"1005 779 CURVE SMOOTH",
"1005 766 OFFCURVE",
"1001 750 OFFCURVE",
"996 733 CURVE SMOOTH",
"843 229 LINE",
"840 222 OFFCURVE",
"839 216 OFFCURVE",
"839 210 CURVE SMOOTH",
"839 196 OFFCURVE",
"848 187 OFFCURVE",
"861 187 CURVE SMOOTH",
"891 187 OFFCURVE",
"898 220 OFFCURVE",
"911 220 CURVE SMOOTH",
"922 220 OFFCURVE",
"928 202 OFFCURVE",
"928 184 CURVE SMOOTH",
"928 98 OFFCURVE",
"836 -4 OFFCURVE",
"695 -4 CURVE SMOOTH",
"536 -4 OFFCURVE",
"477 85 OFFCURVE",
"477 186 CURVE SMOOTH",
"477 224 OFFCURVE",
"486 276 OFFCURVE",
"519 379 CURVE SMOOTH",
"644 774 LINE"
);
},
{
closed = 1;
nodes = (
"481 699 OFFCURVE",
"572 623 OFFCURVE",
"679 512 CURVE",
"647 455 LINE",
"562 489 OFFCURVE",
"526 538 OFFCURVE",
"453 538 CURVE SMOOTH",
"407 538 OFFCURVE",
"366 527 OFFCURVE",
"366 482 CURVE SMOOTH",
"366 433 OFFCURVE",
"405 420 OFFCURVE",
"453 409 CURVE",
"440 279 OFFCURVE",
"349 198 OFFCURVE",
"219 198 CURVE SMOOTH",
"92 198 OFFCURVE",
"10 304 OFFCURVE",
"10 417 CURVE SMOOTH",
"10 582 OFFCURVE",
"136 699 OFFCURVE",
"318 699 CURVE SMOOTH"
);
}
);
width = 1025;
}
);
rightMetricsKey = "pa-gujarati";
unicode = 0AA8;
},
{
glyphname = gjPA;
lastChange = "2015-06-16 14:41:10 +0000";
layers = (
{
background = {
paths = (
{
closed = 1;
nodes = (
"496 814 OFFCURVE",
"425 894 OFFCURVE",
"273 894 CURVE SMOOTH",
"132 894 OFFCURVE",
"40 792 OFFCURVE",
"40 707 CURVE SMOOTH",
"40 689 OFFCURVE",
"46 671 OFFCURVE",
"57 671 CURVE SMOOTH",
"70 671 OFFCURVE",
"77 703 OFFCURVE",
"107 703 CURVE SMOOTH",
"120 703 OFFCURVE",
"129 695 OFFCURVE",
"129 679 CURVE SMOOTH",
"129 674 OFFCURVE",
"128 668 OFFCURVE",
"125 661 CURVE",
"74 506 LINE SMOOTH",
"58 458 OFFCURVE",
"48 413 OFFCURVE",
"48 372 CURVE SMOOTH",
"48 252 OFFCURVE",
"120 170 OFFCURVE",
"275 170 CURVE SMOOTH",
"413 170 OFFCURVE",
"507 240 OFFCURVE",
"573 329 CURVE",
"573 472 LINE",
"550 403 OFFCURVE",
"506 361 OFFCURVE",
"465 361 CURVE SMOOTH",
"425 361 OFFCURVE",
"410 382 OFFCURVE",
"410 408 CURVE SMOOTH",
"410 422 OFFCURVE",
"414 438 OFFCURVE",
"420 454 CURVE SMOOTH",
"470 580 LINE",
"486 624 OFFCURVE",
"496 661 OFFCURVE",
"496 709 CURVE SMOOTH"
);
}
);
};
components = (
{
name = gjmAA;
transform = "{1, 0, 0, 1, 481, 0}";
}
);
layerId = "FF8CB9F1-2B98-444C-A502-96421F2531A8";
name = Bold;
paths = (
{
closed = 1;
nodes = (
"474 757 OFFCURVE",
"406 837 OFFCURVE",
"254 837 CURVE SMOOTH",
"113 837 OFFCURVE",
"21 735 OFFCURVE",
"21 650 CURVE SMOOTH",
"21 632 OFFCURVE",
"27 614 OFFCURVE",
"38 614 CURVE SMOOTH",
"51 614 OFFCURVE",
"58 646 OFFCURVE",
"88 646 CURVE SMOOTH",
"101 646 OFFCURVE",
"110 638 OFFCURVE",
"110 622 CURVE SMOOTH",
"110 617 OFFCURVE",
"109 611 OFFCURVE",
"106 604 CURVE SMOOTH",
"74 506 LINE SMOOTH",
"59 459 OFFCURVE",
"48 413 OFFCURVE",
"48 372 CURVE SMOOTH",
"48 252 OFFCURVE",
"120 170 OFFCURVE",
"275 170 CURVE SMOOTH",
"413 170 OFFCURVE",
"507 240 OFFCURVE",
"573 329 CURVE",
"573 472 LINE",
"550 403 OFFCURVE",
"506 361 OFFCURVE",
"465 361 CURVE SMOOTH",
"425 361 OFFCURVE",
"410 382 OFFCURVE",
"410 408 CURVE SMOOTH",
"410 422 OFFCURVE",
"414 438 OFFCURVE",
"420 454 CURVE SMOOTH",
"448 523 LINE SMOOTH",
"466 567 OFFCURVE",
"474 604 OFFCURVE",
"474 652 CURVE SMOOTH"
);
}
);
width = 1049;
}
);
unicode = 0AAA;
},
{
glyphname = gjPHA;
lastChange = "2015-06-16 13:58:47 +0000";
layers = (
{
background = {
paths = (
{
closed = 1;
nodes = (
"336 -176 OFFCURVE",
"456 -298 OFFCURVE",
"644 -298 CURVE SMOOTH",
"752 -298 OFFCURVE",
"830 -243 OFFCURVE",
"830 -149 CURVE SMOOTH",
"830 -61 OFFCURVE",
"707 56 OFFCURVE",
"689 20 CURVE SMOOTH",
"678 -4 OFFCURVE",
"637 -69 OFFCURVE",
"597 -69 CURVE SMOOTH",
"554 -69 OFFCURVE",
"456 -50 OFFCURVE",
"384 34 CURVE",
"336 22 LINE"
);
}
);
};
components = (
{
name = gjKA;
transform = "{1, 0, 0, 1, 0, 0}";
}
);
layerId = "FF8CB9F1-2B98-444C-A502-96421F2531A8";
name = Bold;
paths = (
{
closed = 1;
nodes = (
"273 30 LINE",
"359 -199 OFFCURVE",
"480 -297 OFFCURVE",
"604 -297 CURVE SMOOTH",
"718 -297 OFFCURVE",
"789 -230 OFFCURVE",
"789 -121 CURVE SMOOTH",
"789 -37 OFFCURVE",
"742 15 OFFCURVE",
"722 15 CURVE SMOOTH",
"702 15 OFFCURVE",
"646 -52 OFFCURVE",
"556 -52 CURVE SMOOTH",
"466 -52 OFFCURVE",
"387 -15 OFFCURVE",
"326 44 CURVE"
);
}
);
width = 748;
}
);
unicode = 0AAB;
},
{
glyphname = gjBA;
lastChange = "2015-06-16 14:49:10 +0000";
layers = (
{
background = {
paths = (
{
closed = 1;
nodes = (
"890 379 LINE SMOOTH",
"860 285 OFFCURVE",
"848 234 OFFCURVE",
"848 186 CURVE SMOOTH",
"848 85 OFFCURVE",
"907 -4 OFFCURVE",
"1066 -4 CURVE SMOOTH",
"1207 -4 OFFCURVE",
"1299 98 OFFCURVE",
"1299 184 CURVE SMOOTH",
"1299 202 OFFCURVE",
"1293 220 OFFCURVE",
"1282 220 CURVE SMOOTH",
"1269 220 OFFCURVE",
"1262 187 OFFCURVE",
"1232 187 CURVE SMOOTH",
"1219 187 OFFCURVE",
"1210 196 OFFCURVE",
"1210 210 CURVE SMOOTH",
"1210 216 OFFCURVE",
"1211 222 OFFCURVE",
"1214 229 CURVE",
"1367 733 LINE SMOOTH",
"1372 750 OFFCURVE",
"1376 766 OFFCURVE",
"1376 779 CURVE SMOOTH",
"1376 809 OFFCURVE",
"1363 844 OFFCURVE",
"1280 844 CURVE SMOOTH",
"1207 844 OFFCURVE",
"1125 821 OFFCURVE",
"1015 774 CURVE"
);
},
{
closed = 1;
nodes = (
"687 379 LINE",
"760 320 OFFCURVE",
"855 287 OFFCURVE",
"946 287 CURVE",
"957 551 LINE",
"935 482 OFFCURVE",
"901 439 OFFCURVE",
"841 439 CURVE"
);
},
{
closed = 1;
nodes = (
"660 139 OFFCURVE",
"839 264 OFFCURVE",
"839 442 CURVE SMOOTH",
"839 549 OFFCURVE",
"753 630 OFFCURVE",
"636 630 CURVE SMOOTH",
"522 630 OFFCURVE",
"464 585 OFFCURVE",
"464 556 CURVE SMOOTH",
"464 526 OFFCURVE",
"498 517 OFFCURVE",
"498 441 CURVE SMOOTH",
"498 352 OFFCURVE",
"450 253 OFFCURVE",
"385 253 CURVE SMOOTH",
"324 253 OFFCURVE",
"316 400 OFFCURVE",
"356 529 CURVE SMOOTH",
"388 631 OFFCURVE",
"459 720 OFFCURVE",
"527 720 CURVE SMOOTH",
"571 720 OFFCURVE",
"584 717 OFFCURVE",
"590 737 CURVE SMOOTH",
"603 779 OFFCURVE",
"535 876 OFFCURVE",
"396 876 CURVE SMOOTH",
"144 876 OFFCURVE",
"-5 667 OFFCURVE",
"-5 473 CURVE SMOOTH",
"-5 259 OFFCURVE",
"164 139 OFFCURVE",
"431 139 CURVE SMOOTH"
);
}
);
};
components = (
{
name = gjmAA;
transform = "{1, 0, 0, 1, 828, 0}";
}
);
layerId = "FF8CB9F1-2B98-444C-A502-96421F2531A8";
name = Bold;
paths = (
{
closed = 1;
nodes = (
"675 379 LINE",
"748 320 OFFCURVE",
"843 287 OFFCURVE",
"934 287 CURVE",
"945 551 LINE",
"923 482 OFFCURVE",
"889 439 OFFCURVE",
"829 439 CURVE"
);
},
{
closed = 1;
nodes = (
"648 139 OFFCURVE",
"827 264 OFFCURVE",
"827 442 CURVE SMOOTH",
"827 549 OFFCURVE",
"741 630 OFFCURVE",
"624 630 CURVE SMOOTH",
"510 630 OFFCURVE",
"452 585 OFFCURVE",
"452 556 CURVE SMOOTH",
"452 526 OFFCURVE",
"486 517 OFFCURVE",
"486 441 CURVE SMOOTH",
"486 352 OFFCURVE",
"438 253 OFFCURVE",
"373 253 CURVE SMOOTH",
"312 253 OFFCURVE",
"304 400 OFFCURVE",
"344 529 CURVE SMOOTH",
"376 631 OFFCURVE",
"447 720 OFFCURVE",
"515 720 CURVE SMOOTH",
"559 720 OFFCURVE",
"572 717 OFFCURVE",
"578 737 CURVE SMOOTH",
"591 779 OFFCURVE",
"523 876 OFFCURVE",
"384 876 CURVE SMOOTH",
"132 876 OFFCURVE",
"-17 667 OFFCURVE",
"-17 473 CURVE SMOOTH",
"-17 259 OFFCURVE",
"152 139 OFFCURVE",
"419 139 CURVE SMOOTH"
);
}
);
width = 1396;
}
);
unicode = 0AAC;
},
{
glyphname = gjBHA;
lastChange = "2015-06-15 13:46:31 +0000";
layers = (
{
background = {
paths = (
{
closed = 1;
nodes = (
"275 864 OFFCURVE",
"48 561 OFFCURVE",
"48 315 CURVE SMOOTH",
"48 110 OFFCURVE",
"198 -12 OFFCURVE",
"394 -12 CURVE SMOOTH",
"630 -12 OFFCURVE",
"800 128 OFFCURVE",
"800 213 CURVE SMOOTH",
"800 237 OFFCURVE",
"781 249 OFFCURVE",
"757 249 CURVE SMOOTH",
"728 249 OFFCURVE",
"669 236 OFFCURVE",
"583 236 CURVE SMOOTH",
"457 236 OFFCURVE",
"344 308 OFFCURVE",
"344 430 CURVE SMOOTH",
"344 620 OFFCURVE",
"467 750 OFFCURVE",
"547 750 CURVE SMOOTH",
"595 750 OFFCURVE",
"582 716 OFFCURVE",
"569 672 CURVE SMOOTH",
"546 597 LINE",
"495 595 OFFCURVE",
"453 550 OFFCURVE",
"441 514 CURVE SMOOTH",
"413 427 OFFCURVE",
"570 337 OFFCURVE",
"698 337 CURVE SMOOTH",
"804 337 OFFCURVE",
"861 422 OFFCURVE",
"892 533 CURVE SMOOTH",
"948 732 OFFCURVE",
"820 864 OFFCURVE",
"587 864 CURVE"
);
},
{
closed = 1;
nodes = (
"942 379 LINE",
"912 287 OFFCURVE",
"900 234 OFFCURVE",
"900 186 CURVE SMOOTH",
"900 85 OFFCURVE",
"959 -4 OFFCURVE",
"1119 -4 CURVE SMOOTH",
"1259 -4 OFFCURVE",
"1352 98 OFFCURVE",
"1352 184 CURVE SMOOTH",
"1352 202 OFFCURVE",
"1346 220 OFFCURVE",
"1335 220 CURVE SMOOTH",
"1322 220 OFFCURVE",
"1314 187 OFFCURVE",
"1284 187 CURVE SMOOTH",
"1266 187 OFFCURVE",
"1258 203 OFFCURVE",
"1266 229 CURVE SMOOTH",
"1420 733 LINE SMOOTH",
"1425 750 OFFCURVE",
"1428 766 OFFCURVE",
"1428 779 CURVE SMOOTH",
"1428 809 OFFCURVE",
"1415 844 OFFCURVE",
"1332 844 CURVE SMOOTH",
"1259 844 OFFCURVE",
"1178 821 OFFCURVE",
"1067 774 CURVE"
);
},
{
closed = 1;
nodes = (
"761 476 LINE",
"1103 476 LINE",
"1103 598 LINE",
"761 598 LINE"
);
}
);
};
components = (
{
name = gjmAA;
transform = "{1, 0, 0, 1, 880, 0}";
}
);
guideLines = (
{
angle = 72.4397;
position = "{1507, 774}";
}
);
layerId = "FF8CB9F1-2B98-444C-A502-96421F2531A8";
rightMetricsKey = "pa-gujarati";
name = Bold;
paths = (
{
closed = 1;
nodes = (
"275 864 OFFCURVE",
"48 561 OFFCURVE",
"48 315 CURVE SMOOTH",
"48 110 OFFCURVE",
"198 -12 OFFCURVE",
"394 -12 CURVE SMOOTH",
"630 -12 OFFCURVE",
"800 128 OFFCURVE",
"800 213 CURVE SMOOTH",
"800 237 OFFCURVE",
"781 249 OFFCURVE",
"757 249 CURVE SMOOTH",
"728 249 OFFCURVE",
"669 236 OFFCURVE",
"583 236 CURVE SMOOTH",
"457 236 OFFCURVE",
"344 308 OFFCURVE",
"344 430 CURVE SMOOTH",
"344 620 OFFCURVE",
"467 750 OFFCURVE",
"547 750 CURVE SMOOTH",
"595 750 OFFCURVE",
"582 716 OFFCURVE",
"569 672 CURVE SMOOTH",
"546 597 LINE",
"495 595 OFFCURVE",
"453 550 OFFCURVE",
"441 514 CURVE SMOOTH",
"413 427 OFFCURVE",
"570 337 OFFCURVE",
"698 337 CURVE SMOOTH",
"804 337 OFFCURVE",
"861 422 OFFCURVE",
"892 533 CURVE SMOOTH",
"948 732 OFFCURVE",
"820 864 OFFCURVE",
"587 864 CURVE"
);
},
{
closed = 1;
nodes = (
"761 476 LINE",
"1103 476 LINE",
"1103 598 LINE",
"761 598 LINE"
);
}
);
width = 1418;
},
{
associatedMasterId = "FF8CB9F1-2B98-444C-A502-96421F2531A8";
background = {
paths = (
{
closed = 1;
nodes = (
"792 379 LINE",
"762 287 OFFCURVE",
"750 234 OFFCURVE",
"750 186 CURVE SMOOTH",
"750 85 OFFCURVE",
"809 -4 OFFCURVE",
"969 -4 CURVE SMOOTH",
"1109 -4 OFFCURVE",
"1202 98 OFFCURVE",
"1202 184 CURVE SMOOTH",
"1202 202 OFFCURVE",
"1196 220 OFFCURVE",
"1185 220 CURVE SMOOTH",
"1172 220 OFFCURVE",
"1164 187 OFFCURVE",
"1134 187 CURVE SMOOTH",
"1116 187 OFFCURVE",
"1108 203 OFFCURVE",
"1116 229 CURVE SMOOTH",
"1270 733 LINE SMOOTH",
"1275 750 OFFCURVE",
"1278 766 OFFCURVE",
"1278 779 CURVE SMOOTH",
"1278 809 OFFCURVE",
"1265 844 OFFCURVE",
"1182 844 CURVE SMOOTH",
"1109 844 OFFCURVE",
"1028 821 OFFCURVE",
"917 774 CURVE"
);
},
{
closed = 1;
nodes = (
"579 322 LINE",
"921 322 LINE",
"921 444 LINE",
"579 444 LINE"
);
},
{
closed = 1;
nodes = (
"227 853 OFFCURVE",
"-11 630 OFFCURVE",
"-11 349 CURVE SMOOTH",
"-11 89 OFFCURVE",
"328 -58 OFFCURVE",
"328 30 CURVE SMOOTH",
"328 88 OFFCURVE",
"147 131 OFFCURVE",
"147 320 CURVE SMOOTH",
"147 500 OFFCURVE",
"287 632 OFFCURVE",
"378 632 CURVE SMOOTH",
"391 632 OFFCURVE",
"405 623 OFFCURVE",
"400 608 CURVE SMOOTH",
"347 444 LINE",
"328 444 LINE SMOOTH",
"278 444 OFFCURVE",
"247 426 OFFCURVE",
"247 355 CURVE SMOOTH",
"247 236 OFFCURVE",
"383 133 OFFCURVE",
"495 133 CURVE SMOOTH",
"584 133 OFFCURVE",
"631 176 OFFCURVE",
"661 275 CURVE SMOOTH",
"751 569 LINE SMOOTH",
"796 716 OFFCURVE",
"747 853 OFFCURVE",
"523 853 CURVE SMOOTH"
);
}
);
};
backgroundImage = {
crop = "{{0, 0}, {720, 636}}";
imagePath = ../../Pashu/Gujarati/Reference/Pashu_BHA.png;
locked = 1;
transform = "{1.900, 0, 0, 1.900, -100, -154}";
};
layerId = "2223BC3A-F2DD-41D4-8DA3-4DB00D5535B6";
rightMetricsKey = "pa-gujarati";
name = "Regular May 28 15, 16:49";
paths = (
{
closed = 1;
nodes = (
"792 379 LINE",
"762 287 OFFCURVE",
"750 234 OFFCURVE",
"750 186 CURVE SMOOTH",
"750 85 OFFCURVE",
"809 -4 OFFCURVE",
"969 -4 CURVE SMOOTH",
"1109 -4 OFFCURVE",
"1202 98 OFFCURVE",
"1202 184 CURVE SMOOTH",
"1202 202 OFFCURVE",
"1196 220 OFFCURVE",
"1185 220 CURVE SMOOTH",
"1172 220 OFFCURVE",
"1164 187 OFFCURVE",
"1134 187 CURVE SMOOTH",
"1116 187 OFFCURVE",
"1108 203 OFFCURVE",
"1116 229 CURVE SMOOTH",
"1270 733 LINE SMOOTH",
"1275 750 OFFCURVE",
"1278 766 OFFCURVE",
"1278 779 CURVE SMOOTH",
"1278 809 OFFCURVE",
"1265 844 OFFCURVE",
"1182 844 CURVE SMOOTH",
"1109 844 OFFCURVE",
"1028 821 OFFCURVE",
"917 774 CURVE"
);
},
{
closed = 1;
nodes = (
"579 322 LINE",
"921 322 LINE",
"921 444 LINE",
"579 444 LINE"
);
},
{
closed = 1;
nodes = (
"214 853 OFFCURVE",
"-11 658 OFFCURVE",
"-11 366 CURVE SMOOTH",
"-11 112 OFFCURVE",
"150 8 OFFCURVE",
"289 8 CURVE SMOOTH",
"341 8 OFFCURVE",
"378 18 OFFCURVE",
"378 42 CURVE SMOOTH",
"378 84 OFFCURVE",
"177 89 OFFCURVE",
"177 340 CURVE SMOOTH",
"177 520 OFFCURVE",
"282 615 OFFCURVE",
"373 615 CURVE SMOOTH",
"386 615 OFFCURVE",
"400 606 OFFCURVE",
"395 591 CURVE SMOOTH",
"347 444 LINE",
"328 444 LINE SMOOTH",
"278 444 OFFCURVE",
"247 426 OFFCURVE",
"247 355 CURVE SMOOTH",
"247 236 OFFCURVE",
"383 133 OFFCURVE",
"495 133 CURVE SMOOTH",
"584 133 OFFCURVE",
"630 175 OFFCURVE",
"661 275 CURVE SMOOTH",
"751 569 LINE SMOOTH",
"796 715 OFFCURVE",
"747 853 OFFCURVE",
"523 853 CURVE SMOOTH"
);
}
);
width = 1298;
}
);
rightMetricsKey = "pa-gujarati";
unicode = 0AAD;
},
{
glyphname = gjMA;
lastChange = "2015-06-15 13:46:18 +0000";
layers = (
{
background = {
paths = (
{
closed = 1;
nodes = (
"562 379 LINE",
"532 287 OFFCURVE",
"520 234 OFFCURVE",
"520 186 CURVE SMOOTH",
"520 85 OFFCURVE",
"579 -4 OFFCURVE",
"739 -4 CURVE SMOOTH",
"879 -4 OFFCURVE",
"972 98 OFFCURVE",
"972 184 CURVE SMOOTH",
"972 202 OFFCURVE",
"966 220 OFFCURVE",
"955 220 CURVE SMOOTH",
"942 220 OFFCURVE",
"934 187 OFFCURVE",
"904 187 CURVE SMOOTH",
"886 187 OFFCURVE",
"878 203 OFFCURVE",
"886 229 CURVE SMOOTH",
"1040 733 LINE SMOOTH",
"1045 750 OFFCURVE",
"1048 766 OFFCURVE",
"1048 779 CURVE SMOOTH",
"1048 809 OFFCURVE",
"1035 844 OFFCURVE",
"952 844 CURVE SMOOTH",
"879 844 OFFCURVE",
"798 821 OFFCURVE",
"687 774 CURVE"
);
}
);
};
components = (
{
name = gjmAA;
transform = "{1, 0, 0, 1, 500, 0}";
}
);
layerId = "FF8CB9F1-2B98-444C-A502-96421F2531A8";
rightMetricsKey = "pa-gujarati";
name = Bold;
paths = (
{
closed = 1;
nodes = (
"335 279 LINE",
"677 279 LINE",
"677 401 LINE",
"335 401 LINE"
);
},
{
closed = 1;
nodes = (
"152 853 OFFCURVE",
"93 773 OFFCURVE",
"93 688 CURVE SMOOTH",
"93 670 OFFCURVE",
"99 652 OFFCURVE",
"110 652 CURVE SMOOTH",
"123 652 OFFCURVE",
"130 684 OFFCURVE",
"160 684 CURVE SMOOTH",
"173 684 OFFCURVE",
"187 675 OFFCURVE",
"182 660 CURVE SMOOTH",
"103.002 401 LINE",
"84 401 LINE SMOOTH",
"34 401 OFFCURVE",
"3 383 OFFCURVE",
"3 312 CURVE SMOOTH",
"3 193 OFFCURVE",
"139 90 OFFCURVE",
"251 90 CURVE SMOOTH",
"340 90 OFFCURVE",
"386 133 OFFCURVE",
"417 232 CURVE SMOOTH",
"521 569 LINE SMOOTH",
"583 769 OFFCURVE",
"429 853 OFFCURVE",
"293 853 CURVE SMOOTH"
);
}
);
width = 1068;
}
);
rightMetricsKey = "pa-gujarati";
unicode = 0AAE;
},
{
glyphname = gjYA;
lastChange = "2015-06-05 15:43:25 +0000";
layers = (
{
background = {
paths = (
{
closed = 1;
nodes = (
"187 780 OFFCURVE",
"239 799 OFFCURVE",
"239 753 CURVE SMOOTH",
"239 685 OFFCURVE",
"-15 585 OFFCURVE",
"-15 465 CURVE SMOOTH",
"-15 325 OFFCURVE",
"169 139 OFFCURVE",
"329 139 CURVE SMOOTH",
"490 139 OFFCURVE",
"624 254 OFFCURVE",
"678 418 CURVE",
"648 539 LINE",
"595 372 OFFCURVE",
"484 293 OFFCURVE",
"370 293 CURVE SMOOTH",
"333 293 OFFCURVE",
"312 301 OFFCURVE",
"312 320 CURVE SMOOTH",
"312 386 OFFCURVE",
"575 436 OFFCURVE",
"575 644 CURVE SMOOTH",
"575 776 OFFCURVE",
"450 880 OFFCURVE",
"322 880 CURVE SMOOTH",
"239 880 OFFCURVE",
"187 845 OFFCURVE",
"187 812 CURVE SMOOTH"
);
}
);
};
components = (
{
name = gjmAA;
transform = "{1, 0, 0, 1, 535, 0}";
}
);
guideLines = (
{
angle = 21.7185;
position = "{-2, 592}";
}
);
layerId = "FF8CB9F1-2B98-444C-A502-96421F2531A8";
rightMetricsKey = gjmAA;
name = Bold;
paths = (
{
closed = 1;
nodes = (
"248 809 OFFCURVE",
"300 810 OFFCURVE",
"300 782 CURVE SMOOTH",
"300 672 OFFCURVE",
"-15 679 OFFCURVE",
"-15 500 CURVE SMOOTH",
"-15 318 OFFCURVE",
"169 139 OFFCURVE",
"329 139 CURVE SMOOTH",
"490 139 OFFCURVE",
"624 254 OFFCURVE",
"678 418 CURVE",
"648 539 LINE",
"595 372 OFFCURVE",
"484 293 OFFCURVE",
"403 293 CURVE SMOOTH",
"347 293 OFFCURVE",
"312 347 OFFCURVE",
"312 385 CURVE SMOOTH",
"312 445 OFFCURVE",
"575 430 OFFCURVE",
"575 665 CURVE SMOOTH",
"575 789 OFFCURVE",
"461 879 OFFCURVE",
"342 879 CURVE SMOOTH",
"290 879 OFFCURVE",
"248 856 OFFCURVE",
"248 834 CURVE SMOOTH"
);
}
);
width = 1029;
}
);
rightMetricsKey = gjmAA;
unicode = 0AAF;
},
{
glyphname = gjRA;
lastChange = "2015-06-16 14:49:02 +0000";
layers = (
{
associatedMasterId = "FF8CB9F1-2B98-444C-A502-96421F2531A8";
background = {
components = (
{
name = gjSHA;
transform = "{1, 0, 0, 1, 0, 0}";
}
);
};
layerId = "F6C2AD41-AE80-4BA1-B765-4DFB865920DE";
name = "Bold Jun 16 15, 15:48";
paths = (
{
closed = 1;
nodes = (
"407 268 LINE",
"513 102 OFFCURVE",
"731 -38 OFFCURVE",
"853 -38 CURVE SMOOTH",
"916 -38 OFFCURVE",
"952 10 OFFCURVE",
"970 10 CURVE SMOOTH",
"985 10 OFFCURVE",
"1002 -47 OFFCURVE",
"1002 -101 CURVE SMOOTH",
"1002 -223 OFFCURVE",
"947 -331 OFFCURVE",
"767 -331 CURVE SMOOTH",
"559 -331 OFFCURVE",
"410 -94 OFFCURVE",
"295 245 CURVE"
);
},
{
closed = 1;
nodes = (
"12 372 OFFCURVE",
"67 474 OFFCURVE",
"203 406 CURVE",
"303 485 OFFCURVE",
"349 553 OFFCURVE",
"349 642 CURVE SMOOTH",
"349 678 OFFCURVE",
"340 684 OFFCURVE",
"327 684 CURVE SMOOTH",
"297 684 OFFCURVE",
"290 652 OFFCURVE",
"277 652 CURVE SMOOTH",
"266 652 OFFCURVE",
"260 670 OFFCURVE",
"260 688 CURVE SMOOTH",
"260 773 OFFCURVE",
"319 853 OFFCURVE",
"460 853 CURVE SMOOTH",
"596 853 OFFCURVE",
"698 746 OFFCURVE",
"698 621 CURVE SMOOTH",
"698 418 OFFCURVE",
"440 67 OFFCURVE",
"225 67 CURVE SMOOTH",
"127 67 OFFCURVE",
"12 132 OFFCURVE",
"12 267 CURVE SMOOTH"
);
}
);
width = 651;
},
{
layerId = "FF8CB9F1-2B98-444C-A502-96421F2531A8";
name = Bold;
paths = (
{
closed = 1;
nodes = (
"275 343 LINE",
"347 274 OFFCURVE",
"428 231 OFFCURVE",
"510 231 CURVE SMOOTH",
"592 231 OFFCURVE",
"590 258 OFFCURVE",
"608 258 CURVE SMOOTH",
"623 258 OFFCURVE",
"640 222 OFFCURVE",
"640 168 CURVE SMOOTH",
"640 46 OFFCURVE",
"548 -12 OFFCURVE",
"457 -12 CURVE SMOOTH",
"326 -12 OFFCURVE",
"210 104 OFFCURVE",
"193 327 CURVE"
);
},
{
closed = 1;
nodes = (
"-10 505 OFFCURVE",
"45 607 OFFCURVE",
"181 539 CURVE",
"219 569 OFFCURVE",
"239 615 OFFCURVE",
"239 660 CURVE SMOOTH",
"239 676 OFFCURVE",
"230 684 OFFCURVE",
"217 684 CURVE SMOOTH",
"187 684 OFFCURVE",
"180 652 OFFCURVE",
"167 652 CURVE SMOOTH",
"156 652 OFFCURVE",
"150 670 OFFCURVE",
"150 688 CURVE SMOOTH",
"150 773 OFFCURVE",
"209 853 OFFCURVE",
"350 853 CURVE SMOOTH",
"486 853 OFFCURVE",
"588 781 OFFCURVE",
"588 656 CURVE SMOOTH",
"588 453 OFFCURVE",
"418 200 OFFCURVE",
"203 200 CURVE SMOOTH",
"105 200 OFFCURVE",
"-10 265 OFFCURVE",
"-10 400 CURVE SMOOTH"
);
}
);
width = 650;
}
);
unicode = 0AB0;
},
{
glyphname = gjLA;
lastChange = "2015-06-05 16:26:17 +0000";
layers = (
{
background = {
paths = (
{
closed = 1;
nodes = (
"1290 733 LINE SMOOTH",
"1295 750 OFFCURVE",
"1298 766 OFFCURVE",
"1298 779 CURVE SMOOTH",
"1298 809 OFFCURVE",
"1285 844 OFFCURVE",
"1197 844 CURVE SMOOTH",
"987 844 OFFCURVE",
"808 645 OFFCURVE",
"684 645 CURVE SMOOTH",
"630 645 OFFCURVE",
"647 732 OFFCURVE",
"622 732 CURVE SMOOTH",
"568 732 OFFCURVE",
"474 633 OFFCURVE",
"474 522 CURVE SMOOTH",
"474 458 OFFCURVE",
"534 382 OFFCURVE",
"637 382 CURVE SMOOTH",
"737 382 OFFCURVE",
"898 525 OFFCURVE",
"984 710 CURVE",
"1037 630 LINE",
"856 577 OFFCURVE",
"770 309 OFFCURVE",
"770 186 CURVE SMOOTH",
"770 85 OFFCURVE",
"829 -4 OFFCURVE",
"989 -4 CURVE SMOOTH",
"1129 -4 OFFCURVE",
"1222 98 OFFCURVE",
"1222 184 CURVE SMOOTH",
"1222 202 OFFCURVE",
"1216 220 OFFCURVE",
"1205 220 CURVE SMOOTH",
"1192 220 OFFCURVE",
"1184 187 OFFCURVE",
"1154 187 CURVE SMOOTH",
"1136 187 OFFCURVE",
"1128 203 OFFCURVE",
"1136 229 CURVE SMOOTH"
);
},
{
closed = 1;
nodes = (
"547 860 OFFCURVE",
"530 800 OFFCURVE",
"489 772 CURVE SMOOTH",
"419 724 OFFCURVE",
"351 636 OFFCURVE",
"351 500 CURVE SMOOTH",
"351 394 OFFCURVE",
"457 288 OFFCURVE",
"539 288 CURVE SMOOTH",
"625 288 OFFCURVE",
"632 285 OFFCURVE",
"637 255 CURVE SMOOTH",
"641 228 OFFCURVE",
"548 139 OFFCURVE",
"371 139 CURVE SMOOTH",
"146 139 OFFCURVE",
"30 250 OFFCURVE",
"30 397 CURVE SMOOTH",
"30 676 OFFCURVE",
"243 860 OFFCURVE",
"423 860 CURVE"
);
},
{
closed = 1;
nodes = (
"1117 500 OFFCURVE",
"1175 558 OFFCURVE",
"1175 630 CURVE SMOOTH",
"1175 702 OFFCURVE",
"1117 761 OFFCURVE",
"1045 761 CURVE SMOOTH",
"973 761 OFFCURVE",
"914 702 OFFCURVE",
"914 630 CURVE SMOOTH",
"914 558 OFFCURVE",
"973 500 OFFCURVE",
"1045 500 CURVE SMOOTH"
);
}
);
};
layerId = "FF8CB9F1-2B98-444C-A502-96421F2531A8";
rightMetricsKey = gjmAA;
name = Bold;
paths = (
{
closed = 1;
nodes = (
"547 860 OFFCURVE",
"530 800 OFFCURVE",
"489 772 CURVE SMOOTH",
"419 724 OFFCURVE",
"351 636 OFFCURVE",
"351 500 CURVE SMOOTH",
"351 394 OFFCURVE",
"457 288 OFFCURVE",
"539 288 CURVE SMOOTH",
"625 288 OFFCURVE",
"632 285 OFFCURVE",
"637 255 CURVE SMOOTH",
"641 228 OFFCURVE",
"548 139 OFFCURVE",
"371 139 CURVE SMOOTH",
"146 139 OFFCURVE",
"30 250 OFFCURVE",
"30 397 CURVE SMOOTH",
"30 676 OFFCURVE",
"243 860 OFFCURVE",
"423 860 CURVE"
);
},
{
closed = 1;
nodes = (
"1290 733 LINE SMOOTH",
"1295 750 OFFCURVE",
"1298 766 OFFCURVE",
"1298 779 CURVE SMOOTH",
"1298 809 OFFCURVE",
"1285 844 OFFCURVE",
"1197 844 CURVE SMOOTH",
"987 844 OFFCURVE",
"808 645 OFFCURVE",
"684 645 CURVE SMOOTH",
"630 645 OFFCURVE",
"647 732 OFFCURVE",
"622 732 CURVE SMOOTH",
"568 732 OFFCURVE",
"474 633 OFFCURVE",
"474 522 CURVE SMOOTH",
"474 458 OFFCURVE",
"516 382 OFFCURVE",
"619 382 CURVE SMOOTH",
"789 382 OFFCURVE",
"888 596 OFFCURVE",
"919 596 CURVE SMOOTH",
"926 596 OFFCURVE",
"930 591 OFFCURVE",
"930 584 CURVE SMOOTH",
"930 542 OFFCURVE",
"770 440 OFFCURVE",
"770 186 CURVE SMOOTH",
"770 85 OFFCURVE",
"829 -4 OFFCURVE",
"989 -4 CURVE SMOOTH",
"1129 -4 OFFCURVE",
"1222 98 OFFCURVE",
"1222 184 CURVE SMOOTH",
"1222 202 OFFCURVE",
"1216 220 OFFCURVE",
"1205 220 CURVE SMOOTH",
"1192 220 OFFCURVE",
"1184 187 OFFCURVE",
"1154 187 CURVE SMOOTH",
"1136 187 OFFCURVE",
"1128 203 OFFCURVE",
"1136 229 CURVE SMOOTH"
);
}
);
width = 1318;
},
{
associatedMasterId = "FF8CB9F1-2B98-444C-A502-96421F2531A8";
layerId = "AE03CC97-80FF-430D-B7EC-5DE04678B019";
rightMetricsKey = gjmAA;
name = "Bold Jun 5 15, 17:17";
paths = (
{
closed = 1;
nodes = (
"531 724 OFFCURVE",
"501 779 OFFCURVE",
"447 779 CURVE SMOOTH",
"387 779 OFFCURVE",
"281 659 OFFCURVE",
"281 500 CURVE SMOOTH",
"281 394 OFFCURVE",
"387 288 OFFCURVE",
"469 288 CURVE SMOOTH",
"551 288 OFFCURVE",
"530 263 OFFCURVE",
"562 292 CURVE SMOOTH",
"583 311 OFFCURVE",
"600 303 OFFCURVE",
"604 276 CURVE SMOOTH",
"608 249 OFFCURVE",
"465 139 OFFCURVE",
"288 139 CURVE SMOOTH",
"111 139 OFFCURVE",
"-42 250 OFFCURVE",
"-42 397 CURVE SMOOTH",
"-42 639 OFFCURVE",
"228 871 OFFCURVE",
"478 871 CURVE SMOOTH",
"548 871 OFFCURVE",
"634 818 OFFCURVE",
"634 783 CURVE SMOOTH",
"634 748 OFFCURVE",
"582 724 OFFCURVE",
"563 724 CURVE SMOOTH"
);
},
{
closed = 1;
nodes = (
"1179 733 LINE SMOOTH",
"1184 750 OFFCURVE",
"1187 766 OFFCURVE",
"1187 779 CURVE SMOOTH",
"1187 809 OFFCURVE",
"1174 844 OFFCURVE",
"1086 844 CURVE SMOOTH",
"858 844 OFFCURVE",
"682 624 OFFCURVE",
"527 624 CURVE SMOOTH",
"473 624 OFFCURVE",
"506 680 OFFCURVE",
"481 680 CURVE SMOOTH",
"427 680 OFFCURVE",
"363 586 OFFCURVE",
"363 522 CURVE SMOOTH",
"363 458 OFFCURVE",
"404 370 OFFCURVE",
"515 370 CURVE SMOOTH",
"592 370 OFFCURVE",
"700 500 OFFCURVE",
"840 603 CURVE",
"719 444 OFFCURVE",
"659 321 OFFCURVE",
"659 186 CURVE SMOOTH",
"659 85 OFFCURVE",
"718 -4 OFFCURVE",
"878 -4 CURVE SMOOTH",
"1018 -4 OFFCURVE",
"1111 98 OFFCURVE",
"1111 184 CURVE SMOOTH",
"1111 202 OFFCURVE",
"1105 220 OFFCURVE",
"1094 220 CURVE SMOOTH",
"1081 220 OFFCURVE",
"1073 187 OFFCURVE",
"1043 187 CURVE SMOOTH",
"1025 187 OFFCURVE",
"1017 203 OFFCURVE",
"1025 229 CURVE SMOOTH"
);
}
);
width = 1207;
}
);
rightMetricsKey = gjmAA;
unicode = 0AB2;
},
{
glyphname = gjLLA;
lastChange = "2015-06-15 13:05:39 +0000";
layers = (
{
background = {
paths = (
{
closed = 1;
nodes = (
"149 876 OFFCURVE",
"5 700 OFFCURVE",
"5 477 CURVE SMOOTH",
"5 280 OFFCURVE",
"158 170 OFFCURVE",
"325 170 CURVE SMOOTH",
"469 170 OFFCURVE",
"553 236 OFFCURVE",
"619 374 CURVE SMOOTH",
"705 556 LINE SMOOTH",
"736 624 OFFCURVE",
"764 640 OFFCURVE",
"795 640 CURVE SMOOTH",
"838 640 OFFCURVE",
"864 602 OFFCURVE",
"837 521 CURVE SMOOTH",
"791 379 LINE SMOOTH",
"761 287 OFFCURVE",
"749 234 OFFCURVE",
"749 186 CURVE SMOOTH",
"749 85 OFFCURVE",
"808 -4 OFFCURVE",
"968 -4 CURVE SMOOTH",
"1108 -4 OFFCURVE",
"1201 98 OFFCURVE",
"1201 184 CURVE SMOOTH",
"1201 202 OFFCURVE",
"1195 220 OFFCURVE",
"1184 220 CURVE SMOOTH",
"1171 220 OFFCURVE",
"1163 187 OFFCURVE",
"1133 187 CURVE SMOOTH",
"1115 187 OFFCURVE",
"1107 202 OFFCURVE",
"1115 229 CURVE SMOOTH",
"1185 470 LINE SMOOTH",
"1254 709 OFFCURVE",
"1107 838 OFFCURVE",
"916 838 CURVE SMOOTH",
"787 838 OFFCURVE",
"683 789 OFFCURVE",
"601 620 CURVE SMOOTH",
"529 471 LINE SMOOTH",
"494 399 OFFCURVE",
"464 368 OFFCURVE",
"425 368 CURVE SMOOTH",
"364 368 OFFCURVE",
"331 432 OFFCURVE",
"371 561 CURVE SMOOTH",
"403 663 OFFCURVE",
"459 720 OFFCURVE",
"527 720 CURVE SMOOTH",
"571 720 OFFCURVE",
"584 717 OFFCURVE",
"590 737 CURVE SMOOTH",
"603 779 OFFCURVE",
"543 876 OFFCURVE",
"371 876 CURVE SMOOTH"
);
}
);
};
guideLines = (
{
angle = 64.4659;
position = "{694, 816}";
}
);
layerId = "FF8CB9F1-2B98-444C-A502-96421F2531A8";
name = Bold;
paths = (
{
closed = 1;
nodes = (
"139 876 OFFCURVE",
"5 700 OFFCURVE",
"5 477 CURVE SMOOTH",
"5 270 OFFCURVE",
"158 170 OFFCURVE",
"325 170 CURVE SMOOTH",
"469 170 OFFCURVE",
"553 236 OFFCURVE",
"619 374 CURVE SMOOTH",
"705 556 LINE SMOOTH",
"736 624 OFFCURVE",
"764 640 OFFCURVE",
"795 640 CURVE SMOOTH",
"838 640 OFFCURVE",
"864 602 OFFCURVE",
"837 521 CURVE SMOOTH",
"791 379 LINE SMOOTH",
"761 287 OFFCURVE",
"749 234 OFFCURVE",
"749 186 CURVE SMOOTH",
"749 85 OFFCURVE",
"808 -4 OFFCURVE",
"968 -4 CURVE SMOOTH",
"1108 -4 OFFCURVE",
"1201 98 OFFCURVE",
"1201 184 CURVE SMOOTH",
"1201 202 OFFCURVE",
"1195 220 OFFCURVE",
"1184 220 CURVE SMOOTH",
"1171 220 OFFCURVE",
"1163 187 OFFCURVE",
"1133 187 CURVE SMOOTH",
"1115 187 OFFCURVE",
"1107 202 OFFCURVE",
"1115 229 CURVE SMOOTH",
"1185 470 LINE SMOOTH",
"1254 709 OFFCURVE",
"1107 838 OFFCURVE",
"916 838 CURVE SMOOTH",
"787 838 OFFCURVE",
"683 789 OFFCURVE",
"601 620 CURVE SMOOTH",
"529 471 LINE SMOOTH",
"494 399 OFFCURVE",
"464 368 OFFCURVE",
"425 368 CURVE SMOOTH",
"382 368 OFFCURVE",
"353 399 OFFCURVE",
"353 462 CURVE SMOOTH",
"353 586 OFFCURVE",
"427 712 OFFCURVE",
"551 720 CURVE SMOOTH",
"581 722 OFFCURVE",
"592 730 OFFCURVE",
"592 751 CURVE SMOOTH",
"592 791 OFFCURVE",
"517 876 OFFCURVE",
"371 876 CURVE SMOOTH"
);
}
);
width = 1198;
}
);
unicode = 0AB3;
},
{
glyphname = gjVA;
lastChange = "2015-06-05 14:42:49 +0000";
layers = (
{
background = {
paths = (
{
closed = 1;
nodes = (
"383 279 OFFCURVE",
"461 357 OFFCURVE",
"461 454 CURVE SMOOTH",
"461 550 OFFCURVE",
"383 629 OFFCURVE",
"286 629 CURVE SMOOTH",
"189 629 OFFCURVE",
"111 550 OFFCURVE",
"111 454 CURVE SMOOTH",
"111 357 OFFCURVE",
"189 279 OFFCURVE",
"286 279 CURVE SMOOTH"
);
},
{
closed = 1;
nodes = (
"398 159 OFFCURVE",
"476 237 OFFCURVE",
"476 334 CURVE SMOOTH",
"476 430 OFFCURVE",
"398 509 OFFCURVE",
"301 509 CURVE SMOOTH",
"204 509 OFFCURVE",
"126 430 OFFCURVE",
"126 334 CURVE SMOOTH",
"126 237 OFFCURVE",
"204 159 OFFCURVE",
"301 159 CURVE SMOOTH"
);
},
{
closed = 1;
nodes = (
"409 416 OFFCURVE",
"487 494 OFFCURVE",
"487 591 CURVE SMOOTH",
"487 687 OFFCURVE",
"409 766 OFFCURVE",
"312 766 CURVE SMOOTH",
"215 766 OFFCURVE",
"137 687 OFFCURVE",
"137 591 CURVE SMOOTH",
"137 494 OFFCURVE",
"215 416 OFFCURVE",
"312 416 CURVE SMOOTH"
);
},
{
closed = 1;
nodes = (
"489 560 OFFCURVE",
"567 638 OFFCURVE",
"567 735 CURVE SMOOTH",
"567 831 OFFCURVE",
"489 910 OFFCURVE",
"392 910 CURVE SMOOTH",
"295 910 OFFCURVE",
"217 831 OFFCURVE",
"217 735 CURVE SMOOTH",
"217 638 OFFCURVE",
"295 560 OFFCURVE",
"392 560 CURVE SMOOTH"
);
}
);
};
layerId = "FF8CB9F1-2B98-444C-A502-96421F2531A8";
rightMetricsKey = gjmAA;
name = Bold;
paths = (
{
closed = 1;
nodes = (
"632 379 LINE",
"602 287 OFFCURVE",
"590 234 OFFCURVE",
"590 186 CURVE SMOOTH",
"590 85 OFFCURVE",
"649 -4 OFFCURVE",
"809 -4 CURVE SMOOTH",
"949 -4 OFFCURVE",
"1042 98 OFFCURVE",
"1042 184 CURVE SMOOTH",
"1042 202 OFFCURVE",
"1036 220 OFFCURVE",
"1025 220 CURVE SMOOTH",
"1012 220 OFFCURVE",
"1004 187 OFFCURVE",
"974 187 CURVE SMOOTH",
"956 187 OFFCURVE",
"948 203 OFFCURVE",
"956 229 CURVE SMOOTH",
"1110 733 LINE SMOOTH",
"1115 750 OFFCURVE",
"1118 766 OFFCURVE",
"1118 779 CURVE SMOOTH",
"1118 809 OFFCURVE",
"1105 844 OFFCURVE",
"1022 844 CURVE SMOOTH",
"949 844 OFFCURVE",
"868 821 OFFCURVE",
"757 774 CURVE"
);
},
{
closed = 1;
nodes = (
"345 876 OFFCURVE",
"193 780 OFFCURVE",
"133 585 CURVE SMOOTH",
"45 301 OFFCURVE",
"217 138 OFFCURVE",
"380 138 CURVE SMOOTH",
"540 138 OFFCURVE",
"656 271 OFFCURVE",
"728 453 CURVE",
"668 488 LINE",
"634 379 OFFCURVE",
"588 336 OFFCURVE",
"538 336 CURVE SMOOTH",
"477 336 OFFCURVE",
"436 400 OFFCURVE",
"476 529 CURVE SMOOTH",
"508 631 OFFCURVE",
"579 720 OFFCURVE",
"647 720 CURVE SMOOTH",
"691 720 OFFCURVE",
"704 717 OFFCURVE",
"710 737 CURVE SMOOTH",
"723 779 OFFCURVE",
"655 876 OFFCURVE",
"516 876 CURVE SMOOTH"
);
}
);
width = 1138;
}
);
rightMetricsKey = gjmAA;
unicode = 0AB5;
},
{
glyphname = gjSHA;
lastChange = "2015-06-15 11:22:15 +0000";
layers = (
{
layerId = "FF8CB9F1-2B98-444C-A502-96421F2531A8";
name = Bold;
paths = (
{
closed = 1;
nodes = (
"511 848 CURVE SMOOTH",
"649 848 OFFCURVE",
"717 756 OFFCURVE",
"717 608 CURVE SMOOTH",
"717 352 OFFCURVE",
"460 -10 OFFCURVE",
"210 -10 CURVE SMOOTH",
"104 -10 OFFCURVE",
"10 95 OFFCURVE",
"10 233 CURVE SMOOTH",
"10 366 OFFCURVE",
"82 452 OFFCURVE",
"159 452 CURVE SMOOTH",
"199 452 OFFCURVE",
"224 439 OFFCURVE",
"281 396 CURVE",
"281 396 OFFCURVE",
"419 488 OFFCURVE",
"419 572 CURVE SMOOTH",
"419 604 OFFCURVE",
"406 627 OFFCURVE",
"380 627 CURVE SMOOTH",
"342 627 OFFCURVE",
"293 524 OFFCURVE",
"393 480 CURVE SMOOTH",
"425 466 OFFCURVE",
"376 434 OFFCURVE",
"361 434 CURVE SMOOTH",
"319 434 OFFCURVE",
"202 493 OFFCURVE",
"202 611 CURVE SMOOTH",
"202 744 OFFCURVE",
"329 848 OFFCURVE"
);
},
{
closed = 1;
nodes = (
"466 203 LINE",
"679 40 OFFCURVE",
"774 25 OFFCURVE",
"937 25 CURVE SMOOTH",
"1100 25 OFFCURVE",
"1150 123 OFFCURVE",
"1179 123 CURVE SMOOTH",
"1208 123 OFFCURVE",
"1231 39 OFFCURVE",
"1231 -15 CURVE SMOOTH",
"1231 -174 OFFCURVE",
"1127 -272 OFFCURVE",
"960 -272 CURVE SMOOTH",
"766 -272 OFFCURVE",
"582 -175 OFFCURVE",
"346 87 CURVE"
);
},
{
closed = 1;
nodes = (
"816 550 LINE",
"786 458 OFFCURVE",
"774 405 OFFCURVE",
"774 357 CURVE SMOOTH",
"774 256 OFFCURVE",
"833 167 OFFCURVE",
"993 167 CURVE SMOOTH",
"1133 167 OFFCURVE",
"1226 269 OFFCURVE",
"1226 355 CURVE SMOOTH",
"1226 373 OFFCURVE",
"1220 391 OFFCURVE",
"1209 391 CURVE SMOOTH",
"1196 391 OFFCURVE",
"1188 358 OFFCURVE",
"1158 358 CURVE SMOOTH",
"1140 358 OFFCURVE",
"1132 374 OFFCURVE",
"1140 400 CURVE SMOOTH",
"1241 733 LINE SMOOTH",
"1246 750 OFFCURVE",
"1249 766 OFFCURVE",
"1249 779 CURVE SMOOTH",
"1249 809 OFFCURVE",
"1236 844 OFFCURVE",
"1153 844 CURVE SMOOTH",
"1080 844 OFFCURVE",
"999 821 OFFCURVE",
"888 774 CURVE"
);
}
);
width = 1269;
}
);
unicode = 0AB6;
},
{
glyphname = gjSSA;
lastChange = "2015-06-05 14:57:39 +0000";
layers = (
{
background = {
paths = (
{
closed = 1;
nodes = (
"860 844 OFFCURVE",
"778 821 OFFCURVE",
"668 774 CURVE",
"543 379 LINE SMOOTH",
"513 286 OFFCURVE",
"501 234 OFFCURVE",
"501 186 CURVE SMOOTH",
"501 85 OFFCURVE",
"560 -4 OFFCURVE",
"719 -4 CURVE SMOOTH",
"860 -4 OFFCURVE",
"952 98 OFFCURVE",
"952 184 CURVE SMOOTH",
"952 202 OFFCURVE",
"946 220 OFFCURVE",
"935 220 CURVE SMOOTH",
"922 220 OFFCURVE",
"915 187 OFFCURVE",
"885 187 CURVE SMOOTH",
"872 187 OFFCURVE",
"863 196 OFFCURVE",
"863 210 CURVE SMOOTH",
"863 216 OFFCURVE",
"864 222 OFFCURVE",
"867 229 CURVE",
"1020 733 LINE SMOOTH",
"1025 750 OFFCURVE",
"1029 766 OFFCURVE",
"1029 779 CURVE SMOOTH",
"1029 809 OFFCURVE",
"1016 844 OFFCURVE",
"933 844 CURVE SMOOTH"
);
}
);
};
components = (
{
name = gjmAA;
transform = "{1, 0, 0, 1, 481, 0}";
}
);
layerId = "FF8CB9F1-2B98-444C-A502-96421F2531A8";
leftMetricsKey = gjPA;
rightMetricsKey = gjmAA;
name = Bold;
paths = (
{
closed = 1;
nodes = (
"132 894 OFFCURVE",
"40 792 OFFCURVE",
"40 707 CURVE SMOOTH",
"40 689 OFFCURVE",
"46 671 OFFCURVE",
"57 671 CURVE SMOOTH",
"70 671 OFFCURVE",
"77 703 OFFCURVE",
"107 703 CURVE SMOOTH",
"120 703 OFFCURVE",
"129 695 OFFCURVE",
"129 679 CURVE SMOOTH",
"129 674 OFFCURVE",
"128 668 OFFCURVE",
"125 661 CURVE",
"74 506 LINE SMOOTH",
"58 458 OFFCURVE",
"48 413 OFFCURVE",
"48 372 CURVE SMOOTH",
"48 252 OFFCURVE",
"120 170 OFFCURVE",
"275 170 CURVE SMOOTH",
"413 170 OFFCURVE",
"507 240 OFFCURVE",
"573 329 CURVE SMOOTH",
"653 406 LINE",
"493 753 LINE SMOOTH",
"445 858 OFFCURVE",
"377 894 OFFCURVE",
"273 894 CURVE SMOOTH"
);
},
{
closed = 1;
nodes = (
"549.826 421.62 LINE",
"526.085 383.117 OFFCURVE",
"494.753 361 OFFCURVE",
"465 361 CURVE SMOOTH",
"425 361 OFFCURVE",
"410 382 OFFCURVE",
"410 408 CURVE SMOOTH",
"410 422 OFFCURVE",
"414 438 OFFCURVE",
"420 454 CURVE SMOOTH",
"494 643 LINE",
"440 643 LINE"
);
}
);
width = 1049;
}
);
leftMetricsKey = gjPA;
rightMetricsKey = gjmAA;
unicode = 0AB7;
},
{
glyphname = gjSA;
lastChange = "2015-06-05 15:02:51 +0000";
layers = (
{
background = {
components = (
{
name = gjRA;
transform = "{1, 0, 0, 1, 0, 0}";
},
{
name = gjmAA;
transform = "{1, 0, 0, 1, 680, 0}";
}
);
};
layerId = "FF8CB9F1-2B98-444C-A502-96421F2531A8";
leftMetricsKey = gjSHA;
rightMetricsKey = gjSHA;
name = Bold;
paths = (
{
closed = 1;
nodes = (
"383 848 OFFCURVE",
"299 745 OFFCURVE",
"299 633 CURVE SMOOTH",
"299 608 OFFCURVE",
"308 594 OFFCURVE",
"323 594 CURVE SMOOTH",
"343 594 OFFCURVE",
"354 627 OFFCURVE",
"380 627 CURVE SMOOTH",
"406 627 OFFCURVE",
"419 604 OFFCURVE",
"419 572 CURVE SMOOTH",
"419 500 OFFCURVE",
"359 441 OFFCURVE",
"281 396 CURVE",
"224 439 OFFCURVE",
"199 452 OFFCURVE",
"159 452 CURVE SMOOTH",
"82 452 OFFCURVE",
"10 366 OFFCURVE",
"10 233 CURVE SMOOTH",
"10 95 OFFCURVE",
"104 -10 OFFCURVE",
"210 -10 CURVE SMOOTH",
"460 -10 OFFCURVE",
"717 352 OFFCURVE",
"717 608 CURVE SMOOTH",
"717 756 OFFCURVE",
"649 848 OFFCURVE",
"511 848 CURVE SMOOTH"
);
},
{
closed = 1;
nodes = (
"346 87 LINE",
"582 -175 OFFCURVE",
"766 -272 OFFCURVE",
"960 -272 CURVE SMOOTH",
"1127 -272 OFFCURVE",
"1231 -174 OFFCURVE",
"1231 -15 CURVE SMOOTH",
"1231 39 OFFCURVE",
"1208 123 OFFCURVE",
"1179 123 CURVE SMOOTH",
"1150 123 OFFCURVE",
"1100 25 OFFCURVE",
"937 25 CURVE SMOOTH",
"774 25 OFFCURVE",
"679 40 OFFCURVE",
"466 203 CURVE"
);
},
{
closed = 1;
nodes = (
"814 543 OFFCURVE",
"768 515 OFFCURVE",
"661 533 CURVE",
"579 488 LINE",
"648 413 OFFCURVE",
"730 376 OFFCURVE",
"831 376 CURVE",
"846 644 LINE"
);
},
{
closed = 1;
nodes = (
"1080 844 OFFCURVE",
"999 821 OFFCURVE",
"888 774 CURVE",
"816 550 LINE",
"786 458 OFFCURVE",
"774 405 OFFCURVE",
"774 357 CURVE SMOOTH",
"774 256 OFFCURVE",
"833 167 OFFCURVE",
"993 167 CURVE SMOOTH",
"1133 167 OFFCURVE",
"1226 269 OFFCURVE",
"1226 355 CURVE SMOOTH",
"1226 373 OFFCURVE",
"1220 391 OFFCURVE",
"1209 391 CURVE SMOOTH",
"1196 391 OFFCURVE",
"1188 358 OFFCURVE",
"1158 358 CURVE SMOOTH",
"1140 358 OFFCURVE",
"1132 374 OFFCURVE",
"1140 400 CURVE SMOOTH",
"1241 733 LINE SMOOTH",
"1246 750 OFFCURVE",
"1249 766 OFFCURVE",
"1249 779 CURVE SMOOTH",
"1249 809 OFFCURVE",
"1236 844 OFFCURVE",
"1153 844 CURVE SMOOTH"
);
}
);
width = 1269;
}
);
leftMetricsKey = gjSHA;
rightMetricsKey = gjSHA;
unicode = 0AB8;
},
{
glyphname = gjHA;
lastChange = "2015-06-16 14:54:35 +0000";
layers = (
{
associatedMasterId = "FF8CB9F1-2B98-444C-A502-96421F2531A8";
background = {
paths = (
{
closed = 1;
nodes = (
"34 175 OFFCURVE",
"218 -4 OFFCURVE",
"474 -4 CURVE SMOOTH",
"720 -4 OFFCURVE",
"822 126 OFFCURVE",
"822 242 CURVE SMOOTH",
"822 371 OFFCURVE",
"723 444 OFFCURVE",
"626 444 CURVE SMOOTH",
"597 444 OFFCURVE",
"578 436 OFFCURVE",
"578 421 CURVE SMOOTH",
"578 409 OFFCURVE",
"600 400 OFFCURVE",
"600 370 CURVE SMOOTH",
"600 307 OFFCURVE",
"564 213 OFFCURVE",
"388 213 CURVE SMOOTH",
"212 213 OFFCURVE",
"115 325 OFFCURVE",
"115 419 CURVE SMOOTH",
"115 449 OFFCURVE",
"167 459 OFFCURVE",
"173 459 CURVE SMOOTH",
"205 459 OFFCURVE",
"183 315 OFFCURVE",
"363 315 CURVE SMOOTH",
"462 315 OFFCURVE",
"515 370 OFFCURVE",
"515 447 CURVE SMOOTH",
"515 528 OFFCURVE",
"429 571 OFFCURVE",
"395 591 CURVE",
"667 567 OFFCURVE",
"798 548 OFFCURVE",
"798 660 CURVE SMOOTH",
"798 792 OFFCURVE",
"669 822 OFFCURVE",
"643 850 CURVE SMOOTH",
"617 878 OFFCURVE",
"604 848 OFFCURVE",
"580 835 CURVE SMOOTH",
"556 822 OFFCURVE",
"318 678 OFFCURVE",
"301 665 CURVE SMOOTH",
"289 656 OFFCURVE",
"276 638 OFFCURVE",
"276 621 CURVE SMOOTH",
"276 588 OFFCURVE",
"300 598 OFFCURVE",
"300 564 CURVE SMOOTH",
"300 549 OFFCURVE",
"321 505 OFFCURVE",
"291 505 CURVE SMOOTH",
"199 505 OFFCURVE",
"218 598 OFFCURVE",
"169 598 CURVE SMOOTH",
"120 598 OFFCURVE",
"34 511 OFFCURVE",
"34 400 CURVE SMOOTH"
);
}
);
};
backgroundImage = {
crop = "{{0, 0}, {653, 720}}";
imagePath = Reference/Shrikhand_HA.png;
locked = 1;
transform = "{1.400, 0, 0, 1.400, -28, -99}";
};
layerId = "03D6C484-481E-4A56-AC96-357A998F8A92";
name = Connected;
paths = (
{
closed = 1;
nodes = (
"-33 215 OFFCURVE",
"165 -4 OFFCURVE",
"474 -4 CURVE SMOOTH",
"720 -4 OFFCURVE",
"833 126 OFFCURVE",
"863 242 CURVE SMOOTH",
"897 371 OFFCURVE",
"817 484 OFFCURVE",
"720 484 CURVE SMOOTH",
"691 484 OFFCURVE",
"670 476 OFFCURVE",
"666 461 CURVE SMOOTH",
"663 449 OFFCURVE",
"682 440 OFFCURVE",
"675 410 CURVE SMOOTH",
"658 347 OFFCURVE",
"597 253 OFFCURVE",
"421 253 CURVE SMOOTH",
"215 253 OFFCURVE",
"139 376 OFFCURVE",
"163 470 CURVE SMOOTH",
"171 500 OFFCURVE",
"179 500 OFFCURVE",
"185 500 CURVE SMOOTH",
"217 500 OFFCURVE",
"243 355 OFFCURVE",
"423 355 CURVE SMOOTH",
"522 355 OFFCURVE",
"590 410 OFFCURVE",
"610 487 CURVE SMOOTH",
"631 568 OFFCURVE",
"556 611 OFFCURVE",
"528 631 CURVE",
"681 631 OFFCURVE",
"905 625 OFFCURVE",
"905 734 CURVE SMOOTH",
"905 810 OFFCURVE",
"811 814 OFFCURVE",
"769 844 CURVE SMOOTH",
"742 863 OFFCURVE",
"630 817 OFFCURVE",
"602 804 CURVE SMOOTH",
"575 791 OFFCURVE",
"443 718 OFFCURVE",
"423 705 CURVE SMOOTH",
"409 696 OFFCURVE",
"391 678 OFFCURVE",
"387 661 CURVE SMOOTH",
"378 628 OFFCURVE",
"435 638 OFFCURVE",
"426 604 CURVE SMOOTH",
"422 589 OFFCURVE",
"431 545 OFFCURVE",
"401 545 CURVE SMOOTH",
"309 545 OFFCURVE",
"352 638 OFFCURVE",
"213 638 CURVE SMOOTH",
"164 638 OFFCURVE",
"56 551 OFFCURVE",
"26 440 CURVE SMOOTH"
);
}
);
width = 1000;
},
{
associatedMasterId = "FF8CB9F1-2B98-444C-A502-96421F2531A8";
layerId = "DE615B45-DEC4-4C85-A249-C22483184DEB";
name = Small;
paths = (
{
closed = 1;
nodes = (
"212 682 OFFCURVE",
"202 656 OFFCURVE",
"202 618 CURVE SMOOTH",
"202 492 OFFCURVE",
"294 396 OFFCURVE",
"454 396 CURVE SMOOTH",
"563 396 OFFCURVE",
"631 449 OFFCURVE",
"631 518 CURVE SMOOTH",
"631 545 OFFCURVE",
"617 572 OFFCURVE",
"568 608 CURVE",
"717 639 LINE SMOOTH",
"767 649 OFFCURVE",
"789 663 OFFCURVE",
"789 692 CURVE SMOOTH",
"789 740 OFFCURVE",
"719 808 OFFCURVE",
"586 870 CURVE",
"366 746 LINE SMOOTH",
"327 724 OFFCURVE",
"321 717 OFFCURVE",
"321 707 CURVE SMOOTH",
"321 683 OFFCURVE",
"376 649 OFFCURVE",
"376 618 CURVE SMOOTH",
"376 599 OFFCURVE",
"363 586 OFFCURVE",
"344 586 CURVE SMOOTH",
"252 586 OFFCURVE",
"250 682 OFFCURVE",
"226 682 CURVE SMOOTH"
);
},
{
closed = 1;
nodes = (
"134 663 LINE SMOOTH",
"134 683 OFFCURVE",
"127 695 OFFCURVE",
"114 695 CURVE SMOOTH",
"80 695 OFFCURVE",
"-1 568 OFFCURVE",
"-1 411 CURVE SMOOTH",
"-1 184 OFFCURVE",
"182 -9 OFFCURVE",
"502 -9 CURVE SMOOTH",
"754 -9 OFFCURVE",
"894 115 OFFCURVE",
"894 305 CURVE SMOOTH",
"894 434 OFFCURVE",
"786 520 OFFCURVE",
"707 520 CURVE SMOOTH",
"691 520 OFFCURVE",
"683 514 OFFCURVE",
"683 501 CURVE SMOOTH",
"683 483 OFFCURVE",
"693 469 OFFCURVE",
"693 448 CURVE SMOOTH",
"693 356 OFFCURVE",
"608 277 OFFCURVE",
"466 277 CURVE SMOOTH",
"261 277 OFFCURVE",
"134 396 OFFCURVE",
"134 588 CURVE SMOOTH"
);
}
);
width = 954;
},
{
associatedMasterId = "FF8CB9F1-2B98-444C-A502-96421F2531A8";
background = {
paths = (
{
closed = 1;
nodes = (
"817 404 OFFCURVE",
"809 398 OFFCURVE",
"807 385 CURVE",
"805 367 OFFCURVE",
"812 340 OFFCURVE",
"812 298 CURVE SMOOTH",
"812 138 OFFCURVE",
"725 25 OFFCURVE",
"503 25 CURVE SMOOTH",
"262 25 OFFCURVE",
"147 125 OFFCURVE",
"147 285 CURVE SMOOTH",
"147 321 OFFCURVE",
"154 343 OFFCURVE",
"165 343 CURVE SMOOTH",
"195 343 OFFCURVE",
"228 140 OFFCURVE",
"495 140 CURVE SMOOTH",
"637 140 OFFCURVE",
"716 221 OFFCURVE",
"716 326 CURVE SMOOTH",
"716 400 OFFCURVE",
"678 451 OFFCURVE",
"633 487 CURVE",
"824 547 LINE SMOOTH",
"894 569 OFFCURVE",
"916 586 OFFCURVE",
"916 624 CURVE SMOOTH",
"916 684 OFFCURVE",
"811 789 OFFCURVE",
"599 841 CURVE",
"371 667 LINE SMOOTH",
"352 653 OFFCURVE",
"341 642 OFFCURVE",
"341 628 CURVE SMOOTH",
"341 593 OFFCURVE",
"437 534 OFFCURVE",
"437 470 CURVE SMOOTH",
"437 426 OFFCURVE",
"403 402 OFFCURVE",
"363 402 CURVE SMOOTH",
"185 402 OFFCURVE",
"279 692 OFFCURVE",
"209 692 CURVE SMOOTH",
"145 692 OFFCURVE",
"10 474 OFFCURVE",
"10 206 CURVE SMOOTH",
"10 -80 OFFCURVE",
"235 -272 OFFCURVE",
"545 -272 CURVE SMOOTH",
"859 -272 OFFCURVE",
"994 -75 OFFCURVE",
"994 136 CURVE SMOOTH",
"994 291 OFFCURVE",
"899 404 OFFCURVE",
"833 404 CURVE SMOOTH"
);
}
);
};
layerId = "273EAB0F-6D81-40D5-9F86-44C34E2F5DAE";
name = "Bold Jun 16 15, 15:54";
paths = (
{
closed = 1;
nodes = (
"279 692 OFFCURVE",
"185 402 OFFCURVE",
"363 402 CURVE SMOOTH",
"403 402 OFFCURVE",
"437 426 OFFCURVE",
"437 470 CURVE SMOOTH",
"437 534 OFFCURVE",
"341 593 OFFCURVE",
"341 628 CURVE SMOOTH",
"341 642 OFFCURVE",
"352 653 OFFCURVE",
"371 667 CURVE SMOOTH",
"599 841 LINE",
"811 789 OFFCURVE",
"916 684 OFFCURVE",
"916 624 CURVE SMOOTH",
"916 586 OFFCURVE",
"894 569 OFFCURVE",
"824 547 CURVE SMOOTH",
"633 487 LINE",
"678 451 OFFCURVE",
"716 400 OFFCURVE",
"716 326 CURVE SMOOTH",
"716 221 OFFCURVE",
"637 140 OFFCURVE",
"495 140 CURVE SMOOTH",
"228 140 OFFCURVE",
"139 362 OFFCURVE",
"139 500 CURVE SMOOTH",
"139 638 OFFCURVE",
"169 692 OFFCURVE",
"209 692 CURVE SMOOTH"
);
},
{
closed = 1;
nodes = (
"83 344 OFFCURVE",
"29 356 OFFCURVE",
"10 206 CURVE",
"10 -80 OFFCURVE",
"235 -272 OFFCURVE",
"545 -272 CURVE SMOOTH",
"859 -272 OFFCURVE",
"994 -75 OFFCURVE",
"994 136 CURVE SMOOTH",
"994 291 OFFCURVE",
"899 404 OFFCURVE",
"833 404 CURVE SMOOTH",
"817 404 OFFCURVE",
"809 398 OFFCURVE",
"807 385 CURVE",
"805 367 OFFCURVE",
"812 340 OFFCURVE",
"812 298 CURVE SMOOTH",
"812 138 OFFCURVE",
"725 25 OFFCURVE",
"503 25 CURVE SMOOTH",
"262 25 OFFCURVE",
"185 110 OFFCURVE",
"99 285 CURVE"
);
}
);
width = 1054;
},
{
background = {
paths = (
{
closed = 1;
nodes = (
"817 404 OFFCURVE",
"809 398 OFFCURVE",
"807 385 CURVE",
"805 367 OFFCURVE",
"812 340 OFFCURVE",
"812 298 CURVE SMOOTH",
"812 138 OFFCURVE",
"725 25 OFFCURVE",
"503 25 CURVE SMOOTH",
"262 25 OFFCURVE",
"147 133 OFFCURVE",
"147 267 CURVE SMOOTH",
"147 304 OFFCURVE",
"152 341 OFFCURVE",
"164 383 CURVE",
"205 223 OFFCURVE",
"328 140 OFFCURVE",
"495 140 CURVE SMOOTH",
"637 140 OFFCURVE",
"716 221 OFFCURVE",
"716 326 CURVE SMOOTH",
"716 400 OFFCURVE",
"678 451 OFFCURVE",
"633 487 CURVE",
"824 547 LINE SMOOTH",
"894 569 OFFCURVE",
"916 586 OFFCURVE",
"916 624 CURVE SMOOTH",
"916 684 OFFCURVE",
"811 789 OFFCURVE",
"599 841 CURVE",
"371 667 LINE SMOOTH",
"352 653 OFFCURVE",
"341 642 OFFCURVE",
"341 628 CURVE SMOOTH",
"341 593 OFFCURVE",
"437 534 OFFCURVE",
"437 470 CURVE SMOOTH",
"437 426 OFFCURVE",
"403 402 OFFCURVE",
"363 402 CURVE SMOOTH",
"185 402 OFFCURVE",
"279 692 OFFCURVE",
"209 692 CURVE SMOOTH",
"145 692 OFFCURVE",
"-6 462 OFFCURVE",
"-6 206 CURVE SMOOTH",
"-6 -105 OFFCURVE",
"235 -272 OFFCURVE",
"545 -272 CURVE SMOOTH",
"859 -272 OFFCURVE",
"994 -75 OFFCURVE",
"994 136 CURVE SMOOTH",
"994 291 OFFCURVE",
"899 404 OFFCURVE",
"833 404 CURVE SMOOTH"
);
}
);
};
layerId = "FF8CB9F1-2B98-444C-A502-96421F2531A8";
name = Bold;
paths = (
{
closed = 1;
nodes = (
"817 404 OFFCURVE",
"809 398 OFFCURVE",
"807 385 CURVE",
"805 367 OFFCURVE",
"812 340 OFFCURVE",
"812 298 CURVE SMOOTH",
"812 138 OFFCURVE",
"725 25 OFFCURVE",
"503 25 CURVE SMOOTH",
"262 25 OFFCURVE",
"147 125 OFFCURVE",
"147 285 CURVE SMOOTH",
"147 321 OFFCURVE",
"154 343 OFFCURVE",
"165 343 CURVE SMOOTH",
"195 343 OFFCURVE",
"228 140 OFFCURVE",
"495 140 CURVE SMOOTH",
"637 140 OFFCURVE",
"716 221 OFFCURVE",
"716 326 CURVE SMOOTH",
"716 400 OFFCURVE",
"678 451 OFFCURVE",
"633 487 CURVE",
"824 547 LINE SMOOTH",
"894 569 OFFCURVE",
"916 586 OFFCURVE",
"916 624 CURVE SMOOTH",
"916 684 OFFCURVE",
"811 789 OFFCURVE",
"599 841 CURVE",
"371 667 LINE SMOOTH",
"352 653 OFFCURVE",
"341 642 OFFCURVE",
"341 628 CURVE SMOOTH",
"341 593 OFFCURVE",
"437 534 OFFCURVE",
"437 470 CURVE SMOOTH",
"437 426 OFFCURVE",
"403 402 OFFCURVE",
"363 402 CURVE SMOOTH",
"185 402 OFFCURVE",
"279 692 OFFCURVE",
"209 692 CURVE SMOOTH",
"145 692 OFFCURVE",
"10 474 OFFCURVE",
"10 206 CURVE SMOOTH",
"10 -80 OFFCURVE",
"235 -272 OFFCURVE",
"545 -272 CURVE SMOOTH",
"859 -272 OFFCURVE",
"994 -75 OFFCURVE",
"994 136 CURVE SMOOTH",
"994 291 OFFCURVE",
"899 404 OFFCURVE",
"833 404 CURVE SMOOTH"
);
}
);
width = 1054;
}
);
unicode = 0AB9;
},
{
glyphname = gjK_SSA;
lastChange = "2015-06-17 11:24:54 +0000";
layers = (
{
background = {
components = (
{
name = gjSHA;
transform = "{1, 0, 0, 1, 0, 0}";
}
);
};
layerId = "FF8CB9F1-2B98-444C-A502-96421F2531A8";
rightMetricsKey = gjmAA;
name = Bold;
paths = (
{
closed = 1;
nodes = (
"474 75 LINE",
"560 -154 OFFCURVE",
"758 -272 OFFCURVE",
"931 -272 CURVE SMOOTH",
"1096 -272 OFFCURVE",
"1173 -130 OFFCURVE",
"1173 -21 CURVE SMOOTH",
"1173 63 OFFCURVE",
"1126 80 OFFCURVE",
"1106 80 CURVE SMOOTH",
"1076 80 OFFCURVE",
"1090 23 OFFCURVE",
"880 23 CURVE SMOOTH",
"790 23 OFFCURVE",
"627 38 OFFCURVE",
"566 97 CURVE"
);
},
{
closed = 1;
nodes = (
"1086 844 OFFCURVE",
"939 808 OFFCURVE",
"914 733 CURVE SMOOTH",
"847 534 LINE SMOOTH",
"816 443 OFFCURVE",
"805 399 OFFCURVE",
"805 341 CURVE SMOOTH",
"805 240 OFFCURVE",
"864 151 OFFCURVE",
"1024 151 CURVE SMOOTH",
"1164 151 OFFCURVE",
"1257 253 OFFCURVE",
"1257 339 CURVE SMOOTH",
"1257 357 OFFCURVE",
"1251 375 OFFCURVE",
"1240 375 CURVE SMOOTH",
"1227 375 OFFCURVE",
"1219 342 OFFCURVE",
"1189 342 CURVE SMOOTH",
"1171 342 OFFCURVE",
"1163 358 OFFCURVE",
"1171 384 CURVE SMOOTH",
"1280 733 LINE SMOOTH",
"1285 750 OFFCURVE",
"1288 766 OFFCURVE",
"1288 779 CURVE SMOOTH",
"1288 809 OFFCURVE",
"1275 844 OFFCURVE",
"1187 844 CURVE SMOOTH"
);
},
{
closed = 1;
nodes = (
"560 706 OFFCURVE",
"554 680 OFFCURVE",
"519 650 CURVE SMOOTH",
"483 621 OFFCURVE",
"444 609 OFFCURVE",
"417 621 CURVE SMOOTH",
"391 634 OFFCURVE",
"397 661 OFFCURVE",
"433 690 CURVE SMOOTH",
"468 720 OFFCURVE",
"508 730 OFFCURVE",
"534 718 CURVE SMOOTH"
);
},
{
closed = 1;
nodes = (
"376 847 OFFCURVE",
"255 758 OFFCURVE",
"255 658 CURVE SMOOTH",
"255 598 OFFCURVE",
"314 536 OFFCURVE",
"402 536 CURVE",
"353 581 LINE",
"71 503 OFFCURVE",
"-20 391 OFFCURVE",
"-20 258 CURVE SMOOTH",
"-20 95 OFFCURVE",
"164 -9 OFFCURVE",
"402 -9 CURVE SMOOTH",
"593 -9 OFFCURVE",
"729 77 OFFCURVE",
"729 170 CURVE SMOOTH",
"729 244 OFFCURVE",
"681 292 OFFCURVE",
"561 292 CURVE SMOOTH",
"456 292 OFFCURVE",
"383 210 OFFCURVE",
"383 181 CURVE SMOOTH",
"383 162 OFFCURVE",
"411 144 OFFCURVE",
"411 124 CURVE SMOOTH",
"411 97 OFFCURVE",
"410 103 OFFCURVE",
"365 103 CURVE SMOOTH",
"317 103 OFFCURVE",
"266 132 OFFCURVE",
"266 178 CURVE SMOOTH",
"266 357 OFFCURVE",
"807 409 OFFCURVE",
"807 670 CURVE SMOOTH",
"807 760 OFFCURVE",
"728 847 OFFCURVE",
"549 847 CURVE SMOOTH"
);
},
{
closed = 1;
nodes = (
"832 487 OFFCURVE",
"784 439 OFFCURVE",
"650 476 CURVE",
"560 420 LINE",
"666 330 OFFCURVE",
"746 318 OFFCURVE",
"847 318 CURVE",
"864 588 LINE"
);
}
);
width = 1318;
}
);
rightMetricsKey = gjmAA;
},
{
glyphname = gjVirama;
lastChange = "2015-06-05 14:42:49 +0000";
layers = (
{
layerId = "FF8CB9F1-2B98-444C-A502-96421F2531A8";
name = Bold;
paths = (
{
closed = 1;
nodes = (
"190 -252 CURVE SMOOTH",
"199 -257 OFFCURVE",
"204 -262 OFFCURVE",
"205 -269 CURVE SMOOTH",
"208 -285 OFFCURVE",
"189 -302 OFFCURVE",
"129 -314 CURVE SMOOTH",
"-153 -369 OFFCURVE",
"-294 -303 OFFCURVE",
"-315 -194 CURVE SMOOTH",
"-327 -135 OFFCURVE",
"-293 -91 OFFCURVE",
"-238 -80 CURVE SMOOTH",
"-171 -67 OFFCURVE",
"-127 -80 OFFCURVE"
);
}
);
width = 0;
}
);
unicode = 0ACD;
},
{
glyphname = gjOne;
lastChange = "2015-06-16 13:51:11 +0000";
layers = (
{
background = {
paths = (
{
closed = 1;
nodes = (
"90 853 OFFCURVE",
"-16 760 OFFCURVE",
"-58 649 CURVE SMOOTH",
"-98 543 OFFCURVE",
"-24 473 OFFCURVE",
"15 465 CURVE SMOOTH",
"54 457 OFFCURVE",
"107 456 OFFCURVE",
"152 465 CURVE",
"97 489 LINE",
"62 379 LINE SMOOTH",
"33 287 OFFCURVE",
"20 234 OFFCURVE",
"20 186 CURVE SMOOTH",
"20 85 OFFCURVE",
"79 -4 OFFCURVE",
"239 -4 CURVE SMOOTH",
"379 -4 OFFCURVE",
"472 98 OFFCURVE",
"472 184 CURVE SMOOTH",
"472 202 OFFCURVE",
"466 220 OFFCURVE",
"455 220 CURVE SMOOTH",
"442 220 OFFCURVE",
"434 187 OFFCURVE",
"404 187 CURVE SMOOTH",
"386 187 OFFCURVE",
"378 203 OFFCURVE",
"386 229 CURVE SMOOTH",
"476 525 LINE SMOOTH",
"500 605 OFFCURVE",
"518 641 OFFCURVE",
"508 712 CURVE SMOOTH",
"498 783 OFFCURVE",
"426 853 OFFCURVE",
"258 853 CURVE SMOOTH"
);
},
{
closed = 1;
nodes = (
"147 695 OFFCURVE",
"161 665 OFFCURVE",
"151 627 CURVE SMOOTH",
"141 589 OFFCURVE",
"111 558 OFFCURVE",
"85 558 CURVE SMOOTH",
"59 558 OFFCURVE",
"46 589 OFFCURVE",
"56 627 CURVE SMOOTH",
"66 665 OFFCURVE",
"95 695 OFFCURVE",
"121 695 CURVE SMOOTH"
);
}
);
};
layerId = "FF8CB9F1-2B98-444C-A502-96421F2531A8";
rightMetricsKey = gjmAA;
name = Bold;
paths = (
{
closed = 1;
nodes = (
"57 853 OFFCURVE",
"-70 723 OFFCURVE",
"-70 589 CURVE SMOOTH",
"-70 511 OFFCURVE",
"-7 459 OFFCURVE",
"90 459 CURVE SMOOTH",
"113 459 OFFCURVE",
"130 461 OFFCURVE",
"152 465 CURVE",
"97 489 LINE",
"62 379 LINE SMOOTH",
"33 287 OFFCURVE",
"20 234 OFFCURVE",
"20 186 CURVE SMOOTH",
"20 85 OFFCURVE",
"79 -4 OFFCURVE",
"239 -4 CURVE SMOOTH",
"379 -4 OFFCURVE",
"472 98 OFFCURVE",
"472 184 CURVE SMOOTH",
"472 202 OFFCURVE",
"466 220 OFFCURVE",
"455 220 CURVE SMOOTH",
"442 220 OFFCURVE",
"434 187 OFFCURVE",
"404 187 CURVE SMOOTH",
"386 187 OFFCURVE",
"378 203 OFFCURVE",
"386 229 CURVE SMOOTH",
"476 525 LINE SMOOTH",
"528 697 OFFCURVE",
"473 853 OFFCURVE",
"246 853 CURVE SMOOTH"
);
},
{
closed = 1;
nodes = (
"158 695 OFFCURVE",
"169 669 OFFCURVE",
"159 627 CURVE SMOOTH",
"147 585 OFFCURVE",
"122 558 OFFCURVE",
"93 558 CURVE SMOOTH",
"64 558 OFFCURVE",
"52 585 OFFCURVE",
"64 627 CURVE SMOOTH",
"74 669 OFFCURVE",
"100 695 OFFCURVE",
"129 695 CURVE SMOOTH"
);
}
);
width = 514;
}
);
rightMetricsKey = gjmAA;
unicode = 0AE7;
},
{
glyphname = gjFour;
lastChange = "2015-06-15 16:55:13 +0000";
layers = (
{
layerId = "FF8CB9F1-2B98-444C-A502-96421F2531A8";
name = Bold;
paths = (
{
closed = 1;
nodes = (
"658 941 OFFCURVE",
"584 877 OFFCURVE",
"584 833 CURVE SMOOTH",
"584 798 OFFCURVE",
"644 822 OFFCURVE",
"644 773 CURVE SMOOTH",
"644 738 OFFCURVE",
"607 691 OFFCURVE",
"427 551 CURVE SMOOTH",
"261 422 OFFCURVE",
"219 343 OFFCURVE",
"219 250 CURVE SMOOTH",
"219 104 OFFCURVE",
"338 0 OFFCURVE",
"506 0 CURVE SMOOTH",
"651 0 OFFCURVE",
"754 81 OFFCURVE",
"754 196 CURVE SMOOTH",
"754 266 OFFCURVE",
"706 328 OFFCURVE",
"632 353 CURVE",
"745 407 LINE SMOOTH",
"908 485 OFFCURVE",
"998 593 OFFCURVE",
"998 711 CURVE SMOOTH",
"998 842 OFFCURVE",
"904 941 OFFCURVE",
"766 941 CURVE SMOOTH"
);
},
{
closed = 1;
nodes = (
"570 290 OFFCURVE",
"582 270 OFFCURVE",
"582 243 CURVE SMOOTH",
"582 212 OFFCURVE",
"558 187 OFFCURVE",
"529 187 CURVE SMOOTH",
"501 187 OFFCURVE",
"482 203 OFFCURVE",
"482 229 CURVE SMOOTH",
"482 256 OFFCURVE",
"502 279 OFFCURVE",
"549 307 CURVE"
);
},
{
closed = 1;
nodes = (
"273 554 LINE",
"310 578 OFFCURVE",
"354 571 OFFCURVE",
"406 517 CURVE",
"471 549 LINE",
"407 774 OFFCURVE",
"252 964 OFFCURVE",
"60 752 CURVE"
);
}
);
width = 1028;
}
);
unicode = 0AEA;
},
{
glyphname = gjNine;
lastChange = "2015-06-15 17:09:15 +0000";
layers = (
{
background = {
paths = (
{
closed = 1;
nodes = (
"547 860 OFFCURVE",
"530 800 OFFCURVE",
"489 772 CURVE SMOOTH",
"419 724 OFFCURVE",
"351 636 OFFCURVE",
"351 500 CURVE SMOOTH",
"351 394 OFFCURVE",
"457 288 OFFCURVE",
"539 288 CURVE SMOOTH",
"625 288 OFFCURVE",
"632 285 OFFCURVE",
"637 255 CURVE SMOOTH",
"641 228 OFFCURVE",
"548 139 OFFCURVE",
"371 139 CURVE SMOOTH",
"146 139 OFFCURVE",
"30 250 OFFCURVE",
"30 397 CURVE SMOOTH",
"30 676 OFFCURVE",
"243 860 OFFCURVE",
"423 860 CURVE"
);
},
{
closed = 1;
nodes = (
"856 714 LINE",
"791 676 OFFCURVE",
"733 645 OFFCURVE",
"684 645 CURVE SMOOTH",
"630 645 OFFCURVE",
"647 732 OFFCURVE",
"622 732 CURVE SMOOTH",
"568 732 OFFCURVE",
"474 633 OFFCURVE",
"474 522 CURVE SMOOTH",
"474 458 OFFCURVE",
"516 382 OFFCURVE",
"619 382 CURVE SMOOTH",
"732 382 OFFCURVE",
"814 476 OFFCURVE",
"865 540 CURVE"
);
}
);
};
layerId = "FF8CB9F1-2B98-444C-A502-96421F2531A8";
name = Bold;
paths = (
{
closed = 1;
nodes = (
"526 860 OFFCURVE",
"535 848 OFFCURVE",
"535 829 CURVE SMOOTH",
"535 758 OFFCURVE",
"351 656 OFFCURVE",
"351 394 CURVE SMOOTH",
"351 215 OFFCURVE",
"478 145 OFFCURVE",
"620 145 CURVE SMOOTH",
"706 145 OFFCURVE",
"718 138 OFFCURVE",
"718 115 CURVE SMOOTH",
"718 69 OFFCURVE",
"614 -4 OFFCURVE",
"447 -4 CURVE SMOOTH",
"222 -4 OFFCURVE",
"30 95 OFFCURVE",
"30 329 CURVE SMOOTH",
"30 647 OFFCURVE",
"323 860 OFFCURVE",
"488 860 CURVE SMOOTH"
);
},
{
closed = 1;
nodes = (
"964 693 OFFCURVE",
"959 714 OFFCURVE",
"935 714 CURVE SMOOTH",
"890 714 OFFCURVE",
"841 551 OFFCURVE",
"684 551 CURVE SMOOTH",
"630 551 OFFCURVE",
"647 638 OFFCURVE",
"622 638 CURVE SMOOTH",
"568 638 OFFCURVE",
"474 539 OFFCURVE",
"474 428 CURVE SMOOTH",
"474 329 OFFCURVE",
"549 264 OFFCURVE",
"652 264 CURVE SMOOTH",
"794 264 OFFCURVE",
"964 487 OFFCURVE",
"964 668 CURVE SMOOTH"
);
}
);
width = 954;
}
);
unicode = 0AEF;
},
{
glyphname = gjJ;
lastChange = "2015-06-05 14:42:49 +0000";
layers = (
{
background = {
paths = (
{
closed = 1;
nodes = (
"907 388 LINE",
"951 487 LINE",
"519 487 LINE SMOOTH",
"296 487 OFFCURVE",
"169 379 OFFCURVE",
"169 224 CURVE SMOOTH",
"169 95 OFFCURVE",
"275 0 OFFCURVE",
"416 0 CURVE SMOOTH",
"561 0 OFFCURVE",
"674 93 OFFCURVE",
"674 208 CURVE SMOOTH",
"674 310 OFFCURVE",
"593 404 OFFCURVE",
"451 440 CURVE",
"415 404 LINE",
"456 384 OFFCURVE",
"479 333 OFFCURVE",
"479 292 CURVE SMOOTH",
"479 250 OFFCURVE",
"445 230 OFFCURVE",
"416 230 CURVE SMOOTH",
"388 230 OFFCURVE",
"353 240 OFFCURVE",
"353 291 CURVE SMOOTH",
"353 364 OFFCURVE",
"414 388 OFFCURVE",
"518 388 CURVE SMOOTH"
);
},
{
closed = 1;
nodes = (
"108 838 OFFCURVE",
"30 773 OFFCURVE",
"30 664 CURVE SMOOTH",
"30 535 OFFCURVE",
"129 456 OFFCURVE",
"219 456 CURVE SMOOTH",
"239 456 OFFCURVE",
"249 465 OFFCURVE",
"249 477 CURVE SMOOTH",
"249 496 OFFCURVE",
"229 503 OFFCURVE",
"229 532 CURVE SMOOTH",
"229 558 OFFCURVE",
"247 576 OFFCURVE",
"285 576 CURVE SMOOTH",
"319 576 OFFCURVE",
"374 555 OFFCURVE",
"404 447 CURVE",
"492 473 LINE",
"454 755 OFFCURVE",
"327 838 OFFCURVE",
"198 838 CURVE SMOOTH"
);
}
);
};
guideLines = (
{
position = "{490, 269}";
},
{
angle = 90;
position = "{446, 308}";
}
);
layerId = "FF8CB9F1-2B98-444C-A502-96421F2531A8";
name = Bold;
paths = (
{
closed = 1;
nodes = (
"907 388 LINE",
"951 487 LINE",
"519 487 LINE SMOOTH",
"296 487 OFFCURVE",
"169 379 OFFCURVE",
"169 224 CURVE SMOOTH",
"169 95 OFFCURVE",
"275 0 OFFCURVE",
"416 0 CURVE SMOOTH",
"561 0 OFFCURVE",
"674 93 OFFCURVE",
"674 208 CURVE SMOOTH",
"674 310 OFFCURVE",
"593 404 OFFCURVE",
"451 440 CURVE",
"415 404 LINE",
"456 384 OFFCURVE",
"479 333 OFFCURVE",
"479 292 CURVE SMOOTH",
"479 250 OFFCURVE",
"445 230 OFFCURVE",
"416 230 CURVE SMOOTH",
"388 230 OFFCURVE",
"353 240 OFFCURVE",
"353 291 CURVE SMOOTH",
"353 364 OFFCURVE",
"414 388 OFFCURVE",
"518 388 CURVE SMOOTH"
);
},
{
closed = 1;
nodes = (
"108 838 OFFCURVE",
"30 773 OFFCURVE",
"30 664 CURVE SMOOTH",
"30 535 OFFCURVE",
"129 456 OFFCURVE",
"219 456 CURVE SMOOTH",
"239 456 OFFCURVE",
"249 465 OFFCURVE",
"249 477 CURVE SMOOTH",
"249 496 OFFCURVE",
"229 503 OFFCURVE",
"229 532 CURVE SMOOTH",
"229 558 OFFCURVE",
"247 576 OFFCURVE",
"285 576 CURVE SMOOTH",
"319 576 OFFCURVE",
"374 555 OFFCURVE",
"404 447 CURVE",
"492 473 LINE",
"454 755 OFFCURVE",
"327 838 OFFCURVE",
"198 838 CURVE SMOOTH"
);
}
);
width = 727;
}
);
},
{
glyphname = gjN;
lastChange = "2015-06-05 14:42:49 +0000";
layers = (
{
layerId = "FF8CB9F1-2B98-444C-A502-96421F2531A8";
rightMetricsKey = "-";
name = Bold;
paths = (
{
closed = 1;
nodes = (
"136 699 OFFCURVE",
"10 582 OFFCURVE",
"10 417 CURVE SMOOTH",
"10 304 OFFCURVE",
"92 198 OFFCURVE",
"219 198 CURVE SMOOTH",
"349 198 OFFCURVE",
"440 279 OFFCURVE",
"453 409 CURVE",
"405 420 OFFCURVE",
"366 433 OFFCURVE",
"366 482 CURVE SMOOTH",
"366 527 OFFCURVE",
"407 538 OFFCURVE",
"453 538 CURVE SMOOTH",
"526 538 OFFCURVE",
"582 509 OFFCURVE",
"687 455 CURVE",
"719 512 LINE",
"572 623 OFFCURVE",
"481 699 OFFCURVE",
"318 699 CURVE SMOOTH"
);
}
);
width = 579;
}
);
rightMetricsKey = "-";
},
{
glyphname = gjSH_RA;
lastChange = "2015-06-05 14:42:49 +0000";
layers = (
{
background = {
paths = (
{
closed = 1;
nodes = (
"897 844 OFFCURVE",
"810 804 OFFCURVE",
"779 706 CURVE SMOOTH",
"676 379 LINE SMOOTH",
"643 275 OFFCURVE",
"634 224 OFFCURVE",
"634 186 CURVE SMOOTH",
"634 85 OFFCURVE",
"693 -4 OFFCURVE",
"852 -4 CURVE SMOOTH",
"993 -4 OFFCURVE",
"1085 98 OFFCURVE",
"1085 184 CURVE SMOOTH",
"1085 202 OFFCURVE",
"1079 220 OFFCURVE",
"1068 220 CURVE SMOOTH",
"1055 220 OFFCURVE",
"1048 187 OFFCURVE",
"1018 187 CURVE SMOOTH",
"1005 187 OFFCURVE",
"996 196 OFFCURVE",
"996 210 CURVE SMOOTH",
"996 216 OFFCURVE",
"997 222 OFFCURVE",
"1000 229 CURVE",
"1153 733 LINE SMOOTH",
"1158 750 OFFCURVE",
"1162 766 OFFCURVE",
"1162 779 CURVE SMOOTH",
"1162 809 OFFCURVE",
"1132 844 OFFCURVE",
"1030 844 CURVE SMOOTH"
);
},
{
closed = 1;
nodes = (
"568 518 OFFCURVE",
"445 482 OFFCURVE",
"444 481 CURVE",
"458 455 OFFCURVE",
"455 450 OFFCURVE",
"481 421 CURVE",
"391 372 OFFCURVE",
"314 366 OFFCURVE",
"279 366 CURVE SMOOTH",
"240 366 OFFCURVE",
"198 377 OFFCURVE",
"198 411 CURVE SMOOTH",
"198 438 OFFCURVE",
"180 447 OFFCURVE",
"140 428 CURVE SMOOTH",
"79 399 OFFCURVE",
"37 324 OFFCURVE",
"37 221 CURVE SMOOTH",
"37 73 OFFCURVE",
"137 -5 OFFCURVE",
"267 -5 CURVE SMOOTH",
"400 -5 OFFCURVE",
"544 82 OFFCURVE",
"722 449 CURVE",
"715 468 LINE",
"657 468 OFFCURVE",
"604 471 OFFCURVE",
"568 518 CURVE"
);
},
{
closed = 1;
nodes = (
"318 843 OFFCURVE",
"266 782 OFFCURVE",
"266 719 CURVE SMOOTH",
"266 682 OFFCURVE",
"275 655 OFFCURVE",
"293 635 CURVE",
"384 661 LINE",
"352 682 OFFCURVE",
"352 700 OFFCURVE",
"352 717 CURVE SMOOTH",
"352 742 OFFCURVE",
"364 750 OFFCURVE",
"376 750 CURVE SMOOTH",
"388 750 OFFCURVE",
"401 744 OFFCURVE",
"401 731 CURVE SMOOTH",
"401 689 OFFCURVE",
"345 659 OFFCURVE",
"252 659 CURVE SMOOTH",
"237 659 OFFCURVE",
"220 663 OFFCURVE",
"220 677 CURVE SMOOTH",
"220 687 OFFCURVE",
"212 693 OFFCURVE",
"197 683 CURVE SMOOTH",
"177 669 OFFCURVE",
"167 648 OFFCURVE",
"167 595 CURVE SMOOTH",
"167 509 OFFCURVE",
"252 435 OFFCURVE",
"411 435 CURVE SMOOTH",
"570 435 OFFCURVE",
"678 500 OFFCURVE",
"678 636 CURVE SMOOTH",
"678 750 OFFCURVE",
"580 843 OFFCURVE",
"439 843 CURVE SMOOTH"
);
}
);
};
layerId = "FF8CB9F1-2B98-444C-A502-96421F2531A8";
rightMetricsKey = "pa-gujarati";
name = Bold;
paths = (
{
closed = 1;
nodes = (
"897 844 OFFCURVE",
"810 804 OFFCURVE",
"779 706 CURVE SMOOTH",
"676 379 LINE SMOOTH",
"643 275 OFFCURVE",
"634 224 OFFCURVE",
"634 186 CURVE SMOOTH",
"634 85 OFFCURVE",
"693 -4 OFFCURVE",
"852 -4 CURVE SMOOTH",
"993 -4 OFFCURVE",
"1085 98 OFFCURVE",
"1085 184 CURVE SMOOTH",
"1085 202 OFFCURVE",
"1079 220 OFFCURVE",
"1068 220 CURVE SMOOTH",
"1055 220 OFFCURVE",
"1048 187 OFFCURVE",
"1018 187 CURVE SMOOTH",
"1005 187 OFFCURVE",
"996 196 OFFCURVE",
"996 210 CURVE SMOOTH",
"996 216 OFFCURVE",
"997 222 OFFCURVE",
"1000 229 CURVE",
"1153 733 LINE SMOOTH",
"1158 750 OFFCURVE",
"1162 766 OFFCURVE",
"1162 779 CURVE SMOOTH",
"1162 809 OFFCURVE",
"1132 844 OFFCURVE",
"1030 844 CURVE SMOOTH"
);
},
{
closed = 1;
nodes = (
"568 518 OFFCURVE",
"445 482 OFFCURVE",
"444 481 CURVE",
"458 455 OFFCURVE",
"455 450 OFFCURVE",
"481 421 CURVE",
"391 372 OFFCURVE",
"314 366 OFFCURVE",
"279 366 CURVE SMOOTH",
"240 366 OFFCURVE",
"198 377 OFFCURVE",
"198 411 CURVE SMOOTH",
"198 428 OFFCURVE",
"191 438 OFFCURVE",
"175 438 CURVE SMOOTH",
"123 438 OFFCURVE",
"37 347 OFFCURVE",
"37 221 CURVE SMOOTH",
"37 73 OFFCURVE",
"137 -5 OFFCURVE",
"267 -5 CURVE SMOOTH",
"400 -5 OFFCURVE",
"544 82 OFFCURVE",
"722 449 CURVE",
"715 468 LINE",
"657 468 OFFCURVE",
"604 471 OFFCURVE",
"568 518 CURVE"
);
},
{
closed = 1;
nodes = (
"318 843 OFFCURVE",
"266 782 OFFCURVE",
"266 719 CURVE SMOOTH",
"266 682 OFFCURVE",
"275 655 OFFCURVE",
"293 635 CURVE",
"384 661 LINE",
"352 682 OFFCURVE",
"352 700 OFFCURVE",
"352 717 CURVE SMOOTH",
"352 742 OFFCURVE",
"364 750 OFFCURVE",
"376 750 CURVE SMOOTH",
"388 750 OFFCURVE",
"401 744 OFFCURVE",
"401 731 CURVE SMOOTH",
"401 689 OFFCURVE",
"345 659 OFFCURVE",
"252 659 CURVE SMOOTH",
"237 659 OFFCURVE",
"220 663 OFFCURVE",
"220 677 CURVE SMOOTH",
"220 687 OFFCURVE",
"212 693 OFFCURVE",
"197 683 CURVE SMOOTH",
"177 669 OFFCURVE",
"167 648 OFFCURVE",
"167 595 CURVE SMOOTH",
"167 509 OFFCURVE",
"252 435 OFFCURVE",
"411 435 CURVE SMOOTH",
"570 435 OFFCURVE",
"678 500 OFFCURVE",
"678 636 CURVE SMOOTH",
"678 750 OFFCURVE",
"580 843 OFFCURVE",
"439 843 CURVE SMOOTH"
);
}
);
width = 1182;
}
);
rightMetricsKey = "pa-gujarati";
},
{
glyphname = a;
lastChange = "2015-06-26 12:43:45 +0000";
layers = (
{
background = {
paths = (
{
closed = 1;
nodes = (
"848 403 LINE SMOOTH",
"925 655 OFFCURVE",
"754 755 OFFCURVE",
"510 755 CURVE SMOOTH",
"275 755 OFFCURVE",
"183 674 OFFCURVE",
"183 588 CURVE SMOOTH",
"183 531 OFFCURVE",
"233 483 OFFCURVE",
"330 483 CURVE SMOOTH",
"458 483 OFFCURVE",
"506 580 OFFCURVE",
"478 660 CURVE",
"539 660 OFFCURVE",
"566 637 OFFCURVE",
"566 591 CURVE SMOOTH",
"566 567 OFFCURVE",
"559 536 OFFCURVE",
"545 499 CURVE SMOOTH",
"509 404 LINE",
"443 425 OFFCURVE",
"392 442 OFFCURVE",
"299 442 CURVE SMOOTH",
"144 442 OFFCURVE",
"11 360 OFFCURVE",
"11 194 CURVE SMOOTH",
"11 77 OFFCURVE",
"108 -4 OFFCURVE",
"235 -4 CURVE SMOOTH",
"325 -4 OFFCURVE",
"381 35 OFFCURVE",
"440 103 CURVE",
"465 31 OFFCURVE",
"542 -4 OFFCURVE",
"639 -4 CURVE SMOOTH",
"765 -4 OFFCURVE",
"865 88 OFFCURVE",
"865 166 CURVE SMOOTH",
"865 182 OFFCURVE",
"859 198 OFFCURVE",
"849 198 CURVE SMOOTH",
"838 198 OFFCURVE",
"830 168 OFFCURVE",
"803 168 CURVE SMOOTH",
"787 168 OFFCURVE",
"780 183 OFFCURVE",
"787 206 CURVE SMOOTH"
);
},
{
closed = 1;
nodes = (
"447 241 LINE SMOOTH",
"430 197 OFFCURVE",
"416 181 OFFCURVE",
"397 181 CURVE SMOOTH",
"326 181 OFFCURVE",
"353 330 OFFCURVE",
"448 330 CURVE SMOOTH",
"459 330 OFFCURVE",
"469 329 OFFCURVE",
"479 326 CURVE"
);
}
);
};
layerId = "FF8CB9F1-2B98-444C-A502-96421F2531A8";
name = Bold;
paths = (
{
closed = 1;
nodes = (
"848 403 LINE SMOOTH",
"925 655 OFFCURVE",
"754 755 OFFCURVE",
"510 755 CURVE SMOOTH",
"275 755 OFFCURVE",
"183 674 OFFCURVE",
"183 588 CURVE SMOOTH",
"183 531 OFFCURVE",
"233 483 OFFCURVE",
"330 483 CURVE SMOOTH",
"458 483 OFFCURVE",
"506 580 OFFCURVE",
"478 660 CURVE",
"539 660 OFFCURVE",
"566 637 OFFCURVE",
"566 591 CURVE SMOOTH",
"566 567 OFFCURVE",
"559 536 OFFCURVE",
"545 499 CURVE SMOOTH",
"509 404 LINE",
"443 425 OFFCURVE",
"369 442 OFFCURVE",
"276 442 CURVE SMOOTH",
"121 442 OFFCURVE",
"-12 360 OFFCURVE",
"-12 194 CURVE SMOOTH",
"-12 77 OFFCURVE",
"85 -4 OFFCURVE",
"212 -4 CURVE SMOOTH",
"302 -4 OFFCURVE",
"381 35 OFFCURVE",
"440 103 CURVE",
"465 31 OFFCURVE",
"542 -4 OFFCURVE",
"639 -4 CURVE SMOOTH",
"765 -4 OFFCURVE",
"865 88 OFFCURVE",
"865 166 CURVE SMOOTH",
"865 182 OFFCURVE",
"859 198 OFFCURVE",
"849 198 CURVE SMOOTH",
"838 198 OFFCURVE",
"830 168 OFFCURVE",
"803 168 CURVE SMOOTH",
"787 168 OFFCURVE",
"780 183 OFFCURVE",
"787 206 CURVE SMOOTH"
);
},
{
closed = 1;
nodes = (
"447 241 LINE SMOOTH",
"430 197 OFFCURVE",
"393 181 OFFCURVE",
"374 181 CURVE SMOOTH",
"303 181 OFFCURVE",
"330 330 OFFCURVE",
"425 330 CURVE SMOOTH",
"436 330 OFFCURVE",
"469 329 OFFCURVE",
"479 326 CURVE"
);
}
);
width = 931;
},
{
associatedMasterId = "FF8CB9F1-2B98-444C-A502-96421F2531A8";
background = {
paths = (
{
closed = 1;
nodes = (
"377 755 OFFCURVE",
"249 669 OFFCURVE",
"249 619 CURVE SMOOTH",
"249 597 OFFCURVE",
"264 586 OFFCURVE",
"291 586 CURVE SMOOTH",
"333 586 OFFCURVE",
"377 605 OFFCURVE",
"429 605 CURVE SMOOTH",
"510 605 OFFCURVE",
"538 561 OFFCURVE",
"515 499 CURVE SMOOTH",
"429 271 LINE SMOOTH",
"412 227 OFFCURVE",
"402 189 OFFCURVE",
"402 156 CURVE SMOOTH",
"402 49 OFFCURVE",
"490 -4 OFFCURVE",
"609 -4 CURVE SMOOTH",
"735 -4 OFFCURVE",
"835 88 OFFCURVE",
"835 166 CURVE SMOOTH",
"835 182 OFFCURVE",
"829 198 OFFCURVE",
"819 198 CURVE SMOOTH",
"808 198 OFFCURVE",
"800 168 OFFCURVE",
"773 168 CURVE SMOOTH",
"757 168 OFFCURVE",
"750 183 OFFCURVE",
"757 206 CURVE SMOOTH",
"837 467 LINE SMOOTH",
"895 655 OFFCURVE",
"767 755 OFFCURVE",
"567 755 CURVE SMOOTH"
);
},
{
closed = 1;
nodes = (
"445 482 OFFCURVE",
"393 502 OFFCURVE",
"292 502 CURVE SMOOTH",
"125 502 OFFCURVE",
"-19 378 OFFCURVE",
"-19 194 CURVE SMOOTH",
"-19 77 OFFCURVE",
"78 -4 OFFCURVE",
"191 -4 CURVE SMOOTH",
"291 -4 OFFCURVE",
"377 50 OFFCURVE",
"441 142 CURVE",
"418 193 LINE",
"373 175 OFFCURVE",
"331 184 OFFCURVE",
"331 259 CURVE SMOOTH",
"331 320 OFFCURVE",
"385 390 OFFCURVE",
"441 390 CURVE SMOOTH",
"456 390 OFFCURVE",
"470 388 OFFCURVE",
"486 381 CURVE",
"519 458 LINE"
);
}
);
};
layerId = "BB191146-D8CF-45BA-B624-8553F2C7C435";
name = "Bold Jun 26 15, 13:34";
paths = (
{
closed = 1;
nodes = (
"837 467 LINE SMOOTH",
"895 655 OFFCURVE",
"767 755 OFFCURVE",
"567 755 CURVE SMOOTH",
"377 755 OFFCURVE",
"249 669 OFFCURVE",
"249 619 CURVE SMOOTH",
"249 597 OFFCURVE",
"264 586 OFFCURVE",
"291 586 CURVE SMOOTH",
"333 586 OFFCURVE",
"377 605 OFFCURVE",
"429 605 CURVE SMOOTH",
"510 605 OFFCURVE",
"538 561 OFFCURVE",
"515 499 CURVE SMOOTH",
"502 464 LINE",
"436 485 OFFCURVE",
"385 502 OFFCURVE",
"292 502 CURVE SMOOTH",
"125 502 OFFCURVE",
"-19 378 OFFCURVE",
"-19 194 CURVE SMOOTH",
"-19 77 OFFCURVE",
"96 -4 OFFCURVE",
"209 -4 CURVE SMOOTH",
"295 -4 OFFCURVE",
"351 35 OFFCURVE",
"410 103 CURVE",
"435 31 OFFCURVE",
"512 -4 OFFCURVE",
"609 -4 CURVE SMOOTH",
"735 -4 OFFCURVE",
"835 88 OFFCURVE",
"835 166 CURVE SMOOTH",
"835 182 OFFCURVE",
"829 198 OFFCURVE",
"819 198 CURVE SMOOTH",
"808 198 OFFCURVE",
"800 168 OFFCURVE",
"773 168 CURVE SMOOTH",
"757 168 OFFCURVE",
"750 183 OFFCURVE",
"757 206 CURVE SMOOTH"
);
},
{
closed = 1;
nodes = (
"417 241 LINE SMOOTH",
"400 197 OFFCURVE",
"386 181 OFFCURVE",
"367 181 CURVE SMOOTH",
"296 181 OFFCURVE",
"346 390 OFFCURVE",
"441 390 CURVE SMOOTH",
"452 390 OFFCURVE",
"462 389 OFFCURVE",
"472 386 CURVE"
);
}
);
width = 901;
}
);
unicode = 0061;
},
{
glyphname = d;
lastChange = "2015-06-25 15:27:16 +0000";
layers = (
{
background = {
paths = (
{
closed = 1;
nodes = (
"719 1180 OFFCURVE",
"689 1164 OFFCURVE",
"689 1138 CURVE SMOOTH",
"689 1106 OFFCURVE",
"717 1087 OFFCURVE",
"696 1019 CURVE",
"469 263 LINE",
"414 85 OFFCURVE",
"532 -4 OFFCURVE",
"682 -4 CURVE SMOOTH",
"822 -4 OFFCURVE",
"915 98 OFFCURVE",
"915 184 CURVE SMOOTH",
"915 202 OFFCURVE",
"909 220 OFFCURVE",
"898 220 CURVE SMOOTH",
"885 220 OFFCURVE",
"877 187 OFFCURVE",
"847 187 CURVE SMOOTH",
"829 187 OFFCURVE",
"821 204 OFFCURVE",
"829 229 CURVE SMOOTH",
"1005 801 LINE",
"1003.29 800.852 LINE",
"1042 928 LINE SMOOTH",
"1082 1060 OFFCURVE",
"922 1180 OFFCURVE",
"766 1180 CURVE SMOOTH"
);
}
);
};
layerId = "FF8CB9F1-2B98-444C-A502-96421F2531A8";
name = Bold;
paths = (
{
closed = 1;
nodes = (
"527 737 OFFCURVE",
"474 762 OFFCURVE",
"374 762 CURVE SMOOTH",
"172 762 OFFCURVE",
"0 497 OFFCURVE",
"0 232 CURVE SMOOTH",
"0 86 OFFCURVE",
"106 -4 OFFCURVE",
"210 -4 CURVE SMOOTH",
"310 -4 OFFCURVE",
"396 50 OFFCURVE",
"460 142 CURVE",
"437 193 LINE",
"392 175 OFFCURVE",
"341 184 OFFCURVE",
"341 259 CURVE SMOOTH",
"341 401 OFFCURVE",
"429 627 OFFCURVE",
"510 627 CURVE SMOOTH",
"525 627 OFFCURVE",
"539 625 OFFCURVE",
"555 618 CURVE",
"600 694 LINE"
);
},
{
closed = 1;
nodes = (
"644 1052 OFFCURVE",
"617 1038 OFFCURVE",
"617 1014 CURVE SMOOTH",
"617 986 OFFCURVE",
"643 968 OFFCURVE",
"624 907 CURVE SMOOTH",
"422 237 LINE",
"373 76 OFFCURVE",
"479 -4 OFFCURVE",
"614 -4 CURVE SMOOTH",
"740 -4 OFFCURVE",
"823 88 OFFCURVE",
"823 166 CURVE SMOOTH",
"823 182 OFFCURVE",
"818 198 OFFCURVE",
"808 198 CURVE SMOOTH",
"796 198 OFFCURVE",
"789 168 OFFCURVE",
"762 168 CURVE SMOOTH",
"746 168 OFFCURVE",
"739 184 OFFCURVE",
"746 206 CURVE",
"935 825 LINE SMOOTH",
"971 944 OFFCURVE",
"827 1052 OFFCURVE",
"687 1052 CURVE SMOOTH"
);
}
);
width = 890;
}
);
unicode = 0064;
},
{
glyphname = e;
lastChange = "2015-06-25 15:27:16 +0000";
layers = (
{
backgroundImage = {
crop = "{{304.545, 0}, {79.3636, 121}}";
imagePath = Reference/shrikhand_latin_1024.png;
locked = 1;
transform = "{11, 0, 0, 11, -3350, -166}";
};
layerId = "FF8CB9F1-2B98-444C-A502-96421F2531A8";
name = Bold;
paths = (
{
closed = 1;
nodes = (
"230 753 OFFCURVE",
"9 554 OFFCURVE",
"9 267 CURVE SMOOTH",
"9 104 OFFCURVE",
"127 -4 OFFCURVE",
"347 -4 CURVE SMOOTH",
"552 -4 OFFCURVE",
"687 103 OFFCURVE",
"687 187 CURVE SMOOTH",
"687 215 OFFCURVE",
"675 224 OFFCURVE",
"670 224 CURVE SMOOTH",
"652 224 OFFCURVE",
"603 175 OFFCURVE",
"522 175 CURVE SMOOTH",
"408 175 OFFCURVE",
"333 221 OFFCURVE",
"333 339 CURVE SMOOTH",
"333 558 OFFCURVE",
"396 635 OFFCURVE",
"434 635 CURVE SMOOTH",
"450 635 OFFCURVE",
"466 626 OFFCURVE",
"466 588 CURVE SMOOTH",
"466 518 OFFCURVE",
"412 455 OFFCURVE",
"314 463 CURVE",
"258 378 LINE",
"593 320 OFFCURVE",
"782 403 OFFCURVE",
"782 562 CURVE SMOOTH",
"782 671 OFFCURVE",
"677 753 OFFCURVE",
"481 753 CURVE SMOOTH"
);
}
);
width = 786;
}
);
unicode = 0065;
},
{
glyphname = h;
lastChange = "2015-06-25 15:27:16 +0000";
layers = (
{
background = {
paths = (
{
closed = 1;
nodes = (
"161 844 OFFCURVE",
"131 828 OFFCURVE",
"131 802 CURVE SMOOTH",
"131 770 OFFCURVE",
"159 751 OFFCURVE",
"138 683 CURVE SMOOTH",
"0 238 LINE SMOOTH",
"-54 62 OFFCURVE",
"99 -4 OFFCURVE",
"205 -4 CURVE SMOOTH",
"272 -4 OFFCURVE",
"311 26 OFFCURVE",
"340 119 CURVE SMOOTH",
"484 592 LINE SMOOTH",
"524 724 OFFCURVE",
"364 844 OFFCURVE",
"208 844 CURVE SMOOTH"
);
}
);
};
layerId = "FF8CB9F1-2B98-444C-A502-96421F2531A8";
name = Bold;
paths = (
{
closed = 1;
nodes = (
"556 755 OFFCURVE",
"461 702 OFFCURVE",
"362 535 CURVE",
"410 488 LINE",
"437 530 OFFCURVE",
"460 542 OFFCURVE",
"484 542 CURVE SMOOTH",
"510 542 OFFCURVE",
"529 520 OFFCURVE",
"514 472 CURVE SMOOTH",
"440 237 LINE SMOOTH",
"390 77 OFFCURVE",
"497 -4 OFFCURVE",
"632 -4 CURVE SMOOTH",
"758 -4 OFFCURVE",
"842 88 OFFCURVE",
"842 166 CURVE SMOOTH",
"842 182 OFFCURVE",
"836 198 OFFCURVE",
"826 198 CURVE SMOOTH",
"815 198 OFFCURVE",
"807 168 OFFCURVE",
"780 168 CURVE SMOOTH",
"764 168 OFFCURVE",
"757 183 OFFCURVE",
"764 206 CURVE SMOOTH",
"848 479 LINE SMOOTH",
"895 632 OFFCURVE",
"832 755 OFFCURVE",
"657 755 CURVE SMOOTH"
);
},
{
closed = 1;
nodes = (
"238 1058 OFFCURVE",
"211 1043 OFFCURVE",
"211 1020 CURVE SMOOTH",
"211 991 OFFCURVE",
"236 974 OFFCURVE",
"217 913 CURVE SMOOTH",
"0 214 LINE SMOOTH",
"-50 56 OFFCURVE",
"89 -4 OFFCURVE",
"185 -4 CURVE SMOOTH",
"245 -4 OFFCURVE",
"281 24 OFFCURVE",
"306 107 CURVE SMOOTH",
"528 831 LINE SMOOTH",
"565 950 OFFCURVE",
"420 1058 OFFCURVE",
"280 1058 CURVE SMOOTH"
);
}
);
width = 908;
}
);
unicode = 0068;
},
{
glyphname = i;
layers = (
{
layerId = "FF8CB9F1-2B98-444C-A502-96421F2531A8";
name = Bold;
paths = (
{
closed = 1;
nodes = (
"145 760 OFFCURVE",
"118 745 OFFCURVE",
"118 722 CURVE SMOOTH",
"118 693 OFFCURVE",
"143 676 OFFCURVE",
"124 615 CURVE SMOOTH",
"0 214 LINE SMOOTH",
"-49 56 OFFCURVE",
"89 -4 OFFCURVE",
"185 -4 CURVE SMOOTH",
"245 -4 OFFCURVE",
"280 23 OFFCURVE",
"306 107 CURVE SMOOTH",
"436 533 LINE SMOOTH",
"472 652 OFFCURVE",
"328 760 OFFCURVE",
"187 760 CURVE SMOOTH"
);
},
{
closed = 1;
nodes = (
"500 741 OFFCURVE",
"580 803 OFFCURVE",
"536 879 CURVE SMOOTH",
"495 950 OFFCURVE",
"410 1004 OFFCURVE",
"336 1004 CURVE SMOOTH",
"243 1004 OFFCURVE",
"165 941 OFFCURVE",
"206 868 CURVE SMOOTH",
"248 797 OFFCURVE",
"333 741 OFFCURVE",
"406 741 CURVE SMOOTH"
);
}
);
width = 465;
}
);
unicode = 0069;
},
{
glyphname = n;
lastChange = "2015-06-26 16:27:34 +0000";
layers = (
{
background = {
paths = (
{
closed = 1;
nodes = (
"159 755 OFFCURVE",
"127 740 OFFCURVE",
"127 721 CURVE SMOOTH",
"127 698 OFFCURVE",
"157 681 OFFCURVE",
"138 626 CURVE SMOOTH",
"5 238 LINE SMOOTH",
"-46 88 OFFCURVE",
"46 -4 OFFCURVE",
"175 -4 CURVE SMOOTH",
"255 -4 OFFCURVE",
"294 35 OFFCURVE",
"319 117 CURVE SMOOTH",
"446 533 LINE SMOOTH",
"482 652 OFFCURVE",
"392 755 OFFCURVE",
"224 755 CURVE SMOOTH"
);
},
{
closed = 0;
nodes = (
"552 499 LINE SMOOTH",
"466 271 LINE SMOOTH",
"449 227 OFFCURVE",
"439 189 OFFCURVE",
"439 156 CURVE SMOOTH",
"439 49 OFFCURVE",
"527 -4 OFFCURVE",
"646 -4 CURVE SMOOTH",
"772 -4 OFFCURVE",
"872 88 OFFCURVE",
"872 166 CURVE SMOOTH",
"872 182 OFFCURVE",
"866 198 OFFCURVE",
"856 198 CURVE SMOOTH",
"845 198 OFFCURVE",
"837 168 OFFCURVE",
"810 168 CURVE SMOOTH",
"794 168 OFFCURVE",
"787 183 OFFCURVE",
"794 206 CURVE SMOOTH",
"878 479 LINE SMOOTH",
"925 632 OFFCURVE",
"852 755 OFFCURVE",
"692 755 CURVE SMOOTH",
"586 755 OFFCURVE",
"476 711 OFFCURVE",
"372 535 CURVE",
"425 465 LINE",
"445 528 OFFCURVE",
"479 542 OFFCURVE",
"502 542 CURVE SMOOTH",
"534 542 OFFCURVE",
"559 520 OFFCURVE",
"544 472 CURVE"
);
}
);
};
guideLines = (
{
angle = 72.9336;
position = "{128, 595}";
}
);
layerId = "FF8CB9F1-2B98-444C-A502-96421F2531A8";
name = Bold;
paths = (
{
closed = 1;
nodes = (
"159 755 OFFCURVE",
"127 740 OFFCURVE",
"127 721 CURVE SMOOTH",
"127 698 OFFCURVE",
"157 681 OFFCURVE",
"138 626 CURVE SMOOTH",
"5 238 LINE SMOOTH",
"-46 88 OFFCURVE",
"46 -4 OFFCURVE",
"175 -4 CURVE SMOOTH",
"255 -4 OFFCURVE",
"294 35 OFFCURVE",
"319 117 CURVE SMOOTH",
"446 533 LINE SMOOTH",
"482 652 OFFCURVE",
"392 755 OFFCURVE",
"224 755 CURVE SMOOTH"
);
},
{
closed = 1;
nodes = (
"466 271 LINE SMOOTH",
"449 227 OFFCURVE",
"439 189 OFFCURVE",
"439 156 CURVE SMOOTH",
"439 49 OFFCURVE",
"527 -4 OFFCURVE",
"646 -4 CURVE SMOOTH",
"772 -4 OFFCURVE",
"872 88 OFFCURVE",
"872 166 CURVE SMOOTH",
"872 182 OFFCURVE",
"866 198 OFFCURVE",
"856 198 CURVE SMOOTH",
"845 198 OFFCURVE",
"837 168 OFFCURVE",
"810 168 CURVE SMOOTH",
"794 168 OFFCURVE",
"787 183 OFFCURVE",
"794 206 CURVE SMOOTH",
"878 479 LINE SMOOTH",
"925 632 OFFCURVE",
"852 755 OFFCURVE",
"692 755 CURVE SMOOTH",
"586 755 OFFCURVE",
"476 711 OFFCURVE",
"372 535 CURVE",
"425 465 LINE",
"445 528 OFFCURVE",
"479 542 OFFCURVE",
"502 542 CURVE SMOOTH",
"534 542 OFFCURVE",
"560 519 OFFCURVE",
"542 472 CURVE SMOOTH"
);
}
);
width = 938;
}
);
unicode = 006E;
},
{
glyphname = o;
lastChange = "2015-06-26 12:17:41 +0000";
layers = (
{
background = {
paths = (
{
closed = 1;
nodes = (
"197 770 OFFCURVE",
"-10 535 OFFCURVE",
"-10 251 CURVE SMOOTH",
"-10 86 OFFCURVE",
"116 -19 OFFCURVE",
"337 -19 CURVE SMOOTH",
"614 -19 OFFCURVE",
"833 193 OFFCURVE",
"833 493 CURVE SMOOTH",
"833 699 OFFCURVE",
"663 770 OFFCURVE",
"483 770 CURVE SMOOTH"
);
},
{
closed = 1;
nodes = (
"513 648 OFFCURVE",
"530 606 OFFCURVE",
"473 376 CURVE SMOOTH",
"417 146 OFFCURVE",
"380 104 OFFCURVE",
"346 104 CURVE SMOOTH",
"312 104 OFFCURVE",
"295 146 OFFCURVE",
"351 376 CURVE SMOOTH",
"408 606 OFFCURVE",
"445 648 OFFCURVE",
"479 648 CURVE SMOOTH"
);
}
);
};
backgroundImage = {
crop = "{{495.545, 0}, {90.9091, 122.273}}";
imagePath = Reference/shrikhand_latin_1024.png;
locked = 1;
transform = "{11, 0, 0, 11, -5510, -180}";
};
guideLines = (
{
position = "{96, 251}";
showMeasurement = 1;
},
{
position = "{96, 493}";
showMeasurement = 1;
}
);
layerId = "FF8CB9F1-2B98-444C-A502-96421F2531A8";
name = Bold;
paths = (
{
closed = 1;
nodes = (
"532 638 OFFCURVE",
"546 595 OFFCURVE",
"473 371 CURVE SMOOTH",
"401 146 OFFCURVE",
"361 108 OFFCURVE",
"327 111 CURVE SMOOTH",
"293 114 OFFCURVE",
"279 157 OFFCURVE",
"351 381 CURVE SMOOTH",
"424 606 OFFCURVE",
"464 644 OFFCURVE",
"498 641 CURVE SMOOTH"
);
},
{
closed = 1;
nodes = (
"-10 87 OFFCURVE",
"116 -19 OFFCURVE",
"337 -19 CURVE SMOOTH",
"614 -19 OFFCURVE",
"833 195 OFFCURVE",
"833 498 CURVE SMOOTH",
"833 664 OFFCURVE",
"707 770 OFFCURVE",
"486 770 CURVE SMOOTH",
"209 770 OFFCURVE",
"-10 556 OFFCURVE",
"-10 253 CURVE SMOOTH"
);
}
);
width = 863;
}
);
unicode = 006F;
},
{
glyphname = s;
lastChange = "2015-06-25 16:33:52 +0000";
layers = (
{
layerId = "FF8CB9F1-2B98-444C-A502-96421F2531A8";
name = Bold;
paths = (
{
closed = 1;
nodes = (
"142 -2 OFFCURVE",
"12 74 OFFCURVE",
"12 162 CURVE SMOOTH",
"12 217 OFFCURVE",
"44 212 OFFCURVE",
"66 212 CURVE SMOOTH",
"125 212 OFFCURVE",
"184 154 OFFCURVE",
"264 154 CURVE SMOOTH",
"296 154 OFFCURVE",
"307 169 OFFCURVE",
"307 201 CURVE SMOOTH",
"307 233 OFFCURVE",
"81 332 OFFCURVE",
"81 491 CURVE SMOOTH",
"81 649 OFFCURVE",
"238 758 OFFCURVE",
"437 758 CURVE SMOOTH",
"589 758 OFFCURVE",
"692 677 OFFCURVE",
"692 621 CURVE SMOOTH",
"692 593 OFFCURVE",
"676 574 OFFCURVE",
"644 574 CURVE SMOOTH",
"602 574 OFFCURVE",
"554 630 OFFCURVE",
"477 630 CURVE SMOOTH",
"442 630 OFFCURVE",
"417 635 OFFCURVE",
"417 608 CURVE SMOOTH",
"417 542 OFFCURVE",
"676 462 OFFCURVE",
"676 280 CURVE SMOOTH",
"676 132 OFFCURVE",
"539 -2 OFFCURVE",
"358 -2 CURVE SMOOTH"
);
}
);
width = 716;
}
);
unicode = 0073;
},
{
glyphname = a.alt;
lastChange = "2015-06-26 16:27:26 +0000";
layers = (
{
background = {
paths = (
{
closed = 1;
nodes = (
"550 459 LINE",
"476 482 OFFCURVE",
"425 502 OFFCURVE",
"325 502 CURVE SMOOTH",
"158 502 OFFCURVE",
"14 378 OFFCURVE",
"14 194 CURVE SMOOTH",
"14 77 OFFCURVE",
"129 -4 OFFCURVE",
"242 -4 CURVE SMOOTH",
"328 -4 OFFCURVE",
"384 35 OFFCURVE",
"443 103 CURVE",
"468 31 OFFCURVE",
"545 -4 OFFCURVE",
"642 -4 CURVE SMOOTH",
"768 -4 OFFCURVE",
"868 88 OFFCURVE",
"868 166 CURVE SMOOTH",
"868 182 OFFCURVE",
"862 198 OFFCURVE",
"852 198 CURVE SMOOTH",
"841 198 OFFCURVE",
"833 168 OFFCURVE",
"806 168 CURVE SMOOTH",
"790 168 OFFCURVE",
"783 183 OFFCURVE",
"790 206 CURVE SMOOTH",
"870 467 LINE SMOOTH",
"928 655 OFFCURVE",
"800 755 OFFCURVE",
"600 755 CURVE SMOOTH",
"410 755 OFFCURVE",
"282 669 OFFCURVE",
"282 619 CURVE SMOOTH",
"282 597 OFFCURVE",
"297 586 OFFCURVE",
"324 586 CURVE SMOOTH",
"366 586 OFFCURVE",
"410 605 OFFCURVE",
"462 605 CURVE SMOOTH",
"543 605 OFFCURVE",
"571 561 OFFCURVE",
"548 499 CURVE",
"450 241 LINE",
"433 197 OFFCURVE",
"419 181 OFFCURVE",
"400 181 CURVE SMOOTH",
"329 181 OFFCURVE",
"379 390 OFFCURVE",
"474 390 CURVE SMOOTH",
"491 390 OFFCURVE",
"505 388 OFFCURVE",
"520 380 CURVE"
);
}
);
};
layerId = "FF8CB9F1-2B98-444C-A502-96421F2531A8";
rightMetricsKey = n;
name = Bold;
paths = (
{
closed = 1;
nodes = (
"450 241 LINE SMOOTH",
"433 196 OFFCURVE",
"417 181 OFFCURVE",
"395 181 CURVE SMOOTH",
"375 181 OFFCURVE",
"358 200 OFFCURVE",
"358 230 CURVE SMOOTH",
"358 333 OFFCURVE",
"465 652 OFFCURVE",
"568 652 CURVE SMOOTH",
"588 652 OFFCURVE",
"595 638 OFFCURVE",
"588 618 CURVE SMOOTH"
);
},
{
closed = 1;
nodes = (
"248 755 OFFCURVE",
"0 521 OFFCURVE",
"0 228 CURVE SMOOTH",
"0 77 OFFCURVE",
"125 -4 OFFCURVE",
"238 -4 CURVE SMOOTH",
"334 -4 OFFCURVE",
"394 35 OFFCURVE",
"443 103 CURVE",
"468 31 OFFCURVE",
"545 -4 OFFCURVE",
"642 -4 CURVE SMOOTH",
"768 -4 OFFCURVE",
"868 88 OFFCURVE",
"868 166 CURVE SMOOTH",
"868 182 OFFCURVE",
"862 198 OFFCURVE",
"852 198 CURVE SMOOTH",
"841 198 OFFCURVE",
"833 168 OFFCURVE",
"806 168 CURVE SMOOTH",
"790 168 OFFCURVE",
"783 183 OFFCURVE",
"790 206 CURVE SMOOTH",
"864 447 LINE SMOOTH",
"914 609 OFFCURVE",
"828 755 OFFCURVE",
"531 755 CURVE SMOOTH"
);
}
);
width = 923;
}
);
rightMetricsKey = n;
},
{
glyphname = comma;
lastChange = "2015-06-25 10:58:17 +0000";
layers = (
{
background = {
paths = (
{
closed = 1;
nodes = (
"70 12 OFFCURVE",
"70 -20 CURVE SMOOTH",
"70 -59 OFFCURVE",
"-10 -111 OFFCURVE",
"-10 -140 CURVE SMOOTH",
"-10 -152 OFFCURVE",
"0 -160 OFFCURVE",
"21 -160 CURVE SMOOTH",
"118 -160 OFFCURVE",
"282 -17 OFFCURVE",
"282 144 CURVE SMOOTH",
"282 230 OFFCURVE",
"227 289 OFFCURVE",
"151 289 CURVE SMOOTH",
"58 289 OFFCURVE",
"-3 203 OFFCURVE",
"-3 128 CURVE SMOOTH",
"-3 31 OFFCURVE"
);
}
);
};
layerId = "FF8CB9F1-2B98-444C-A502-96421F2531A8";
name = Bold;
paths = (
{
closed = 1;
nodes = (
"57 12 OFFCURVE",
"56 -20 CURVE SMOOTH",
"54 -59 OFFCURVE",
"-29 -111 OFFCURVE",
"-31 -140 CURVE SMOOTH",
"-31 -152 OFFCURVE",
"-22 -160 OFFCURVE",
"-1 -160 CURVE SMOOTH",
"96 -160 OFFCURVE",
"270 -17 OFFCURVE",
"278 144 CURVE SMOOTH",
"283 230 OFFCURVE",
"229 289 OFFCURVE",
"153 289 CURVE SMOOTH",
"60 289 OFFCURVE",
"-3 203 OFFCURVE",
"-7 128 CURVE SMOOTH",
"-12 31 OFFCURVE"
);
}
);
width = 332;
}
);
unicode = 002C;
},
{
glyphname = period;
lastChange = "2015-06-25 10:57:47 +0000";
layers = (
{
background = {
paths = (
{
closed = 1;
nodes = (
"342 -4 OFFCURVE",
"415 62 OFFCURVE",
"423 143 CURVE SMOOTH",
"432 224 OFFCURVE",
"372 289 OFFCURVE",
"291 289 CURVE SMOOTH",
"210 289 OFFCURVE",
"139 224 OFFCURVE",
"130 143 CURVE SMOOTH",
"122 62 OFFCURVE",
"180 -4 OFFCURVE",
"261 -4 CURVE SMOOTH"
);
}
);
};
layerId = "FF8CB9F1-2B98-444C-A502-96421F2531A8";
name = Bold;
paths = (
{
closed = 1;
nodes = (
"219 -4 OFFCURVE",
"285 80 OFFCURVE",
"285 159 CURVE SMOOTH",
"285 232 OFFCURVE",
"228 289 OFFCURVE",
"152 289 CURVE SMOOTH",
"55 289 OFFCURVE",
"-10 203 OFFCURVE",
"-10 128 CURVE SMOOTH",
"-10 54 OFFCURVE",
"46 -4 OFFCURVE",
"122 -4 CURVE SMOOTH"
);
}
);
width = 335;
}
);
unicode = 002E;
},
{
glyphname = gjmII.alt;
lastChange = "2015-06-05 16:42:42 +0000";
layers = (
{
layerId = "FF8CB9F1-2B98-444C-A502-96421F2531A8";
name = Bold;
paths = (
{
closed = 1;
nodes = (
"555 782 LINE SMOOTH",
"605 946 OFFCURVE",
"527 1165 OFFCURVE",
"109 1165 CURVE SMOOTH",
"-37 1165 OFFCURVE",
"-201 1110 OFFCURVE",
"-201 975 CURVE SMOOTH",
"-201 893 OFFCURVE",
"-131 841 OFFCURVE",
"-39 841 CURVE SMOOTH",
"41 841 OFFCURVE",
"83 887 OFFCURVE",
"83 934 CURVE SMOOTH",
"83 952 OFFCURVE",
"77 958 OFFCURVE",
"67 958 CURVE SMOOTH",
"49 958 OFFCURVE",
"48 931 OFFCURVE",
"24 931 CURVE SMOOTH",
"10 931 OFFCURVE",
"3 939 OFFCURVE",
"3 959 CURVE SMOOTH",
"3 1000 OFFCURVE",
"43 1034 OFFCURVE",
"101 1034 CURVE SMOOTH",
"195 1034 OFFCURVE",
"237 949 OFFCURVE",
"191 800 CURVE SMOOTH",
"62 379 LINE SMOOTH",
"33 286 OFFCURVE",
"20 234 OFFCURVE",
"20 186 CURVE SMOOTH",
"20 85 OFFCURVE",
"79 -4 OFFCURVE",
"239 -4 CURVE SMOOTH",
"379 -4 OFFCURVE",
"472 98 OFFCURVE",
"472 184 CURVE SMOOTH",
"472 202 OFFCURVE",
"466 220 OFFCURVE",
"455 220 CURVE SMOOTH",
"442 220 OFFCURVE",
"434 187 OFFCURVE",
"404 187 CURVE SMOOTH",
"386 187 OFFCURVE",
"378 203 OFFCURVE",
"386 229 CURVE SMOOTH"
);
}
);
width = 600;
}
);
},
{
glyphname = gjJ_JA;
lastChange = "2015-06-05 10:34:19 +0000";
layers = (
{
background = {
paths = (
{
closed = 1;
nodes = (
"517 318 LINE",
"547 298 OFFCURVE",
"565 276 OFFCURVE",
"565 243 CURVE SMOOTH",
"565 212 OFFCURVE",
"541 187 OFFCURVE",
"512 187 CURVE SMOOTH",
"484 187 OFFCURVE",
"465 203 OFFCURVE",
"465 229 CURVE SMOOTH",
"465 256 OFFCURVE",
"479 265 OFFCURVE",
"534 309 CURVE SMOOTH",
"796 517 LINE SMOOTH",
"819 535 OFFCURVE",
"844 544 OFFCURVE",
"867 544 CURVE SMOOTH",
"904 544 OFFCURVE",
"936 522 OFFCURVE",
"948 484 CURVE",
"1023 508 LINE",
"1041 658 OFFCURVE",
"958 819 OFFCURVE",
"783 819 CURVE SMOOTH",
"709 819 OFFCURVE",
"651 781 OFFCURVE",
"580 716 CURVE SMOOTH",
"304 443 LINE SMOOTH",
"227 357 OFFCURVE",
"202 299 OFFCURVE",
"202 231 CURVE SMOOTH",
"202 106 OFFCURVE",
"321 0 OFFCURVE",
"489 0 CURVE SMOOTH",
"634 0 OFFCURVE",
"737 81 OFFCURVE",
"737 196 CURVE SMOOTH",
"737 271 OFFCURVE",
"681 337 OFFCURVE",
"598 358 CURVE"
);
},
{
closed = 1;
nodes = (
"91 838 OFFCURVE",
"13 773 OFFCURVE",
"13 664 CURVE SMOOTH",
"13 535 OFFCURVE",
"112 456 OFFCURVE",
"202 456 CURVE SMOOTH",
"222 456 OFFCURVE",
"232 465 OFFCURVE",
"232 477 CURVE SMOOTH",
"232 496 OFFCURVE",
"212 503 OFFCURVE",
"212 532 CURVE SMOOTH",
"212 558 OFFCURVE",
"230 576 OFFCURVE",
"268 576 CURVE SMOOTH",
"302 576 OFFCURVE",
"342 565 OFFCURVE",
"389 517 CURVE",
"454 549 LINE",
"392 766 OFFCURVE",
"294 838 OFFCURVE",
"181 838 CURVE SMOOTH"
);
},
{
closed = 1;
nodes = (
"1231 941 OFFCURVE",
"1157 877 OFFCURVE",
"1157 833 CURVE SMOOTH",
"1157 798 OFFCURVE",
"1217 822 OFFCURVE",
"1217 773 CURVE SMOOTH",
"1217 738 OFFCURVE",
"1180 691 OFFCURVE",
"1000 551 CURVE SMOOTH",
"834 422 OFFCURVE",
"792 343 OFFCURVE",
"792 250 CURVE SMOOTH",
"792 104 OFFCURVE",
"911 0 OFFCURVE",
"1079 0 CURVE SMOOTH",
"1224 0 OFFCURVE",
"1327 81 OFFCURVE",
"1327 196 CURVE SMOOTH",
"1327 266 OFFCURVE",
"1279 328 OFFCURVE",
"1205 353 CURVE",
"1318 407 LINE SMOOTH",
"1481 485 OFFCURVE",
"1571 593 OFFCURVE",
"1571 711 CURVE SMOOTH",
"1571 842 OFFCURVE",
"1477 941 OFFCURVE",
"1339 941 CURVE SMOOTH"
);
},
{
closed = 1;
nodes = (
"1143 290 OFFCURVE",
"1155 270 OFFCURVE",
"1155 243 CURVE SMOOTH",
"1155 212 OFFCURVE",
"1131 187 OFFCURVE",
"1102 187 CURVE SMOOTH",
"1074 187 OFFCURVE",
"1055 203 OFFCURVE",
"1055 229 CURVE SMOOTH",
"1055 256 OFFCURVE",
"1075 279 OFFCURVE",
"1122 307 CURVE"
);
}
